<svg width="1440" height="1692" viewBox="0 0 1440 1692" fill="none" xmlns="http://www.w3.org/2000/svg">
<path d="M924.701 694.478L906.5 735.515H856.513L834 789.179H788.324V846H723.923V899.664H655.735V956.485H591.334V1013.31H523.145L523.145 1066.97H454.957V1123.79H390.556V1180.61H322.367V1234.28H254.179V1291.1H189.778V1398.43H121.589V1512.07H57.1888V1606.77L129.166 1666.75H250.39L1038.35 1010.15V896.507L1042.14 893.351H1038.35L1174.73 786.022V681.851L1114.11 634.5L996.678 634.5L924.701 694.478ZM723.923 445.097V233.597L788.324 233.597V123.112H856.513V66.2909L924.701 66.2909V0L1390.66 0L1470.21 63.1343L1474 571.366L1068.66 905.978V1019.62L356.462 1613.08H394.344L458.745 1666.75H579.969L913.337 1388.96H1053.5V1414.21H924.701L591.334 1692H447.38L379.191 1635.18H326.156L261.755 1688.84H117.801L34.4592 1622.55H-11L-11 1398.43H57.1888V1291.1H121.589L121.589 1180.61H189.778V1123.79H254.179V1066.97H322.367V1013.31H390.556V956.485H454.957V899.664H523.145L591.334 846H655.735V789.179H723.923V735.515H856.513V678.694H901.972L985.314 612.403L1125.48 612.403L1201.24 672.381V763.925L1443.69 561.896V72.6045L1379.29 22.0969L989.102 22.0969V123.112H924.701L860.5 176.776H856.513V233.597H788.324V445.097H1045.93L1114.11 388.276H1178.52L1311.1 280.948L1330.05 299.888L1189.88 413.53H1125.48L1057.29 467.194H716.347V445.097H723.923Z" fill="#94D8FF"/>
</svg>
