<svg width="3567" height="1385" viewBox="0 0 3567 1385" fill="none" xmlns="http://www.w3.org/2000/svg">
<path d="M1166.43 687.794L1221.09 742.455L1278.83 684.715L1333.49 739.376L1430.74 642.129L1382.15 593.542L1269.75 596.621L1215.09 541.96L1108.77 538.961L944.784 374.978L832.383 378.057L668.399 214.073L455.75 214.152L398.052 156.454L300.841 156.489L100.27 357.061L148.858 405.648L148.816 521.086L355.313 727.584L1020.6 724.302L1060.11 684.795L1114.77 739.456L1166.43 687.794ZM1169.43 794.117L1114.77 739.456L1057.03 797.197L1017.55 757.719L343.15 757.967L115.396 530.212L115.436 420.85L54.7015 360.115L288.701 126.115L410.215 126.071L464.876 180.732L683.601 180.652L847.584 344.635L956.946 344.595L1117.89 505.541L1230.29 508.538L1281.92 560.162L1394.32 563.159L1506.67 675.518L1549.22 632.972L1603.88 687.634L1658.58 632.932L1713.24 687.593L1822.65 578.191L1877.31 632.852L1922.89 587.268L1877.34 541.717L1652.54 541.799L1597.88 487.138L1379.15 487.218L1315.38 423.447L1315.43 301.933L1540.31 77.0505L1604.08 140.822L1658.78 86.1205L1713.44 140.782L1768.15 86.0805L1822.81 140.742L1877.51 86.0403L1932.17 140.701L2041.57 31.2989L2096.23 85.9601L2150.93 31.2588L2205.59 85.9199L2260.3 31.2187L2314.96 85.8797L2366.62 34.2175L2421.28 88.8785L2479.02 31.1384L2533.68 85.7996L2585.34 34.1372L2640.01 88.7983L2697.75 31.0581L2752.41 85.7192L2804.07 34.0569L2858.73 88.7181L2913.43 34.0168L2955.95 76.531L3010.65 21.8298L3034.94 46.1236L2873.88 207.188L2807.07 140.38L2749.33 198.121L2694.67 143.459L2643 195.122L2588.34 140.461L2478.94 249.863L2424.28 195.202L2369.58 249.903L2314.92 195.242L2260.22 249.943L2205.55 195.282L2150.85 249.983L2096.19 195.322L2041.49 250.024L1986.83 195.363L1932.13 250.064L1877.47 195.403L1822.77 250.104L1768.11 195.443L1713.4 250.144L1658.74 195.483L1549.34 304.885L1494.68 250.224L1439.98 304.926L1397.46 262.411L1348.84 311.035L1348.8 408.246L1391.32 450.76L1610.04 450.68L1667.74 508.377L1892.54 508.295L1941.13 508.299L1953.28 508.295L1986.71 508.295L2041.37 578.111L2096.07 523.409L2150.73 578.07L2205.43 523.369L2260.1 578.03L2314.8 523.329L2369.46 577.99L2478.86 468.588L2533.52 523.249L2588.22 468.548L2639.85 520.172L2694.55 465.471L2752.25 523.168L2803.91 471.506L2855.53 523.131L2913.27 465.391L2970.97 523.088L3022.63 471.426L3074.26 523.05L3132 465.31L3186.66 519.971L3238.32 468.309L3292.98 522.97L3347.68 468.269L3402.34 522.93L3457.05 468.229L3566.37 577.551L3511.67 632.252L3457.01 577.591L3402.3 632.292L3347.64 577.631L3295.98 629.294L3241.32 574.633L3183.58 632.373L3128.92 577.711L3077.26 629.374L3022.59 574.713L2913.19 684.115L2861.57 632.491L2806.87 687.192L2749.17 629.494L2694.47 684.195L2642.84 632.571L2588.14 687.272L2530.44 629.574L2475.74 684.276L2424.12 632.651L2314.72 742.054L2260.06 687.393L2205.35 742.094L2150.69 687.433L2095.99 742.134L2041.33 687.473L1931.93 796.875L1877.27 742.214L1822.57 796.916L1767.9 742.254L1725.36 784.8L1937.93 997.371L2478.67 997.172L2770.44 1328.6L2749.17 1349.87L2469.54 1030.59L1922.73 1030.79L1649.42 757.487L1643.35 757.489L1603.84 796.996L1567.4 760.555L1546.14 757.525L1540.06 751.452L1494.48 797.036L1439.82 742.375L1388.16 794.037L1333.49 739.376L1275.75 797.116L1221.09 742.455L1169.43 794.117Z" fill="#94D8FF"/>
</svg>
