<svg width="1113" height="367" viewBox="0 0 1113 367" fill="none" xmlns="http://www.w3.org/2000/svg">
<path d="M132.176 349.159C131.487 349.159 130.882 348.995 130.362 348.667C129.844 348.339 129.44 347.88 129.148 347.29C128.86 346.7 128.716 346.01 128.716 345.222C128.716 344.426 128.86 343.732 129.148 343.138C129.44 342.545 129.844 342.085 130.362 341.756C130.882 341.428 131.487 341.264 132.176 341.264C132.866 341.264 133.469 341.428 133.986 341.756C134.506 342.085 134.911 342.545 135.199 343.138C135.491 343.732 135.636 344.426 135.636 345.222C135.636 346.01 135.491 346.7 135.199 347.29C134.911 347.88 134.506 348.339 133.986 348.667C133.469 348.995 132.866 349.159 132.176 349.159ZM132.176 348.105C132.7 348.105 133.131 347.971 133.469 347.702C133.807 347.434 134.057 347.081 134.219 346.643C134.382 346.206 134.463 345.732 134.463 345.222C134.463 344.711 134.382 344.236 134.219 343.795C134.057 343.354 133.807 342.998 133.469 342.726C133.131 342.454 132.7 342.318 132.176 342.318C131.652 342.318 131.222 342.454 130.884 342.726C130.545 342.998 130.295 343.354 130.133 343.795C129.97 344.236 129.889 344.711 129.889 345.222C129.889 345.732 129.97 346.206 130.133 346.643C130.295 347.081 130.545 347.434 130.884 347.702C131.222 347.971 131.652 348.105 132.176 348.105ZM140.25 349.159C139.534 349.159 138.917 348.99 138.4 348.652C137.883 348.314 137.485 347.848 137.207 347.255C136.929 346.662 136.789 345.984 136.789 345.222C136.789 344.446 136.932 343.762 137.217 343.168C137.505 342.572 137.906 342.106 138.42 341.771C138.937 341.433 139.54 341.264 140.23 341.264C140.767 341.264 141.251 341.364 141.681 341.562C142.112 341.761 142.465 342.04 142.74 342.398C143.016 342.756 143.186 343.173 143.252 343.651H142.079C141.99 343.303 141.791 342.994 141.483 342.726C141.178 342.454 140.767 342.318 140.25 342.318C139.792 342.318 139.391 342.437 139.047 342.676C138.705 342.911 138.438 343.245 138.246 343.675C138.057 344.103 137.963 344.605 137.963 345.182C137.963 345.772 138.056 346.286 138.241 346.723C138.43 347.161 138.695 347.5 139.037 347.742C139.381 347.984 139.786 348.105 140.25 348.105C140.555 348.105 140.831 348.052 141.08 347.946C141.328 347.84 141.539 347.688 141.711 347.489C141.884 347.29 142.006 347.051 142.079 346.773H143.252C143.186 347.223 143.022 347.629 142.76 347.991C142.502 348.349 142.159 348.634 141.731 348.846C141.307 349.055 140.813 349.159 140.25 349.159ZM149.798 344.645V345.739H145.583V344.645H149.798ZM145.861 341.364V349H144.688V341.364H145.861ZM150.693 341.364V349H149.52V341.364H150.693ZM155.658 349.159C154.969 349.159 154.364 348.995 153.844 348.667C153.327 348.339 152.922 347.88 152.631 347.29C152.342 346.7 152.198 346.01 152.198 345.222C152.198 344.426 152.342 343.732 152.631 343.138C152.922 342.545 153.327 342.085 153.844 341.756C154.364 341.428 154.969 341.264 155.658 341.264C156.348 341.264 156.951 341.428 157.468 341.756C157.988 342.085 158.393 342.545 158.681 343.138C158.973 343.732 159.119 344.426 159.119 345.222C159.119 346.01 158.973 346.7 158.681 347.29C158.393 347.88 157.988 348.339 157.468 348.667C156.951 348.995 156.348 349.159 155.658 349.159ZM155.658 348.105C156.182 348.105 156.613 347.971 156.951 347.702C157.289 347.434 157.539 347.081 157.702 346.643C157.864 346.206 157.945 345.732 157.945 345.222C157.945 344.711 157.864 344.236 157.702 343.795C157.539 343.354 157.289 342.998 156.951 342.726C156.613 342.454 156.182 342.318 155.658 342.318C155.135 342.318 154.704 342.454 154.366 342.726C154.028 342.998 153.777 343.354 153.615 343.795C153.453 344.236 153.371 344.711 153.371 345.222C153.371 345.732 153.453 346.206 153.615 346.643C153.777 347.081 154.028 347.434 154.366 347.702C154.704 347.971 155.135 348.105 155.658 348.105ZM160.63 349V341.364H163.752C164.574 341.364 165.227 341.549 165.711 341.92C166.195 342.292 166.436 342.782 166.436 343.392C166.436 343.856 166.299 344.216 166.024 344.471C165.749 344.723 165.396 344.893 164.965 344.983C165.247 345.023 165.52 345.122 165.785 345.281C166.054 345.44 166.276 345.659 166.451 345.938C166.627 346.213 166.715 346.551 166.715 346.952C166.715 347.343 166.615 347.692 166.417 348.001C166.218 348.309 165.933 348.553 165.561 348.732C165.19 348.911 164.746 349 164.229 349H160.63ZM161.743 347.926H164.229C164.633 347.926 164.95 347.83 165.179 347.638C165.407 347.446 165.522 347.184 165.522 346.852C165.522 346.458 165.407 346.148 165.179 345.923C164.95 345.694 164.633 345.58 164.229 345.58H161.743V347.926ZM161.743 344.565H163.752C164.067 344.565 164.337 344.522 164.562 344.436C164.788 344.347 164.96 344.221 165.079 344.058C165.202 343.893 165.263 343.697 165.263 343.472C165.263 343.15 165.129 342.898 164.86 342.716C164.592 342.53 164.222 342.438 163.752 342.438H161.743V344.565ZM173.322 344.645V345.739H169.106V344.645H173.322ZM169.384 341.364V349H168.211V341.364H169.384ZM174.217 341.364V349H173.043V341.364H174.217ZM179.182 349.159C178.492 349.159 177.887 348.995 177.367 348.667C176.85 348.339 176.446 347.88 176.154 347.29C175.866 346.7 175.721 346.01 175.721 345.222C175.721 344.426 175.866 343.732 176.154 343.138C176.446 342.545 176.85 342.085 177.367 341.756C177.887 341.428 178.492 341.264 179.182 341.264C179.871 341.264 180.474 341.428 180.991 341.756C181.512 342.085 181.916 342.545 182.204 343.138C182.496 343.732 182.642 344.426 182.642 345.222C182.642 346.01 182.496 346.7 182.204 347.29C181.916 347.88 181.512 348.339 180.991 348.667C180.474 348.995 179.871 349.159 179.182 349.159ZM179.182 348.105C179.705 348.105 180.136 347.971 180.474 347.702C180.812 347.434 181.063 347.081 181.225 346.643C181.387 346.206 181.469 345.732 181.469 345.222C181.469 344.711 181.387 344.236 181.225 343.795C181.063 343.354 180.812 342.998 180.474 342.726C180.136 342.454 179.705 342.318 179.182 342.318C178.658 342.318 178.227 342.454 177.889 342.726C177.551 342.998 177.301 343.354 177.138 343.795C176.976 344.236 176.895 344.711 176.895 345.222C176.895 345.732 176.976 346.206 177.138 346.643C177.301 347.081 177.551 347.434 177.889 347.702C178.227 347.971 178.658 348.105 179.182 348.105ZM185.326 347.27L189.005 341.364H190.357V349H189.184V343.094L185.525 349H184.153V341.364H185.326V347.27ZM188.23 338.818H189.323C189.323 339.355 189.138 339.794 188.767 340.136C188.395 340.477 187.892 340.648 187.255 340.648C186.629 340.648 186.13 340.477 185.759 340.136C185.391 339.794 185.207 339.355 185.207 338.818H186.301C186.301 339.077 186.372 339.304 186.514 339.499C186.66 339.695 186.907 339.793 187.255 339.793C187.603 339.793 187.852 339.695 188.001 339.499C188.153 339.304 188.23 339.077 188.23 338.818Z" fill="#00141F"/>
<path d="M523.176 349.159C522.487 349.159 521.882 348.995 521.362 348.667C520.844 348.339 520.44 347.88 520.148 347.29C519.86 346.7 519.716 346.01 519.716 345.222C519.716 344.426 519.86 343.732 520.148 343.138C520.44 342.545 520.844 342.085 521.362 341.756C521.882 341.428 522.487 341.264 523.176 341.264C523.866 341.264 524.469 341.428 524.986 341.756C525.506 342.085 525.911 342.545 526.199 343.138C526.491 343.732 526.636 344.426 526.636 345.222C526.636 346.01 526.491 346.7 526.199 347.29C525.911 347.88 525.506 348.339 524.986 348.667C524.469 348.995 523.866 349.159 523.176 349.159ZM523.176 348.105C523.7 348.105 524.131 347.971 524.469 347.702C524.807 347.434 525.057 347.081 525.219 346.643C525.382 346.206 525.463 345.732 525.463 345.222C525.463 344.711 525.382 344.236 525.219 343.795C525.057 343.354 524.807 342.998 524.469 342.726C524.131 342.454 523.7 342.318 523.176 342.318C522.652 342.318 522.222 342.454 521.884 342.726C521.545 342.998 521.295 343.354 521.133 343.795C520.97 344.236 520.889 344.711 520.889 345.222C520.889 345.732 520.97 346.206 521.133 346.643C521.295 347.081 521.545 347.434 521.884 347.702C522.222 347.971 522.652 348.105 523.176 348.105ZM531.25 349.159C530.534 349.159 529.917 348.99 529.4 348.652C528.883 348.314 528.485 347.848 528.207 347.255C527.929 346.662 527.789 345.984 527.789 345.222C527.789 344.446 527.932 343.762 528.217 343.168C528.505 342.572 528.906 342.106 529.42 341.771C529.937 341.433 530.54 341.264 531.23 341.264C531.767 341.264 532.251 341.364 532.681 341.562C533.112 341.761 533.465 342.04 533.74 342.398C534.016 342.756 534.186 343.173 534.252 343.651H533.079C532.99 343.303 532.791 342.994 532.483 342.726C532.178 342.454 531.767 342.318 531.25 342.318C530.792 342.318 530.391 342.437 530.047 342.676C529.705 342.911 529.438 343.245 529.246 343.675C529.057 344.103 528.963 344.605 528.963 345.182C528.963 345.772 529.056 346.286 529.241 346.723C529.43 347.161 529.695 347.5 530.037 347.742C530.381 347.984 530.786 348.105 531.25 348.105C531.555 348.105 531.831 348.052 532.08 347.946C532.328 347.84 532.539 347.688 532.711 347.489C532.884 347.29 533.006 347.051 533.079 346.773H534.252C534.186 347.223 534.022 347.629 533.76 347.991C533.502 348.349 533.159 348.634 532.731 348.846C532.307 349.055 531.813 349.159 531.25 349.159ZM540.798 344.645V345.739H536.583V344.645H540.798ZM536.861 341.364V349H535.688V341.364H536.861ZM541.693 341.364V349H540.52V341.364H541.693ZM546.658 349.159C545.969 349.159 545.364 348.995 544.844 348.667C544.327 348.339 543.922 347.88 543.631 347.29C543.342 346.7 543.198 346.01 543.198 345.222C543.198 344.426 543.342 343.732 543.631 343.138C543.922 342.545 544.327 342.085 544.844 341.756C545.364 341.428 545.969 341.264 546.658 341.264C547.348 341.264 547.951 341.428 548.468 341.756C548.988 342.085 549.393 342.545 549.681 343.138C549.973 343.732 550.119 344.426 550.119 345.222C550.119 346.01 549.973 346.7 549.681 347.29C549.393 347.88 548.988 348.339 548.468 348.667C547.951 348.995 547.348 349.159 546.658 349.159ZM546.658 348.105C547.182 348.105 547.613 347.971 547.951 347.702C548.289 347.434 548.539 347.081 548.702 346.643C548.864 346.206 548.945 345.732 548.945 345.222C548.945 344.711 548.864 344.236 548.702 343.795C548.539 343.354 548.289 342.998 547.951 342.726C547.613 342.454 547.182 342.318 546.658 342.318C546.135 342.318 545.704 342.454 545.366 342.726C545.028 342.998 544.777 343.354 544.615 343.795C544.453 344.236 544.371 344.711 544.371 345.222C544.371 345.732 544.453 346.206 544.615 346.643C544.777 347.081 545.028 347.434 545.366 347.702C545.704 347.971 546.135 348.105 546.658 348.105ZM551.63 349V341.364H554.752C555.574 341.364 556.227 341.549 556.711 341.92C557.195 342.292 557.436 342.782 557.436 343.392C557.436 343.856 557.299 344.216 557.024 344.471C556.749 344.723 556.396 344.893 555.965 344.983C556.247 345.023 556.52 345.122 556.785 345.281C557.054 345.44 557.276 345.659 557.451 345.938C557.627 346.213 557.715 346.551 557.715 346.952C557.715 347.343 557.615 347.692 557.417 348.001C557.218 348.309 556.933 348.553 556.561 348.732C556.19 348.911 555.746 349 555.229 349H551.63ZM552.743 347.926H555.229C555.633 347.926 555.95 347.83 556.179 347.638C556.407 347.446 556.522 347.184 556.522 346.852C556.522 346.458 556.407 346.148 556.179 345.923C555.95 345.694 555.633 345.58 555.229 345.58H552.743V347.926ZM552.743 344.565H554.752C555.067 344.565 555.337 344.522 555.562 344.436C555.788 344.347 555.96 344.221 556.079 344.058C556.202 343.893 556.263 343.697 556.263 343.472C556.263 343.15 556.129 342.898 555.86 342.716C555.592 342.53 555.222 342.438 554.752 342.438H552.743V344.565ZM564.322 344.645V345.739H560.106V344.645H564.322ZM560.384 341.364V349H559.211V341.364H560.384ZM565.217 341.364V349H564.043V341.364H565.217ZM570.182 349.159C569.492 349.159 568.887 348.995 568.367 348.667C567.85 348.339 567.446 347.88 567.154 347.29C566.866 346.7 566.721 346.01 566.721 345.222C566.721 344.426 566.866 343.732 567.154 343.138C567.446 342.545 567.85 342.085 568.367 341.756C568.887 341.428 569.492 341.264 570.182 341.264C570.871 341.264 571.474 341.428 571.991 341.756C572.512 342.085 572.916 342.545 573.204 343.138C573.496 343.732 573.642 344.426 573.642 345.222C573.642 346.01 573.496 346.7 573.204 347.29C572.916 347.88 572.512 348.339 571.991 348.667C571.474 348.995 570.871 349.159 570.182 349.159ZM570.182 348.105C570.705 348.105 571.136 347.971 571.474 347.702C571.812 347.434 572.063 347.081 572.225 346.643C572.387 346.206 572.469 345.732 572.469 345.222C572.469 344.711 572.387 344.236 572.225 343.795C572.063 343.354 571.812 342.998 571.474 342.726C571.136 342.454 570.705 342.318 570.182 342.318C569.658 342.318 569.227 342.454 568.889 342.726C568.551 342.998 568.301 343.354 568.138 343.795C567.976 344.236 567.895 344.711 567.895 345.222C567.895 345.732 567.976 346.206 568.138 346.643C568.301 347.081 568.551 347.434 568.889 347.702C569.227 347.971 569.658 348.105 570.182 348.105ZM576.326 347.27L580.005 341.364H581.357V349H580.184V343.094L576.525 349H575.153V341.364H576.326V347.27ZM579.23 338.818H580.323C580.323 339.355 580.138 339.794 579.767 340.136C579.395 340.477 578.892 340.648 578.255 340.648C577.629 340.648 577.13 340.477 576.759 340.136C576.391 339.794 576.207 339.355 576.207 338.818H577.301C577.301 339.077 577.372 339.304 577.514 339.499C577.66 339.695 577.907 339.793 578.255 339.793C578.603 339.793 578.852 339.695 579.001 339.499C579.153 339.304 579.23 339.077 579.23 338.818Z" fill="#00141F"/>
<path d="M895.259 351.188V347.906H895.895C896.051 347.744 896.185 347.568 896.298 347.379C896.41 347.19 896.508 346.967 896.591 346.708C896.677 346.446 896.75 346.128 896.81 345.754C896.869 345.376 896.922 344.92 896.969 344.386L897.227 341.364H902.08V347.906H903.253V351.188H902.08V349H896.432V351.188H895.259ZM897.227 347.906H900.906V342.457H898.321L898.122 344.386C898.039 345.185 897.937 345.883 897.814 346.479C897.691 347.076 897.496 347.552 897.227 347.906ZM907.632 349.159C906.943 349.159 906.338 348.995 905.818 348.667C905.301 348.339 904.896 347.88 904.605 347.29C904.316 346.7 904.172 346.01 904.172 345.222C904.172 344.426 904.316 343.732 904.605 343.138C904.896 342.545 905.301 342.085 905.818 341.756C906.338 341.428 906.943 341.264 907.632 341.264C908.322 341.264 908.925 341.428 909.442 341.756C909.962 342.085 910.367 342.545 910.655 343.138C910.947 343.732 911.093 344.426 911.093 345.222C911.093 346.01 910.947 346.7 910.655 347.29C910.367 347.88 909.962 348.339 909.442 348.667C908.925 348.995 908.322 349.159 907.632 349.159ZM907.632 348.105C908.156 348.105 908.587 347.971 908.925 347.702C909.263 347.434 909.513 347.081 909.676 346.643C909.838 346.206 909.919 345.732 909.919 345.222C909.919 344.711 909.838 344.236 909.676 343.795C909.513 343.354 909.263 342.998 908.925 342.726C908.587 342.454 908.156 342.318 907.632 342.318C907.109 342.318 906.678 342.454 906.34 342.726C906.002 342.998 905.752 343.354 905.589 343.795C905.427 344.236 905.346 344.711 905.346 345.222C905.346 345.732 905.427 346.206 905.589 346.643C905.752 347.081 906.002 347.434 906.34 347.702C906.678 347.971 907.109 348.105 907.632 348.105ZM912.604 349V341.364H918.609V349H917.436V342.457H913.777V349H912.604ZM923.574 349.159C922.885 349.159 922.28 348.995 921.76 348.667C921.243 348.339 920.838 347.88 920.547 347.29C920.258 346.7 920.114 346.01 920.114 345.222C920.114 344.426 920.258 343.732 920.547 343.138C920.838 342.545 921.243 342.085 921.76 341.756C922.28 341.428 922.885 341.264 923.574 341.264C924.264 341.264 924.867 341.428 925.384 341.756C925.904 342.085 926.309 342.545 926.597 343.138C926.889 343.732 927.035 344.426 927.035 345.222C927.035 346.01 926.889 346.7 926.597 347.29C926.309 347.88 925.904 348.339 925.384 348.667C924.867 348.995 924.264 349.159 923.574 349.159ZM923.574 348.105C924.098 348.105 924.529 347.971 924.867 347.702C925.205 347.434 925.455 347.081 925.618 346.643C925.78 346.206 925.861 345.732 925.861 345.222C925.861 344.711 925.78 344.236 925.618 343.795C925.455 343.354 925.205 342.998 924.867 342.726C924.529 342.454 924.098 342.318 923.574 342.318C923.051 342.318 922.62 342.454 922.282 342.726C921.944 342.998 921.693 343.354 921.531 343.795C921.369 344.236 921.287 344.711 921.287 345.222C921.287 345.732 921.369 346.206 921.531 346.643C921.693 347.081 921.944 347.434 922.282 347.702C922.62 347.971 923.051 348.105 923.574 348.105ZM927.87 349V347.906H928.148C928.377 347.906 928.567 347.862 928.72 347.772C928.872 347.679 928.995 347.518 929.088 347.29C929.184 347.058 929.257 346.736 929.306 346.325C929.359 345.911 929.397 345.384 929.421 344.744L929.56 341.364H934.651V349H933.477V342.457H930.674L930.554 345.182C930.528 345.808 930.471 346.36 930.385 346.837C930.302 347.311 930.175 347.709 930.002 348.031C929.833 348.352 929.608 348.594 929.326 348.756C929.044 348.919 928.691 349 928.267 349H927.87ZM941.634 344.645V345.739H937.418V344.645H941.634ZM937.697 341.364V349H936.523V341.364H937.697ZM942.529 341.364V349H941.356V341.364H942.529ZM945.565 347.27L949.244 341.364H950.596V349H949.423V343.094L945.764 349H944.392V341.364H945.565V347.27ZM951.426 342.457V341.364H957.631V342.457H955.125V349H953.952V342.457H951.426ZM961.868 349.159C961.132 349.159 960.497 348.997 959.963 348.672C959.433 348.344 959.024 347.886 958.735 347.3C958.45 346.71 958.308 346.024 958.308 345.241C958.308 344.459 958.45 343.77 958.735 343.173C959.024 342.573 959.425 342.106 959.939 341.771C960.456 341.433 961.059 341.264 961.748 341.264C962.146 341.264 962.539 341.33 962.927 341.463C963.314 341.596 963.667 341.811 963.985 342.109C964.304 342.404 964.557 342.795 964.746 343.283C964.935 343.77 965.03 344.37 965.03 345.082V345.58H959.143V344.565H963.836C963.836 344.134 963.75 343.75 963.578 343.412C963.409 343.074 963.167 342.807 962.852 342.612C962.54 342.416 962.173 342.318 961.748 342.318C961.281 342.318 960.877 342.434 960.535 342.666C960.197 342.895 959.937 343.193 959.755 343.561C959.572 343.929 959.481 344.323 959.481 344.744V345.42C959.481 345.997 959.581 346.486 959.78 346.887C959.982 347.285 960.262 347.588 960.62 347.797C960.978 348.002 961.394 348.105 961.868 348.105C962.176 348.105 962.454 348.062 962.703 347.976C962.955 347.886 963.172 347.754 963.354 347.578C963.536 347.399 963.677 347.177 963.777 346.912L964.91 347.23C964.791 347.615 964.59 347.953 964.309 348.244C964.027 348.533 963.679 348.758 963.265 348.92C962.85 349.08 962.385 349.159 961.868 349.159ZM965.858 349V347.906H966.137C966.365 347.906 966.556 347.862 966.708 347.772C966.861 347.679 966.983 347.518 967.076 347.29C967.172 347.058 967.245 346.736 967.295 346.325C967.348 345.911 967.386 345.384 967.409 344.744L967.549 341.364H972.639V349H971.466V342.457H968.662L968.543 345.182C968.516 345.808 968.46 346.36 968.374 346.837C968.291 347.311 968.163 347.709 967.991 348.031C967.822 348.352 967.597 348.594 967.315 348.756C967.033 348.919 966.68 349 966.256 349H965.858ZM975.526 344.128H977.714C978.609 344.128 979.293 344.355 979.767 344.809C980.241 345.263 980.478 345.838 980.478 346.534C980.478 346.991 980.372 347.407 980.16 347.782C979.948 348.153 979.636 348.45 979.225 348.672C978.814 348.891 978.31 349 977.714 349H974.512V341.364H975.685V347.906H977.714C978.178 347.906 978.559 347.784 978.857 347.538C979.156 347.293 979.305 346.978 979.305 346.594C979.305 346.189 979.156 345.86 978.857 345.604C978.559 345.349 978.178 345.222 977.714 345.222H975.526V344.128ZM987.095 344.645V345.739H982.879V344.645H987.095ZM983.157 341.364V349H981.984V341.364H983.157ZM987.99 341.364V349H986.816V341.364H987.99ZM990.867 344.128H993.054C993.949 344.128 994.634 344.355 995.108 344.809C995.581 345.263 995.818 345.838 995.818 346.534C995.818 346.991 995.712 347.407 995.5 347.782C995.288 348.153 994.977 348.45 994.566 348.672C994.155 348.891 993.651 349 993.054 349H989.853V341.364H991.026V347.906H993.054C993.518 347.906 993.899 347.784 994.198 347.538C994.496 347.293 994.645 346.978 994.645 346.594C994.645 346.189 994.496 345.86 994.198 345.604C993.899 345.349 993.518 345.222 993.054 345.222H990.867V344.128ZM997.032 349V341.364H998.205V349H997.032ZM1001.25 347.27L1004.92 341.364H1006.28V349H1005.1V343.094L1001.44 349H1000.07V341.364H1001.25V347.27ZM1004.15 338.818H1005.24C1005.24 339.355 1005.06 339.794 1004.69 340.136C1004.31 340.477 1003.81 340.648 1003.17 340.648C1002.55 340.648 1002.05 340.477 1001.68 340.136C1001.31 339.794 1001.13 339.355 1001.13 338.818H1002.22C1002.22 339.077 1002.29 339.304 1002.43 339.499C1002.58 339.695 1002.83 339.793 1003.17 339.793C1003.52 339.793 1003.77 339.695 1003.92 339.499C1004.07 339.304 1004.15 339.077 1004.15 338.818ZM896.491 359.705C896.491 358.452 896.654 357.3 896.979 356.249C897.307 355.195 897.774 354.226 898.381 353.341H899.415C899.176 353.669 898.952 354.073 898.744 354.554C898.538 355.031 898.357 355.557 898.202 356.13C898.046 356.7 897.923 357.29 897.834 357.9C897.748 358.51 897.705 359.111 897.705 359.705C897.705 360.493 897.781 361.294 897.933 362.106C898.086 362.918 898.291 363.672 898.55 364.368C898.808 365.064 899.097 365.631 899.415 366.068H898.381C897.774 365.183 897.307 364.215 896.979 363.165C896.654 362.111 896.491 360.957 896.491 359.705ZM900.429 357.457V356.364H906.633V357.457H904.127V364H902.954V357.457H900.429ZM910.77 364.159C910.081 364.159 909.476 363.995 908.956 363.667C908.439 363.339 908.034 362.88 907.743 362.29C907.454 361.7 907.31 361.01 907.31 360.222C907.31 359.426 907.454 358.732 907.743 358.138C908.034 357.545 908.439 357.085 908.956 356.756C909.476 356.428 910.081 356.264 910.77 356.264C911.46 356.264 912.063 356.428 912.58 356.756C913.1 357.085 913.505 357.545 913.793 358.138C914.085 358.732 914.231 359.426 914.231 360.222C914.231 361.01 914.085 361.7 913.793 362.29C913.505 362.88 913.1 363.339 912.58 363.667C912.063 363.995 911.46 364.159 910.77 364.159ZM910.77 363.105C911.294 363.105 911.725 362.971 912.063 362.702C912.401 362.434 912.651 362.081 912.814 361.643C912.976 361.206 913.057 360.732 913.057 360.222C913.057 359.711 912.976 359.236 912.814 358.795C912.651 358.354 912.401 357.998 912.063 357.726C911.725 357.454 911.294 357.318 910.77 357.318C910.247 357.318 909.816 357.454 909.478 357.726C909.14 357.998 908.89 358.354 908.727 358.795C908.565 359.236 908.484 359.711 908.484 360.222C908.484 360.732 908.565 361.206 908.727 361.643C908.89 362.081 909.14 362.434 909.478 362.702C909.816 362.971 910.247 363.105 910.77 363.105ZM915.066 364V362.906H915.344C915.573 362.906 915.763 362.862 915.916 362.772C916.068 362.679 916.191 362.518 916.284 362.29C916.38 362.058 916.453 361.736 916.502 361.325C916.555 360.911 916.593 360.384 916.617 359.744L916.756 356.364H921.847V364H920.673V357.457H917.87L917.75 360.182C917.724 360.808 917.667 361.36 917.581 361.837C917.498 362.311 917.371 362.709 917.198 363.031C917.029 363.352 916.804 363.594 916.522 363.756C916.24 363.919 915.888 364 915.463 364H915.066ZM924.734 359.128H926.921C927.816 359.128 928.501 359.355 928.974 359.809C929.448 360.263 929.685 360.838 929.685 361.534C929.685 361.991 929.579 362.407 929.367 362.782C929.155 363.153 928.844 363.45 928.433 363.672C928.022 363.891 927.518 364 926.921 364H923.719V356.364H924.893V362.906H926.921C927.385 362.906 927.766 362.784 928.065 362.538C928.363 362.293 928.512 361.978 928.512 361.594C928.512 361.189 928.363 360.86 928.065 360.604C927.766 360.349 927.385 360.222 926.921 360.222H924.734V359.128ZM931.191 364V356.364H932.365V359.685H933.14L935.885 356.364H937.396L934.314 360.043L937.436 364H935.924L933.419 360.778H932.365V364H931.191ZM941.219 364.159C940.529 364.159 939.925 363.995 939.404 363.667C938.887 363.339 938.483 362.88 938.191 362.29C937.903 361.7 937.759 361.01 937.759 360.222C937.759 359.426 937.903 358.732 938.191 358.138C938.483 357.545 938.887 357.085 939.404 356.756C939.925 356.428 940.529 356.264 941.219 356.264C941.908 356.264 942.511 356.428 943.028 356.756C943.549 357.085 943.953 357.545 944.242 358.138C944.533 358.732 944.679 359.426 944.679 360.222C944.679 361.01 944.533 361.7 944.242 362.29C943.953 362.88 943.549 363.339 943.028 363.667C942.511 363.995 941.908 364.159 941.219 364.159ZM941.219 363.105C941.742 363.105 942.173 362.971 942.511 362.702C942.849 362.434 943.1 362.081 943.262 361.643C943.425 361.206 943.506 360.732 943.506 360.222C943.506 359.711 943.425 359.236 943.262 358.795C943.1 358.354 942.849 357.998 942.511 357.726C942.173 357.454 941.742 357.318 941.219 357.318C940.695 357.318 940.264 357.454 939.926 357.726C939.588 357.998 939.338 358.354 939.175 358.795C939.013 359.236 938.932 359.711 938.932 360.222C938.932 360.732 939.013 361.206 939.175 361.643C939.338 362.081 939.588 362.434 939.926 362.702C940.264 362.971 940.695 363.105 941.219 363.105ZM954.561 356.364V357.457H951.021V364H949.848V356.364H954.561ZM955.993 366.864V356.364H957.127V357.577H957.266C957.352 357.444 957.472 357.275 957.624 357.07C957.78 356.861 958.002 356.675 958.29 356.513C958.582 356.347 958.976 356.264 959.473 356.264C960.116 356.264 960.683 356.425 961.174 356.746C961.664 357.068 962.047 357.524 962.322 358.114C962.597 358.704 962.735 359.4 962.735 360.202C962.735 361.01 962.597 361.711 962.322 362.305C962.047 362.895 961.666 363.352 961.179 363.677C960.691 363.998 960.13 364.159 959.493 364.159C959.003 364.159 958.61 364.078 958.315 363.915C958.02 363.75 957.793 363.562 957.634 363.354C957.475 363.142 957.352 362.966 957.266 362.827H957.167V366.864H955.993ZM957.147 360.182C957.147 360.759 957.231 361.267 957.4 361.708C957.569 362.146 957.816 362.489 958.141 362.737C958.466 362.982 958.864 363.105 959.334 363.105C959.825 363.105 960.234 362.976 960.562 362.717C960.894 362.455 961.142 362.104 961.308 361.663C961.477 361.219 961.561 360.725 961.561 360.182C961.561 359.645 961.479 359.161 961.313 358.73C961.151 358.296 960.904 357.953 960.572 357.701C960.244 357.446 959.831 357.318 959.334 357.318C958.857 357.318 958.456 357.439 958.131 357.681C957.806 357.92 957.561 358.254 957.395 358.685C957.23 359.113 957.147 359.612 957.147 360.182ZM966.492 364.179C966.008 364.179 965.569 364.088 965.174 363.906C964.78 363.72 964.467 363.453 964.235 363.105C964.003 362.754 963.887 362.33 963.887 361.832C963.887 361.395 963.973 361.04 964.145 360.768C964.317 360.493 964.548 360.278 964.836 360.122C965.125 359.966 965.443 359.85 965.791 359.774C966.142 359.695 966.495 359.632 966.85 359.585C967.314 359.526 967.69 359.481 967.978 359.451C968.27 359.418 968.482 359.363 968.615 359.287C968.75 359.211 968.818 359.078 968.818 358.889V358.849C968.818 358.359 968.684 357.978 968.416 357.706C968.151 357.434 967.748 357.298 967.208 357.298C966.647 357.298 966.208 357.421 965.89 357.666C965.572 357.911 965.348 358.173 965.219 358.452L964.105 358.054C964.304 357.59 964.569 357.229 964.901 356.97C965.236 356.708 965.6 356.526 965.995 356.423C966.392 356.317 966.783 356.264 967.168 356.264C967.413 356.264 967.695 356.294 968.013 356.354C968.335 356.41 968.644 356.528 968.943 356.707C969.244 356.886 969.495 357.156 969.693 357.517C969.892 357.878 969.992 358.362 969.992 358.969V364H968.818V362.966H968.759C968.679 363.132 968.547 363.309 968.361 363.498C968.175 363.687 967.929 363.848 967.62 363.98C967.312 364.113 966.936 364.179 966.492 364.179ZM966.671 363.125C967.135 363.125 967.526 363.034 967.844 362.852C968.165 362.669 968.407 362.434 968.57 362.146C968.736 361.857 968.818 361.554 968.818 361.236V360.162C968.769 360.222 968.659 360.276 968.49 360.326C968.325 360.372 968.132 360.414 967.914 360.45C967.698 360.483 967.488 360.513 967.282 360.54C967.08 360.563 966.916 360.583 966.79 360.599C966.485 360.639 966.2 360.704 965.935 360.793C965.673 360.879 965.461 361.01 965.299 361.186C965.139 361.358 965.06 361.594 965.06 361.892C965.06 362.3 965.211 362.608 965.512 362.817C965.817 363.022 966.203 363.125 966.671 363.125ZM974.956 366.605V353.818H976.129V366.605H974.956ZM974.956 364.159C974.438 364.159 973.968 364.066 973.544 363.881C973.119 363.692 972.755 363.425 972.45 363.08C972.145 362.732 971.91 362.316 971.744 361.832C971.578 361.348 971.495 360.812 971.495 360.222C971.495 359.625 971.578 359.085 971.744 358.601C971.91 358.114 972.145 357.696 972.45 357.348C972.755 357 973.119 356.733 973.544 356.548C973.968 356.359 974.438 356.264 974.956 356.264H975.313V364.159H974.956ZM974.956 363.105H975.154V357.318H974.956C974.564 357.318 974.225 357.398 973.936 357.557C973.648 357.713 973.409 357.926 973.22 358.198C973.035 358.467 972.896 358.775 972.803 359.123C972.713 359.471 972.669 359.837 972.669 360.222C972.669 360.732 972.75 361.206 972.912 361.643C973.075 362.081 973.325 362.434 973.663 362.702C974.001 362.971 974.432 363.105 974.956 363.105ZM976.129 364.159H975.771V356.264H976.129C976.646 356.264 977.116 356.359 977.541 356.548C977.965 356.733 978.33 357 978.634 357.348C978.939 357.696 979.175 358.114 979.34 358.601C979.506 359.085 979.589 359.625 979.589 360.222C979.589 360.812 979.506 361.348 979.34 361.832C979.175 362.316 978.939 362.732 978.634 363.08C978.33 363.425 977.965 363.692 977.541 363.881C977.116 364.066 976.646 364.159 976.129 364.159ZM976.129 363.105C976.523 363.105 976.863 363.029 977.148 362.876C977.436 362.721 977.673 362.509 977.859 362.24C978.048 361.968 978.187 361.66 978.277 361.315C978.369 360.967 978.416 360.603 978.416 360.222C978.416 359.711 978.335 359.236 978.172 358.795C978.01 358.354 977.759 357.998 977.421 357.726C977.083 357.454 976.652 357.318 976.129 357.318H975.93V363.105H976.129ZM982.276 362.27L985.955 356.364H987.307V364H986.134V358.094L982.475 364H981.103V356.364H982.276V362.27ZM989.176 364V356.364H990.349V359.685H991.125L993.869 356.364H995.381L992.298 360.043L995.42 364H993.909L991.403 360.778H990.349V364H989.176ZM998.663 364.179C998.179 364.179 997.74 364.088 997.345 363.906C996.951 363.72 996.638 363.453 996.406 363.105C996.174 362.754 996.058 362.33 996.058 361.832C996.058 361.395 996.144 361.04 996.316 360.768C996.489 360.493 996.719 360.278 997.007 360.122C997.296 359.966 997.614 359.85 997.962 359.774C998.313 359.695 998.666 359.632 999.021 359.585C999.485 359.526 999.861 359.481 1000.15 359.451C1000.44 359.418 1000.65 359.363 1000.79 359.287C1000.92 359.211 1000.99 359.078 1000.99 358.889V358.849C1000.99 358.359 1000.86 357.978 1000.59 357.706C1000.32 357.434 999.919 357.298 999.379 357.298C998.819 357.298 998.379 357.421 998.061 357.666C997.743 357.911 997.519 358.173 997.39 358.452L996.276 358.054C996.475 357.59 996.74 357.229 997.072 356.97C997.407 356.708 997.771 356.526 998.166 356.423C998.563 356.317 998.954 356.264 999.339 356.264C999.584 356.264 999.866 356.294 1000.18 356.354C1000.51 356.41 1000.82 356.528 1001.11 356.707C1001.42 356.886 1001.67 357.156 1001.86 357.517C1002.06 357.878 1002.16 358.362 1002.16 358.969V364H1000.99V362.966H1000.93C1000.85 363.132 1000.72 363.309 1000.53 363.498C1000.35 363.687 1000.1 363.848 999.791 363.98C999.483 364.113 999.107 364.179 998.663 364.179ZM998.842 363.125C999.306 363.125 999.697 363.034 1000.02 362.852C1000.34 362.669 1000.58 362.434 1000.74 362.146C1000.91 361.857 1000.99 361.554 1000.99 361.236V360.162C1000.94 360.222 1000.83 360.276 1000.66 360.326C1000.5 360.372 1000.3 360.414 1000.08 360.45C999.869 360.483 999.659 360.513 999.453 360.54C999.251 360.563 999.087 360.583 998.961 360.599C998.656 360.639 998.371 360.704 998.106 360.793C997.844 360.879 997.632 361.01 997.47 361.186C997.31 361.358 997.231 361.594 997.231 361.892C997.231 362.3 997.382 362.608 997.683 362.817C997.988 363.022 998.374 363.125 998.842 363.125ZM1006.53 359.705C1006.53 360.957 1006.37 362.111 1006.04 363.165C1005.71 364.215 1005.25 365.183 1004.64 366.068H1003.61C1003.85 365.74 1004.07 365.336 1004.27 364.855C1004.48 364.378 1004.66 363.854 1004.82 363.284C1004.98 362.711 1005.1 362.119 1005.18 361.509C1005.27 360.896 1005.32 360.295 1005.32 359.705C1005.32 358.916 1005.24 358.115 1005.09 357.303C1004.94 356.491 1004.73 355.737 1004.47 355.041C1004.21 354.345 1003.92 353.778 1003.61 353.341H1004.64C1005.25 354.226 1005.71 355.195 1006.04 356.249C1006.37 357.3 1006.53 358.452 1006.53 359.705Z" fill="#00141F"/>
<ellipse cx="160" cy="158.5" rx="160" ry="158.5" fill="#00141F"/>
<path d="M772.5 158.5C772.5 202.071 748.378 241.559 709.293 270.173C670.209 298.787 616.19 316.5 556.5 316.5C496.81 316.5 442.791 298.787 403.707 270.173C364.622 241.559 340.5 202.071 340.5 158.5C340.5 114.929 364.622 75.441 403.707 46.827C442.791 18.2132 496.81 0.5 556.5 0.5C616.19 0.5 670.209 18.2132 709.293 46.827C748.378 75.441 772.5 114.929 772.5 158.5Z" fill="#D6F0FF" stroke="black"/>
<ellipse cx="953" cy="158.5" rx="160" ry="158.5" fill="#94D8FF"/>
<path d="M125.96 166L128.347 151.455H129.767L127.381 166H125.96ZM119.341 161.966L119.568 160.545H130.42L130.193 161.966H119.341ZM120.847 166L123.233 151.455H124.653L122.267 166H120.847ZM120.193 156.909L120.42 155.489H131.273L131.045 156.909H120.193ZM137.467 166.199C136.397 166.199 135.486 165.908 134.733 165.325C133.98 164.738 133.405 163.888 133.007 162.776C132.609 161.658 132.41 160.309 132.41 158.727C132.41 157.155 132.609 155.813 133.007 154.7C133.409 153.583 133.987 152.731 134.74 152.143C135.497 151.552 136.407 151.256 137.467 151.256C138.528 151.256 139.435 151.552 140.187 152.143C140.945 152.731 141.523 153.583 141.92 154.7C142.323 155.813 142.524 157.155 142.524 158.727C142.524 160.309 142.325 161.658 141.927 162.776C141.53 163.888 140.954 164.738 140.202 165.325C139.449 165.908 138.537 166.199 137.467 166.199ZM137.467 164.636C138.528 164.636 139.352 164.125 139.939 163.102C140.526 162.08 140.819 160.621 140.819 158.727C140.819 157.468 140.685 156.395 140.415 155.51C140.149 154.625 139.766 153.95 139.264 153.486C138.767 153.022 138.168 152.79 137.467 152.79C136.416 152.79 135.595 153.308 135.003 154.345C134.411 155.377 134.115 156.838 134.115 158.727C134.115 159.987 134.247 161.057 134.513 161.938C134.778 162.818 135.159 163.488 135.656 163.947C136.158 164.407 136.762 164.636 137.467 164.636ZM149.567 166.199C148.497 166.199 147.586 165.908 146.833 165.325C146.08 164.738 145.505 163.888 145.107 162.776C144.709 161.658 144.51 160.309 144.51 158.727C144.51 157.155 144.709 155.813 145.107 154.7C145.509 153.583 146.087 152.731 146.84 152.143C147.597 151.552 148.507 151.256 149.567 151.256C150.628 151.256 151.535 151.552 152.287 152.143C153.045 152.731 153.623 153.583 154.02 154.7C154.423 155.813 154.624 157.155 154.624 158.727C154.624 160.309 154.425 161.658 154.027 162.776C153.63 163.888 153.054 164.738 152.302 165.325C151.549 165.908 150.637 166.199 149.567 166.199ZM149.567 164.636C150.628 164.636 151.452 164.125 152.039 163.102C152.626 162.08 152.919 160.621 152.919 158.727C152.919 157.468 152.785 156.395 152.515 155.51C152.249 154.625 151.866 153.95 151.364 153.486C150.867 153.022 150.268 152.79 149.567 152.79C148.516 152.79 147.695 153.308 147.103 154.345C146.511 155.377 146.215 156.838 146.215 158.727C146.215 159.987 146.347 161.057 146.613 161.938C146.878 162.818 147.259 163.488 147.756 163.947C148.258 164.407 148.862 164.636 149.567 164.636ZM162.037 151.455V166H160.275V153.301H160.19L156.639 155.659V153.869L160.275 151.455H162.037ZM165.479 163.017V161.568L171.871 151.455H172.922V153.699H172.212L167.382 161.341V161.455H175.99V163.017H165.479ZM172.325 166V162.577V161.902V151.455H174.002V166H172.325ZM183.17 151.455V166H181.409V153.301H181.324L177.772 155.659V153.869L181.409 151.455H183.17ZM187.209 166V151.455H195.931V153.017H188.97V157.932H195.277V159.494H188.97V166H187.209Z" fill="#D6F0FF"/>
<path d="M519.96 166L522.347 151.455H523.767L521.381 166H519.96ZM513.341 161.966L513.568 160.545H524.42L524.193 161.966H513.341ZM514.847 166L517.233 151.455H518.653L516.267 166H514.847ZM514.193 156.909L514.42 155.489H525.273L525.045 156.909H514.193ZM531.467 166H526.979V151.455H531.666C533.077 151.455 534.284 151.746 535.288 152.328C536.292 152.906 537.061 153.737 537.596 154.821C538.131 155.901 538.399 157.193 538.399 158.699C538.399 160.214 538.129 161.518 537.589 162.612C537.05 163.701 536.264 164.539 535.231 165.126C534.199 165.709 532.944 166 531.467 166ZM528.74 164.438H531.354C532.556 164.438 533.553 164.205 534.344 163.741C535.134 163.277 535.724 162.617 536.112 161.76C536.5 160.903 536.694 159.883 536.694 158.699C536.694 157.525 536.503 156.514 536.119 155.666C535.736 154.814 535.163 154.161 534.4 153.706C533.638 153.247 532.689 153.017 531.552 153.017H528.74V164.438ZM545.527 166.199C544.931 166.189 544.334 166.076 543.738 165.858C543.141 165.64 542.597 165.273 542.104 164.757C541.612 164.236 541.216 163.533 540.918 162.648C540.62 161.758 540.471 160.64 540.471 159.295C540.471 158.008 540.591 156.866 540.833 155.872C541.074 154.873 541.425 154.033 541.884 153.351C542.343 152.664 542.897 152.143 543.546 151.788C544.199 151.433 544.936 151.256 545.755 151.256C546.569 151.256 547.294 151.419 547.928 151.746C548.567 152.068 549.088 152.518 549.49 153.095C549.893 153.673 550.153 154.338 550.272 155.091H548.539C548.378 154.437 548.065 153.895 547.601 153.464C547.137 153.034 546.522 152.818 545.755 152.818C544.628 152.818 543.74 153.308 543.091 154.288C542.447 155.268 542.123 156.644 542.118 158.415H542.232C542.497 158.012 542.812 157.669 543.177 157.385C543.546 157.096 543.953 156.874 544.398 156.717C544.843 156.561 545.314 156.483 545.812 156.483C546.645 156.483 547.407 156.691 548.098 157.108C548.79 157.52 549.344 158.09 549.76 158.82C550.177 159.544 550.385 160.375 550.385 161.312C550.385 162.212 550.184 163.036 549.782 163.784C549.379 164.527 548.813 165.119 548.084 165.56C547.36 165.995 546.508 166.208 545.527 166.199ZM545.527 164.636C546.124 164.636 546.659 164.487 547.133 164.189C547.611 163.891 547.987 163.491 548.262 162.989C548.541 162.487 548.681 161.928 548.681 161.312C548.681 160.711 548.546 160.164 548.276 159.672C548.011 159.175 547.644 158.779 547.175 158.486C546.711 158.192 546.181 158.045 545.584 158.045C545.134 158.045 544.715 158.135 544.327 158.315C543.939 158.491 543.598 158.732 543.304 159.04C543.016 159.348 542.788 159.7 542.623 160.098C542.457 160.491 542.374 160.905 542.374 161.341C542.374 161.919 542.509 162.458 542.779 162.96C543.053 163.462 543.428 163.867 543.901 164.175C544.379 164.482 544.921 164.636 545.527 164.636ZM553.034 166V151.455H561.756V153.017H554.795V157.932H561.102V159.494H554.795V166H553.034ZM568.861 166.199C567.791 166.199 566.879 165.908 566.127 165.325C565.374 164.738 564.798 163.888 564.401 162.776C564.003 161.658 563.804 160.309 563.804 158.727C563.804 157.155 564.003 155.813 564.401 154.7C564.803 153.583 565.381 152.731 566.134 152.143C566.891 151.552 567.8 151.256 568.861 151.256C569.922 151.256 570.828 151.552 571.581 152.143C572.339 152.731 572.916 153.583 573.314 154.7C573.717 155.813 573.918 157.155 573.918 158.727C573.918 160.309 573.719 161.658 573.321 162.776C572.923 163.888 572.348 164.738 571.595 165.325C570.842 165.908 569.931 166.199 568.861 166.199ZM568.861 164.636C569.922 164.636 570.745 164.125 571.333 163.102C571.92 162.08 572.213 160.621 572.213 158.727C572.213 157.468 572.078 156.395 571.808 155.51C571.543 154.625 571.16 153.95 570.658 153.486C570.161 153.022 569.562 152.79 568.861 152.79C567.81 152.79 566.988 153.308 566.396 154.345C565.805 155.377 565.509 156.838 565.509 158.727C565.509 159.987 565.641 161.057 565.906 161.938C566.172 162.818 566.553 163.488 567.05 163.947C567.552 164.407 568.155 164.636 568.861 164.636ZM576.472 166V151.455H585.194V153.017H578.234V157.932H584.54V159.494H578.234V166H576.472ZM587.811 166V151.455H596.532V153.017H589.572V157.932H595.879V159.494H589.572V166H587.811Z" fill="#00141F"/>
<path d="M915.96 166L918.347 151.455H919.767L917.381 166H915.96ZM909.341 161.966L909.568 160.545H920.42L920.193 161.966H909.341ZM910.847 166L913.233 151.455H914.653L912.267 166H910.847ZM910.193 156.909L910.42 155.489H921.273L921.045 156.909H910.193ZM927.354 151.256C927.95 151.26 928.547 151.374 929.143 151.597C929.74 151.819 930.284 152.188 930.777 152.705C931.269 153.216 931.665 153.914 931.963 154.8C932.261 155.685 932.41 156.795 932.41 158.131C932.41 159.423 932.287 160.571 932.041 161.575C931.8 162.574 931.449 163.417 930.99 164.104C930.535 164.79 929.981 165.311 929.328 165.666C928.679 166.021 927.945 166.199 927.126 166.199C926.312 166.199 925.585 166.038 924.946 165.716C924.311 165.389 923.791 164.937 923.383 164.359C922.981 163.777 922.723 163.102 922.609 162.335H924.342C924.498 163.003 924.809 163.554 925.273 163.99C925.741 164.421 926.359 164.636 927.126 164.636C928.248 164.636 929.134 164.146 929.783 163.166C930.436 162.186 930.763 160.801 930.763 159.011H930.649C930.384 159.409 930.069 159.752 929.704 160.041C929.34 160.33 928.935 160.553 928.49 160.709C928.045 160.865 927.571 160.943 927.069 160.943C926.236 160.943 925.471 160.737 924.775 160.325C924.084 159.909 923.53 159.338 923.113 158.614C922.702 157.884 922.496 157.051 922.496 156.114C922.496 155.223 922.694 154.409 923.092 153.67C923.495 152.927 924.058 152.335 924.783 151.895C925.512 151.455 926.369 151.241 927.354 151.256ZM927.354 152.818C926.757 152.818 926.22 152.967 925.741 153.266C925.268 153.559 924.891 153.957 924.612 154.459C924.337 154.956 924.2 155.508 924.2 156.114C924.2 156.72 924.333 157.271 924.598 157.768C924.868 158.261 925.235 158.654 925.699 158.947C926.167 159.236 926.7 159.381 927.297 159.381C927.747 159.381 928.166 159.293 928.554 159.118C928.942 158.938 929.281 158.694 929.569 158.386C929.863 158.074 930.093 157.721 930.258 157.328C930.424 156.93 930.507 156.516 930.507 156.085C930.507 155.517 930.37 154.984 930.095 154.487C929.825 153.99 929.451 153.588 928.973 153.28C928.499 152.972 927.96 152.818 927.354 152.818ZM934.462 163.017V161.568L940.854 151.455H941.906V153.699H941.195L936.366 161.341V161.455H944.974V163.017H934.462ZM941.309 166V162.577V161.902V151.455H942.985V166H941.309ZM951.98 166H947.491V151.455H952.179C953.59 151.455 954.797 151.746 955.801 152.328C956.804 152.906 957.574 153.737 958.109 154.821C958.644 155.901 958.912 157.193 958.912 158.699C958.912 160.214 958.642 161.518 958.102 162.612C957.562 163.701 956.776 164.539 955.744 165.126C954.712 165.709 953.457 166 951.98 166ZM949.252 164.438H951.866C953.069 164.438 954.065 164.205 954.856 163.741C955.647 163.277 956.236 162.617 956.625 161.76C957.013 160.903 957.207 159.883 957.207 158.699C957.207 157.525 957.015 156.514 956.632 155.666C956.248 154.814 955.675 154.161 954.913 153.706C954.151 153.247 953.201 153.017 952.065 153.017H949.252V164.438ZM965.869 166.199C964.894 166.199 964.032 166.026 963.284 165.68C962.541 165.33 961.961 164.849 961.544 164.239C961.128 163.623 960.922 162.922 960.926 162.136C960.922 161.521 961.042 160.953 961.288 160.432C961.535 159.906 961.871 159.468 962.297 159.118C962.728 158.763 963.208 158.538 963.739 158.443V158.358C963.043 158.178 962.489 157.787 962.077 157.186C961.665 156.58 961.461 155.891 961.466 155.119C961.461 154.381 961.648 153.72 962.027 153.138C962.406 152.555 962.927 152.096 963.59 151.76C964.257 151.424 965.017 151.256 965.869 151.256C966.712 151.256 967.465 151.424 968.128 151.76C968.791 152.096 969.312 152.555 969.69 153.138C970.074 153.72 970.268 154.381 970.273 155.119C970.268 155.891 970.057 156.58 969.641 157.186C969.229 157.787 968.682 158.178 968 158.358V158.443C968.526 158.538 968.999 158.763 969.421 159.118C969.842 159.468 970.178 159.906 970.429 160.432C970.68 160.953 970.808 161.521 970.813 162.136C970.808 162.922 970.595 163.623 970.173 164.239C969.757 164.849 969.177 165.33 968.433 165.68C967.695 166.026 966.84 166.199 965.869 166.199ZM965.869 164.636C966.528 164.636 967.096 164.53 967.574 164.317C968.052 164.104 968.422 163.803 968.682 163.415C968.942 163.027 969.075 162.572 969.08 162.051C969.075 161.502 968.933 161.017 968.654 160.595C968.374 160.174 967.993 159.842 967.51 159.601C967.032 159.359 966.485 159.239 965.869 159.239C965.249 159.239 964.695 159.359 964.208 159.601C963.725 159.842 963.343 160.174 963.064 160.595C962.789 161.017 962.654 161.502 962.659 162.051C962.654 162.572 962.78 163.027 963.036 163.415C963.296 163.803 963.668 164.104 964.151 164.317C964.634 164.53 965.207 164.636 965.869 164.636ZM965.869 157.733C966.39 157.733 966.852 157.629 967.254 157.42C967.662 157.212 967.981 156.921 968.213 156.547C968.445 156.173 968.564 155.735 968.568 155.233C968.564 154.741 968.448 154.312 968.22 153.947C967.993 153.578 967.678 153.294 967.276 153.095C966.873 152.892 966.405 152.79 965.869 152.79C965.325 152.79 964.849 152.892 964.442 153.095C964.035 153.294 963.72 153.578 963.497 153.947C963.275 154.312 963.166 154.741 963.171 155.233C963.166 155.735 963.277 156.173 963.504 156.547C963.736 156.921 964.056 157.212 964.463 157.42C964.87 157.629 965.339 157.733 965.869 157.733ZM973.39 166V151.455H982.112V153.017H975.152V157.932H981.458V159.494H975.152V166H973.39ZM984.729 166V151.455H993.45V153.017H986.49V157.932H992.797V159.494H986.49V166H984.729Z" fill="#00141F"/>
</svg>
