<svg width="1212" height="333" viewBox="0 0 1212 333" fill="none" xmlns="http://www.w3.org/2000/svg">
<path d="M49 284.337V48.6821H85.364V84.2758H87.9159C92.3817 72.6158 100.463 63.1548 112.159 55.8929C123.855 48.631 137.039 45 151.712 45C154.477 45 157.933 45.0511 162.079 45.1534C166.226 45.2557 169.363 45.4091 171.489 45.6137V82.4347C170.214 82.1279 167.289 81.6676 162.717 81.054C158.252 80.338 153.52 79.98 148.523 79.98C136.614 79.98 125.981 82.3836 116.624 87.1908C107.374 91.8957 100.037 98.4417 94.6146 106.829C89.2982 115.113 86.64 124.574 86.64 135.212V284.337H49Z" fill="#00141F"/>
<path d="M503.939 289.86C488.415 289.86 474.326 287.047 461.673 281.422C449.02 275.694 438.973 267.461 431.53 256.721C424.087 245.879 420.365 232.787 420.365 217.445C420.365 203.944 423.13 193 428.659 184.613C434.188 176.124 441.578 169.476 450.828 164.668C460.079 159.861 470.286 156.281 481.451 153.929C492.721 151.474 504.045 149.531 515.422 148.099C530.308 146.258 542.376 144.877 551.627 143.957C560.983 142.934 567.788 141.246 572.042 138.894C576.401 136.541 578.581 132.45 578.581 126.62V125.393C578.581 110.255 574.274 98.4928 565.662 90.1058C557.156 81.7188 544.237 77.5253 526.905 77.5253C508.936 77.5253 494.848 81.3097 484.64 88.8784C474.433 96.4472 467.256 104.527 463.109 113.119L427.383 100.845C433.762 86.526 442.269 75.3774 452.901 67.3995C463.641 59.3193 475.337 53.6939 487.99 50.5232C500.749 47.2502 513.296 45.6137 525.63 45.6137C533.498 45.6137 542.536 46.5342 552.743 48.3753C563.057 50.114 572.998 53.745 582.568 59.2682C592.244 64.7913 600.272 73.1272 606.651 84.2758C613.031 95.4244 616.221 110.357 616.221 129.075V284.337H578.581V252.425H576.667C574.115 257.539 569.862 263.011 563.908 268.841C557.953 274.671 550.032 279.632 540.143 283.723C530.255 287.814 518.187 289.86 503.939 289.86ZM509.68 257.335C524.566 257.335 537.113 254.522 547.32 248.897C557.634 243.271 565.396 236.009 570.606 227.111C575.923 218.212 578.581 208.854 578.581 199.035V165.896C576.986 167.737 573.477 169.424 568.054 170.959C562.738 172.391 556.571 173.669 549.553 174.794C542.642 175.817 535.89 176.738 529.298 177.556C522.812 178.272 517.549 178.885 513.508 179.397C503.726 180.624 494.582 182.619 486.076 185.38C477.676 188.04 470.871 192.08 465.661 197.501C460.557 202.819 458.005 210.081 458.005 219.286C458.005 231.867 462.843 241.379 472.519 247.823C482.301 254.164 494.688 257.335 509.68 257.335Z" fill="#00141F"/>
<path d="M662.465 284.337V48.6821H698.829V85.5032H702.019C707.123 72.9226 715.363 63.1548 726.74 56.1997C738.117 49.1424 751.78 45.6137 767.73 45.6137C783.891 45.6137 797.342 49.1424 808.081 56.1997C818.926 63.1548 827.379 72.9226 833.44 85.5032H835.992C842.265 73.3318 851.675 63.6662 864.222 56.5066C876.769 49.2447 891.814 45.6137 909.358 45.6137C931.262 45.6137 949.178 52.2108 963.106 65.405C977.035 78.4969 984 98.9019 984 126.62V284.337H946.36V126.62C946.36 109.232 941.416 96.8052 931.527 89.3387C921.639 81.8722 909.996 78.139 896.599 78.139C879.374 78.139 866.029 83.1507 856.566 93.1742C847.103 103.095 842.372 115.676 842.372 130.916V284.337H804.094V122.938C804.094 109.539 799.575 98.7485 790.537 90.5661C781.499 82.2813 769.856 78.139 755.608 78.139C745.826 78.139 736.682 80.6448 728.176 85.6566C719.776 90.6683 712.971 97.6234 707.761 106.522C702.657 115.318 700.105 125.495 700.105 137.053V284.337H662.465Z" fill="#00141F"/>
<path d="M49 284.337V48.6821H85.364V84.2758H87.9159C92.3817 72.6158 100.463 63.1548 112.159 55.8929C123.855 48.631 137.039 45 151.712 45C154.477 45 157.933 45.0511 162.079 45.1534C166.226 45.2557 169.363 45.4091 171.489 45.6137V82.4347C170.214 82.1279 167.289 81.6676 162.717 81.054C158.252 80.338 153.52 79.98 148.523 79.98C136.614 79.98 125.981 82.3836 116.624 87.1908C107.374 91.8957 100.037 98.4417 94.6146 106.829C89.2982 115.113 86.64 124.574 86.64 135.212V284.337H49Z" fill="#00141F"/>
<path d="M503.939 289.86C488.415 289.86 474.326 287.047 461.673 281.422C449.02 275.694 438.973 267.461 431.53 256.721C424.087 245.879 420.365 232.787 420.365 217.445C420.365 203.944 423.13 193 428.659 184.613C434.188 176.124 441.578 169.476 450.828 164.668C460.079 159.861 470.286 156.281 481.451 153.929C492.721 151.474 504.045 149.531 515.422 148.099C530.308 146.258 542.376 144.877 551.627 143.957C560.983 142.934 567.788 141.246 572.042 138.894C576.401 136.541 578.581 132.45 578.581 126.62V125.393C578.581 110.255 574.274 98.4928 565.662 90.1058C557.156 81.7188 544.237 77.5253 526.905 77.5253C508.936 77.5253 494.848 81.3097 484.64 88.8784C474.433 96.4472 467.256 104.527 463.109 113.119L427.383 100.845C433.762 86.526 442.269 75.3774 452.901 67.3995C463.641 59.3193 475.337 53.6939 487.99 50.5232C500.749 47.2502 513.296 45.6137 525.63 45.6137C533.498 45.6137 542.536 46.5342 552.743 48.3753C563.057 50.114 572.998 53.745 582.568 59.2682C592.244 64.7913 600.272 73.1272 606.651 84.2758C613.031 95.4244 616.221 110.357 616.221 129.075V284.337H578.581V252.425H576.667C574.115 257.539 569.862 263.011 563.908 268.841C557.953 274.671 550.032 279.632 540.143 283.723C530.255 287.814 518.187 289.86 503.939 289.86ZM509.68 257.335C524.566 257.335 537.113 254.522 547.32 248.897C557.634 243.271 565.396 236.009 570.606 227.111C575.923 218.212 578.581 208.854 578.581 199.035V165.896C576.986 167.737 573.477 169.424 568.054 170.959C562.738 172.391 556.571 173.669 549.553 174.794C542.642 175.817 535.89 176.738 529.298 177.556C522.812 178.272 517.549 178.885 513.508 179.397C503.726 180.624 494.582 182.619 486.076 185.38C477.676 188.04 470.871 192.08 465.661 197.501C460.557 202.819 458.005 210.081 458.005 219.286C458.005 231.867 462.843 241.379 472.519 247.823C482.301 254.164 494.688 257.335 509.68 257.335Z" fill="#00141F"/>
<path d="M662.465 284.337V48.6821H698.829V85.5032H702.019C707.123 72.9226 715.363 63.1548 726.74 56.1997C738.117 49.1424 751.78 45.6137 767.73 45.6137C783.891 45.6137 797.342 49.1424 808.081 56.1997C818.926 63.1548 827.379 72.9226 833.44 85.5032H835.992C842.265 73.3318 851.675 63.6662 864.222 56.5066C876.769 49.2447 891.814 45.6137 909.358 45.6137C931.262 45.6137 949.178 52.2108 963.106 65.405C977.035 78.4969 984 98.9019 984 126.62V284.337H946.36V126.62C946.36 109.232 941.416 96.8052 931.527 89.3387C921.639 81.8722 909.996 78.139 896.599 78.139C879.374 78.139 866.029 83.1507 856.566 93.1742C847.103 103.095 842.372 115.676 842.372 130.916V284.337H804.094V122.938C804.094 109.539 799.575 98.7485 790.537 90.5661C781.499 82.2813 769.856 78.139 755.608 78.139C745.826 78.139 736.682 80.6448 728.176 85.6566C719.776 90.6683 712.971 97.6234 707.761 106.522C702.657 115.318 700.105 125.495 700.105 137.053V284.337H662.465Z" fill="#00141F"/>
<ellipse cx="288.5" cy="166.5" rx="118.5" ry="117.5" fill="#00141F"/>
<path d="M1 49L1212 49.0001" stroke="#00141F"/>
<path d="M1 1L1212 1.00011" stroke="#00141F"/>
<path d="M984 1L984 332" stroke="#00141F"/>
<path d="M1032 1L1032 332" stroke="#00141F"/>
<path d="M1 1L1.00001 332" stroke="#00141F"/>
<path d="M49 1L49 332" stroke="#00141F"/>
<path d="M663 1L663 332" stroke="#00141F"/>
<path d="M615 1L615 332" stroke="#00141F"/>
<path d="M1 284L1212 284" stroke="#00141F"/>
<path d="M1 332L1212 332" stroke="#00141F"/>
<path d="M635.784 23.0909L638.398 27.5511L641.011 23.0909H642.943L639.42 28.5455L642.943 34H641.011L638.398 29.767L635.784 34H633.852L637.318 28.5455L633.852 23.0909H635.784Z" fill="#00141F"/>
<path d="M1003.78 23.0909L1006.4 27.5511L1009.01 23.0909H1010.94L1007.42 28.5455L1010.94 34H1009.01L1006.4 29.767L1003.78 34H1001.85L1005.32 28.5455L1001.85 23.0909H1003.78Z" fill="#00141F"/>
<path d="M21.7841 23.0909L24.3977 27.5511L27.0114 23.0909H28.9432L25.4205 28.5455L28.9432 34H27.0114L24.3977 29.767L21.7841 34H19.8523L23.3182 28.5455L19.8523 23.0909H21.7841Z" fill="#00141F"/>
</svg>
