<svg width="206" height="46" viewBox="0 0 206 46" fill="none" xmlns="http://www.w3.org/2000/svg">
<rect x="97.7617" width="45.32" height="70.04" rx="8" transform="rotate(90 97.7617 0)" fill="#00141F"/>
<path d="M0 44.2977V0.681506H6.73045V7.26938H7.20277C8.02931 5.11128 9.52497 3.36019 11.6897 2.01611C13.8545 0.672038 16.2948 0 19.0106 0C19.5222 0 20.1618 0.00946562 20.9293 0.0283969C21.6969 0.0473281 22.2774 0.0757249 22.671 0.113587V6.92862C22.4348 6.87183 21.8937 6.78664 21.0474 6.67306C20.2209 6.54054 19.3451 6.47429 18.4202 6.47429C16.2161 6.47429 14.2481 6.91916 12.5163 7.8089C10.8041 8.67971 9.44625 9.89127 8.44259 11.4436C7.4586 12.977 6.96661 14.7281 6.96661 16.6968V44.2977H0Z" fill="#00141F"/>
<path d="M117.148 45.32C114.274 45.32 111.667 44.7994 109.325 43.7582C106.983 42.6981 105.123 41.1742 103.746 39.1865C102.368 37.1798 101.679 34.7567 101.679 31.9171C101.679 29.4182 102.191 27.3927 103.214 25.8404C104.238 24.2691 105.606 23.0386 107.318 22.1489C109.03 21.2591 110.919 20.5966 112.985 20.1612C115.071 19.7068 117.167 19.3471 119.273 19.0821C122.028 18.7414 124.262 18.4858 125.974 18.3154C127.706 18.1261 128.965 17.8138 129.753 17.3783C130.559 16.9429 130.963 16.1857 130.963 15.1067V14.8795C130.963 12.0778 130.166 9.90074 128.572 8.34842C126.997 6.79611 124.606 6.01995 121.398 6.01995C118.073 6.01995 115.465 6.72039 113.576 8.12125C111.687 9.52212 110.358 11.0176 109.591 12.6078L102.978 10.3361C104.159 7.68585 105.733 5.62241 107.701 4.14582C109.689 2.65029 111.854 1.60911 114.196 1.02226C116.557 0.416478 118.88 0.113587 121.162 0.113587C122.619 0.113587 124.291 0.283962 126.181 0.624712C128.09 0.946533 129.93 1.61857 131.701 2.64083C133.492 3.66308 134.977 5.20593 136.158 7.26938C137.339 9.33282 137.929 12.0967 137.929 15.561V44.2977H130.963V38.3914H130.609C130.136 39.3379 129.349 40.3507 128.247 41.4298C127.145 42.5088 125.679 43.4269 123.849 44.1842C122.018 44.9414 119.785 45.32 117.148 45.32ZM118.21 39.3C120.966 39.3 123.288 38.7795 125.177 37.7383C127.086 36.6971 128.523 35.353 129.487 33.706C130.471 32.0591 130.963 30.3269 130.963 28.5096V22.376C130.668 22.7168 130.018 23.0291 129.015 23.3131C128.031 23.5781 126.889 23.8148 125.59 24.023C124.311 24.2123 123.061 24.3827 121.841 24.5341C120.641 24.6667 119.667 24.7802 118.919 24.8749C117.108 25.1021 115.416 25.4712 113.841 25.9823C112.287 26.4745 111.027 27.2223 110.063 28.2256C109.118 29.21 108.646 30.5541 108.646 32.2578C108.646 34.5863 109.541 36.3469 111.332 37.5395C113.143 38.7132 115.436 39.3 118.21 39.3Z" fill="#00141F"/>
<path d="M146.489 44.2977V0.681506H153.219V7.49654H153.809C154.754 5.16807 156.279 3.36019 158.385 2.07291C160.491 0.766695 163.02 0.113587 165.972 0.113587C168.963 0.113587 171.452 0.766695 173.44 2.07291C175.447 3.36019 177.012 5.16807 178.134 7.49654H178.606C179.767 5.24379 181.509 3.45485 183.831 2.1297C186.153 0.785626 188.938 0.113587 192.185 0.113587C196.239 0.113587 199.555 1.33461 202.133 3.77667C204.711 6.19979 206 9.97646 206 15.1067V44.2977H199.033V15.1067C199.033 11.8885 198.118 9.58838 196.288 8.20644C194.458 6.8245 192.303 6.13353 189.823 6.13353C186.635 6.13353 184.165 7.06114 182.414 8.91634C180.662 10.7526 179.787 13.0811 179.787 15.9018V44.2977H172.702V14.4252C172.702 11.9452 171.866 9.94806 170.193 8.43361C168.52 6.90023 166.365 6.13353 163.728 6.13353C161.917 6.13353 160.225 6.59734 158.651 7.52494C157.096 8.45254 155.836 9.73983 154.872 11.3868C153.928 13.0148 153.455 14.8984 153.455 17.0376V44.2977H146.489Z" fill="#00141F"/>
</svg>
