<svg width="206" height="46" viewBox="0 0 206 46" fill="none" xmlns="http://www.w3.org/2000/svg">
<path d="M13 44.2977V0.681506H19.7633V7.26938H20.2379C21.0685 5.11128 22.5714 3.36019 24.7468 2.01611C26.9221 0.672038 29.3743 0 32.1033 0C32.6175 0 33.2602 0.00946562 34.0314 0.0283969C34.8027 0.0473281 35.3861 0.0757249 35.7816 0.113587V6.92862C35.5443 6.87183 35.0005 6.78664 34.1501 6.67306C33.3195 6.54055 32.4395 6.47429 31.51 6.47429C29.2952 6.47429 27.3176 6.91916 25.5773 7.8089C23.8569 8.67971 22.4923 9.89127 21.4838 11.4436C20.495 12.977 20.0006 14.7281 20.0006 16.6968V44.2977H13Z" fill="#00141F"/>
<path d="M103.587 45.32C100.7 45.32 98.0799 44.7994 95.7266 43.7582C93.3733 42.6981 91.5045 41.1742 90.1202 39.1865C88.7359 37.1798 88.0437 34.7567 88.0437 31.9171C88.0437 29.4182 88.5579 27.3927 89.5862 25.8404C90.6146 24.2691 91.989 23.0386 93.7095 22.1489C95.43 21.2591 97.3284 20.5966 99.4049 20.1612C101.501 19.7068 103.607 19.3471 105.723 19.0821C108.492 18.7414 110.736 18.4858 112.457 18.3154C114.197 18.1261 115.463 17.8138 116.254 17.3783C117.065 16.9429 117.47 16.1857 117.47 15.1067V14.8795C117.47 12.0778 116.669 9.90074 115.067 8.34842C113.485 6.79611 111.082 6.01995 107.859 6.01995C104.517 6.01995 101.897 6.72039 99.9981 8.12125C98.0997 9.52212 96.7648 11.0176 95.9936 12.6078L89.3489 10.3361C90.5355 7.68585 92.1175 5.62241 94.0951 4.14582C96.0925 2.65029 98.2678 1.60911 100.621 1.02226C102.994 0.416478 105.328 0.113587 107.622 0.113587C109.085 0.113587 110.766 0.283962 112.664 0.624712C114.583 0.946533 116.432 1.61857 118.212 2.64083C120.011 3.66308 121.504 5.20593 122.691 7.26938C123.877 9.33282 124.471 12.0967 124.471 15.561V44.2977H117.47V38.3914H117.114C116.639 39.3379 115.848 40.3507 114.741 41.4298C113.633 42.5088 112.16 43.4269 110.321 44.1842C108.482 44.9414 106.237 45.32 103.587 45.32ZM104.655 39.3C107.424 39.3 109.757 38.7795 111.656 37.7383C113.574 36.6971 115.018 35.353 115.987 33.706C116.976 32.0591 117.47 30.3269 117.47 28.5096V22.376C117.173 22.7168 116.521 23.0291 115.512 23.3131C114.523 23.5781 113.376 23.8148 112.071 24.023C110.786 24.2123 109.53 24.3827 108.304 24.5341C107.098 24.6667 106.119 24.7802 105.367 24.8749C103.548 25.1021 101.847 25.4712 100.265 25.9823C98.7028 26.4745 97.4372 27.2223 96.4682 28.2256C95.519 29.21 95.0443 30.5541 95.0443 32.2578C95.0443 34.5863 95.9441 36.3469 97.7437 37.5395C99.5631 38.7132 101.867 39.3 104.655 39.3Z" fill="#00141F"/>
<path d="M133.072 44.2977V0.681506H139.835V7.49654H140.428C141.377 5.16807 142.91 3.36019 145.026 2.07291C147.142 0.766695 149.683 0.113587 152.649 0.113587C155.655 0.113587 158.157 0.766695 160.154 2.07291C162.171 3.36019 163.744 5.16807 164.871 7.49654H165.345C166.512 5.24379 168.262 3.45485 170.596 2.1297C172.929 0.785626 175.728 0.113587 178.991 0.113587C183.064 0.113587 186.397 1.33461 188.987 3.77667C191.578 6.19979 192.873 9.97646 192.873 15.1067V44.2977H185.873V15.1067C185.873 11.8885 184.953 9.58838 183.114 8.20644C181.275 6.8245 179.109 6.13353 176.618 6.13353C173.414 6.13353 170.932 7.06114 169.172 8.91634C167.412 10.7526 166.532 13.0811 166.532 15.9018V44.2977H159.413V14.4252C159.413 11.9452 158.572 9.94806 156.891 8.43361C155.21 6.90023 153.045 6.13353 150.395 6.13353C148.576 6.13353 146.875 6.59734 145.293 7.52494C143.731 8.45254 142.465 9.73983 141.496 11.3868C140.547 13.0148 140.072 14.8984 140.072 17.0376V44.2977H133.072Z" fill="#00141F"/>
<ellipse cx="61.7992" cy="22.5" rx="22.6098" ry="22.5" fill="#00141F"/>
</svg>
