<svg width="1340" height="295" viewBox="0 0 1340 295" fill="none" xmlns="http://www.w3.org/2000/svg">
<path d="M0 288.15V4.43309H43.7806V47.2862H46.8529C52.2295 33.2481 61.9585 21.8576 76.04 13.1145C90.1215 4.37151 105.995 0 123.661 0C126.989 0 131.15 0.0615725 136.142 0.184717C141.135 0.307862 144.911 0.49258 147.472 0.73887V45.0697C145.935 44.7003 142.415 44.1461 136.91 43.4073C131.534 42.5453 125.837 42.1143 119.821 42.1143C105.483 42.1143 92.6818 45.0081 81.4166 50.7958C70.2794 56.4602 61.4465 64.3413 54.9178 74.4389C48.5171 84.4133 45.3168 95.8039 45.3168 108.611V288.15H0Z" fill="#00141F"/>
<path d="M762.029 294.8C743.339 294.8 726.377 291.414 711.143 284.641C695.91 277.745 683.812 267.832 674.852 254.902C665.891 241.849 661.41 226.087 661.41 207.616C661.41 191.361 664.738 178.185 671.395 168.088C678.052 157.867 686.949 149.863 698.086 144.075C709.223 138.288 721.512 133.978 734.954 131.145C748.523 128.19 762.157 125.85 775.854 124.126C793.776 121.91 808.306 120.247 819.443 119.139C830.708 117.908 838.901 115.876 844.021 113.044C849.27 110.211 851.894 105.286 851.894 98.2667V96.789C851.894 78.5641 846.71 64.4029 836.34 54.3053C826.099 44.2077 810.546 39.1589 789.68 39.1589C768.045 39.1589 751.083 43.7151 738.794 52.8276C726.505 61.94 717.864 71.6682 712.872 82.012L669.859 67.2351C677.54 49.9953 687.781 36.5729 700.582 26.9679C713.512 17.2398 727.593 10.467 742.827 6.64964C758.188 2.70913 773.294 0.73887 788.143 0.73887C797.616 0.73887 808.498 1.84713 820.787 4.06366C833.204 6.15706 845.173 10.5286 856.695 17.1782C868.344 23.8278 878.009 33.8638 885.69 47.2862C893.371 60.7086 897.211 78.6872 897.211 101.222V288.15H851.894V249.73H849.59C846.518 255.887 841.397 262.475 834.228 269.495C827.06 276.514 817.523 282.486 805.617 287.412C793.712 292.337 779.182 294.8 762.029 294.8ZM768.941 255.641C786.863 255.641 801.969 252.255 814.258 245.482C826.675 238.709 836.02 229.966 842.293 219.253C848.694 208.54 851.894 197.272 851.894 185.451V145.553C849.974 147.769 845.749 149.801 839.221 151.648C832.82 153.372 825.395 154.912 816.946 156.266C808.626 157.498 800.497 158.606 792.56 159.591C784.751 160.453 778.414 161.192 773.55 161.808C761.773 163.285 750.763 165.686 740.522 169.011C730.409 172.213 722.217 177.077 715.944 183.604C709.799 190.007 706.727 198.75 706.727 209.833C706.727 224.979 712.551 236.431 724.201 244.189C735.978 251.824 750.891 255.641 768.941 255.641Z" fill="#00141F"/>
<path d="M952.887 288.15V4.43309H996.668V48.7639H1000.51C1006.65 33.6176 1016.57 21.8576 1030.27 13.484C1043.97 4.98724 1060.42 0.73887 1079.62 0.73887C1099.08 0.73887 1115.27 4.98724 1128.2 13.484C1141.26 21.8576 1151.44 33.6176 1158.73 48.7639H1161.81C1169.36 34.1101 1180.69 22.4733 1195.79 13.8534C1210.9 5.11038 1229.01 0.73887 1250.13 0.73887C1276.51 0.73887 1298.08 8.68147 1314.85 24.5667C1331.61 40.3287 1340 64.8954 1340 98.2667V288.15H1294.68V98.2667C1294.68 77.3327 1288.73 62.371 1276.83 53.3817C1264.92 44.3924 1250.9 39.8978 1234.77 39.8978C1214.03 39.8978 1197.97 45.9317 1186.58 57.9995C1175.18 69.9442 1169.49 85.0906 1169.49 103.439V288.15H1123.4V93.8336C1123.4 77.7021 1117.96 64.7107 1107.08 54.8594C1096.2 44.885 1082.18 39.8978 1065.03 39.8978C1053.25 39.8978 1042.24 42.9147 1032 48.9486C1021.89 54.9826 1013.69 63.3562 1007.42 74.0694C1001.28 84.6596 998.204 96.9121 998.204 110.827V288.15H952.887Z" fill="#00141F"/>
<ellipse cx="399.195" cy="147.122" rx="239.893" ry="147.122" fill="#00141F"/>
</svg>
