<svg width="1213" height="333" viewBox="0 0 1213 333" fill="none" xmlns="http://www.w3.org/2000/svg">
<path d="M49 285.197V49.542H85.364V85.1357H87.9159C92.3817 73.4757 100.463 64.0147 112.159 56.7528C123.855 49.4908 137.039 45.8599 151.712 45.8599C154.477 45.8599 157.933 45.911 162.079 46.0133C166.226 46.1156 169.363 46.269 171.489 46.4736V83.2946C170.214 82.9878 167.289 82.5275 162.717 81.9138C158.252 81.1979 153.52 80.8399 148.523 80.8399C136.614 80.8399 125.981 83.2435 116.624 88.0507C107.374 92.7556 100.037 99.3015 94.6146 107.689C89.2982 115.973 86.64 125.434 86.64 136.071V285.197H49Z" fill="#00141F"/>
<path d="M683.939 290.72C668.415 290.72 654.326 287.907 641.673 282.282C629.02 276.554 618.973 268.32 611.53 257.581C604.087 246.739 600.365 233.647 600.365 218.305C600.365 204.804 603.13 193.86 608.659 185.473C614.188 176.984 621.578 170.335 630.828 165.528C640.079 160.721 650.286 157.141 661.451 154.789C672.721 152.334 684.045 150.391 695.422 148.959C710.308 147.118 722.376 145.737 731.627 144.816C740.983 143.794 747.788 142.106 752.042 139.754C756.401 137.401 758.581 133.31 758.581 127.48V126.253C758.581 111.115 754.274 99.3527 745.662 90.9657C737.156 82.5786 724.237 78.3851 706.905 78.3851C688.936 78.3851 674.848 82.1695 664.64 89.7383C654.433 97.3071 647.256 105.387 643.109 113.979L607.383 101.705C613.762 87.3858 622.269 76.2372 632.901 68.2594C643.641 60.1792 655.337 54.5537 667.99 51.383C680.749 48.1101 693.296 46.4736 705.63 46.4736C713.498 46.4736 722.536 47.3941 732.743 49.2351C743.057 50.9739 752.998 54.6049 762.568 60.128C772.244 65.6512 780.272 73.9871 786.651 85.1357C793.031 96.2843 796.221 111.217 796.221 129.935V285.197H758.581V253.285H756.667C754.115 258.399 749.862 263.871 743.908 269.701C737.953 275.531 730.032 280.492 720.143 284.583C710.255 288.674 698.187 290.72 683.939 290.72ZM689.68 258.195C704.566 258.195 717.113 255.382 727.32 249.756C737.634 244.131 745.396 236.869 750.606 227.971C755.923 219.072 758.581 209.714 758.581 199.895V166.756C756.986 168.597 753.477 170.284 748.054 171.819C742.738 173.25 736.571 174.529 729.553 175.654C722.642 176.677 715.89 177.597 709.298 178.416C702.812 179.132 697.549 179.745 693.508 180.257C683.726 181.484 674.582 183.479 666.076 186.24C657.676 188.899 650.871 192.94 645.661 198.36C640.557 203.679 638.005 210.941 638.005 220.146C638.005 232.727 642.843 242.239 652.519 248.683C662.301 255.024 674.688 258.195 689.68 258.195Z" fill="#00141F"/>
<path d="M842.465 285.197V49.542H878.829V86.363H882.019C887.123 73.7825 895.363 64.0147 906.74 57.0596C918.117 50.0022 931.78 46.4736 947.73 46.4736C963.891 46.4736 977.342 50.0022 988.081 57.0596C998.926 64.0147 1007.38 73.7825 1013.44 86.363H1015.99C1022.27 74.1916 1031.68 64.5261 1044.22 57.3665C1056.77 50.1045 1071.81 46.4736 1089.36 46.4736C1111.26 46.4736 1129.18 53.0707 1143.11 66.2649C1157.04 79.3568 1164 99.7618 1164 127.48V285.197H1126.36V127.48C1126.36 110.092 1121.42 97.6651 1111.53 90.1986C1101.64 82.7321 1090 78.9988 1076.6 78.9988C1059.37 78.9988 1046.03 84.0106 1036.57 94.0341C1027.1 103.955 1022.37 116.536 1022.37 131.776V285.197H984.094V123.798C984.094 110.399 979.575 99.6084 970.537 91.4259C961.499 83.1412 949.856 78.9988 935.608 78.9988C925.826 78.9988 916.682 81.5047 908.176 86.5164C899.776 91.5282 892.971 98.4833 887.761 107.382C882.657 116.178 880.105 126.355 880.105 137.913V285.197H842.465Z" fill="#00141F"/>
<rect x="582" y="50" width="235" height="412" rx="117.5" transform="rotate(90 582 50)" fill="#00141F"/>
<path d="M1 49L1212 49.0001" stroke="#00141F"/>
<path d="M1 1L1212 1.00011" stroke="#00141F"/>
<path d="M1164 1L1164 332" stroke="#00141F"/>
<path d="M1212 1L1212 332" stroke="#00141F"/>
<path d="M1 1L1.00001 332" stroke="#00141F"/>
<path d="M49 1L49 332" stroke="#00141F"/>
<path d="M843 1L843 332" stroke="#00141F"/>
<path d="M795 1L795 332" stroke="#00141F"/>
<path d="M1 284L1212 284" stroke="#00141F"/>
<path d="M1 332L1212 332" stroke="#00141F"/>
<path d="M815.784 23.0909L818.398 27.5511L821.011 23.0909H822.943L819.42 28.5455L822.943 34H821.011L818.398 29.767L815.784 34H813.852L817.318 28.5455L813.852 23.0909H815.784Z" fill="#00141F"/>
<path d="M1183.78 23.0909L1186.4 27.5511L1189.01 23.0909H1190.94L1187.42 28.5455L1190.94 34H1189.01L1186.4 29.767L1183.78 34H1181.85L1185.32 28.5455L1181.85 23.0909H1183.78Z" fill="#00141F"/>
<path d="M21.7841 23.0909L24.3977 27.5511L27.0114 23.0909H28.9432L25.4205 28.5455L28.9432 34H27.0114L24.3977 29.767L21.7841 34H19.8523L23.3182 28.5455L19.8523 23.0909H21.7841Z" fill="#00141F"/>
</svg>
