<svg width="1213" height="333" viewBox="0 0 1213 333" fill="none" xmlns="http://www.w3.org/2000/svg">
<path d="M49 284.197V48.542H85.364V84.1357H87.9159C92.3817 72.4757 100.463 63.0147 112.159 55.7528C123.855 48.4908 137.039 44.8599 151.712 44.8599C154.477 44.8599 157.933 44.911 162.079 45.0133C166.226 45.1156 169.363 45.269 171.489 45.4736V82.2946C170.214 81.9878 167.289 81.5275 162.717 80.9138C158.252 80.1979 153.52 79.8399 148.523 79.8399C136.614 79.8399 125.981 82.2435 116.624 87.0507C107.374 91.7556 100.037 98.3015 94.6146 106.689C89.2982 114.973 86.64 124.434 86.64 135.071V284.197H49Z" fill="#00141F"/>
<path d="M683.939 289.72C668.415 289.72 654.326 286.907 641.673 281.282C629.02 275.554 618.973 267.32 611.53 256.581C604.087 245.739 600.365 232.647 600.365 217.305C600.365 203.804 603.13 192.86 608.659 184.473C614.188 175.984 621.578 169.335 630.828 164.528C640.079 159.721 650.286 156.141 661.451 153.789C672.721 151.334 684.045 149.391 695.422 147.959C710.308 146.118 722.376 144.737 731.627 143.816C740.983 142.794 747.788 141.106 752.042 138.754C756.401 136.401 758.581 132.31 758.581 126.48V125.253C758.581 110.115 754.274 98.3527 745.662 89.9657C737.156 81.5786 724.237 77.3851 706.905 77.3851C688.936 77.3851 674.848 81.1695 664.64 88.7383C654.433 96.3071 647.256 104.387 643.109 112.979L607.383 100.705C613.762 86.3858 622.269 75.2372 632.901 67.2594C643.641 59.1792 655.337 53.5537 667.99 50.383C680.749 47.1101 693.296 45.4736 705.63 45.4736C713.498 45.4736 722.536 46.3941 732.743 48.2351C743.057 49.9739 752.998 53.6049 762.568 59.128C772.244 64.6512 780.272 72.9871 786.651 84.1357C793.031 95.2843 796.221 110.217 796.221 128.935V284.197H758.581V252.285H756.667C754.115 257.399 749.862 262.871 743.908 268.701C737.953 274.531 730.032 279.492 720.143 283.583C710.255 287.674 698.187 289.72 683.939 289.72ZM689.68 257.195C704.566 257.195 717.113 254.382 727.32 248.756C737.634 243.131 745.396 235.869 750.606 226.971C755.923 218.072 758.581 208.714 758.581 198.895V165.756C756.986 167.597 753.477 169.284 748.054 170.819C742.738 172.25 736.571 173.529 729.553 174.654C722.642 175.677 715.89 176.597 709.298 177.416C702.812 178.132 697.549 178.745 693.508 179.257C683.726 180.484 674.582 182.479 666.076 185.24C657.676 187.899 650.871 191.94 645.661 197.36C640.557 202.679 638.005 209.941 638.005 219.146C638.005 231.727 642.843 241.239 652.519 247.683C662.301 254.024 674.688 257.195 689.68 257.195Z" fill="#00141F"/>
<path d="M842.465 284.197V48.542H878.829V85.363H882.019C887.123 72.7825 895.363 63.0147 906.74 56.0596C918.117 49.0022 931.78 45.4736 947.73 45.4736C963.891 45.4736 977.342 49.0022 988.081 56.0596C998.926 63.0147 1007.38 72.7825 1013.44 85.363H1015.99C1022.27 73.1916 1031.68 63.5261 1044.22 56.3665C1056.77 49.1045 1071.81 45.4736 1089.36 45.4736C1111.26 45.4736 1129.18 52.0707 1143.11 65.2649C1157.04 78.3568 1164 98.7618 1164 126.48V284.197H1126.36V126.48C1126.36 109.092 1121.42 96.6651 1111.53 89.1986C1101.64 81.7321 1090 77.9988 1076.6 77.9988C1059.37 77.9988 1046.03 83.0106 1036.57 93.0341C1027.1 102.955 1022.37 115.536 1022.37 130.776V284.197H984.094V122.798C984.094 109.399 979.575 98.6084 970.537 90.4259C961.499 82.1412 949.856 77.9988 935.608 77.9988C925.826 77.9988 916.682 80.5047 908.176 85.5164C899.776 90.5282 892.971 97.4833 887.761 106.382C882.657 115.178 880.105 125.355 880.105 136.913V284.197H842.465Z" fill="#00141F"/>
<ellipse cx="376" cy="165.5" rx="206" ry="117.5" fill="#00141F"/>
<path d="M1 49L1212 49.0001" stroke="#00141F"/>
<path d="M1 1L1212 1.00011" stroke="#00141F"/>
<path d="M1164 1L1164 332" stroke="#00141F"/>
<path d="M1212 1L1212 332" stroke="#00141F"/>
<path d="M1 1L1.00001 332" stroke="#00141F"/>
<path d="M49 1L49 332" stroke="#00141F"/>
<path d="M843 1L843 332" stroke="#00141F"/>
<path d="M795 1L795 332" stroke="#00141F"/>
<path d="M1 284L1212 284" stroke="#00141F"/>
<path d="M1 332L1212 332" stroke="#00141F"/>
<path d="M815.784 23.0909L818.398 27.5511L821.011 23.0909H822.943L819.42 28.5455L822.943 34H821.011L818.398 29.767L815.784 34H813.852L817.318 28.5455L813.852 23.0909H815.784Z" fill="#00141F"/>
<path d="M1183.78 23.0909L1186.4 27.5511L1189.01 23.0909H1190.94L1187.42 28.5455L1190.94 34H1189.01L1186.4 29.767L1183.78 34H1181.85L1185.32 28.5455L1181.85 23.0909H1183.78Z" fill="#00141F"/>
<path d="M21.7841 23.0909L24.3977 27.5511L27.0114 23.0909H28.9432L25.4205 28.5455L28.9432 34H27.0114L24.3977 29.767L21.7841 34H19.8523L23.3182 28.5455L19.8523 23.0909H21.7841Z" fill="#00141F"/>
</svg>
