<svg width="1340" height="296" viewBox="0 0 1340 296" fill="none" xmlns="http://www.w3.org/2000/svg">
<rect x="641.02" y="0.600098" width="287.944" height="479.907" rx="143.972" transform="rotate(90 641.02 0.600098)" fill="#D6F0FF"/>
<path d="M0 288.75V5.03319H43.7806V47.8863H46.8529C52.2295 33.8482 61.9585 22.4577 76.04 13.7146C90.1215 4.97161 105.995 0.600098 123.661 0.600098C126.989 0.600098 131.15 0.66167 136.142 0.784815C141.135 0.90796 144.911 1.09268 147.472 1.33897V45.6698C145.935 45.3004 142.415 44.7462 136.91 44.0074C131.534 43.1454 125.837 42.7144 119.821 42.7144C105.483 42.7144 92.6818 45.6082 81.4166 51.3958C70.2794 57.0603 61.4465 64.9414 54.9178 75.039C48.5171 85.0134 45.3168 96.404 45.3168 109.211V288.75H0Z" fill="#D6F0FF"/>
<path d="M762.029 295.4C743.339 295.4 726.377 292.014 711.143 285.241C695.91 278.345 683.812 268.432 674.852 255.502C665.891 242.449 661.41 226.687 661.41 208.216C661.41 191.962 664.738 178.785 671.395 168.688C678.052 158.467 686.949 150.463 698.086 144.675C709.223 138.888 721.512 134.578 734.954 131.745C748.523 128.79 762.157 126.45 775.854 124.726C793.776 122.51 808.306 120.847 819.443 119.739C830.708 118.508 838.901 116.476 844.021 113.644C849.27 110.811 851.894 105.886 851.894 98.8668V97.3891C851.894 79.1642 846.71 65.0029 836.34 54.9054C826.099 44.8078 810.546 39.759 789.68 39.759C768.045 39.759 751.083 44.3152 738.794 53.4277C726.505 62.5401 717.864 72.2683 712.872 82.6121L669.859 67.8352C677.54 50.5954 687.781 37.173 700.582 27.568C713.512 17.8399 727.593 11.0671 742.827 7.24974C758.188 3.30922 773.294 1.33897 788.143 1.33897C797.616 1.33897 808.498 2.44723 820.787 4.66376C833.204 6.75716 845.173 11.1287 856.695 17.7783C868.344 24.4279 878.009 34.4639 885.69 47.8863C893.371 61.3087 897.211 79.2873 897.211 101.822V288.75H851.894V250.33H849.59C846.518 256.487 841.397 263.076 834.228 270.095C827.06 277.114 817.523 283.086 805.617 288.012C793.712 292.937 779.182 295.4 762.029 295.4ZM768.941 256.241C786.863 256.241 801.969 252.855 814.258 246.082C826.675 239.309 836.02 230.566 842.293 219.853C848.694 209.14 851.894 197.872 851.894 186.051V146.153C849.974 148.37 845.749 150.401 839.221 152.248C832.82 153.972 825.395 155.512 816.946 156.866C808.626 158.098 800.497 159.206 792.56 160.191C784.751 161.053 778.414 161.792 773.55 162.408C761.773 163.885 750.763 166.287 740.522 169.611C730.409 172.813 722.217 177.677 715.944 184.204C709.799 190.607 706.727 199.35 706.727 210.433C706.727 225.579 712.551 237.031 724.201 244.789C735.978 252.424 750.891 256.241 768.941 256.241Z" fill="#D6F0FF"/>
<path d="M952.887 288.75V5.03319H996.668V49.364H1000.51C1006.65 34.2177 1016.57 22.4577 1030.27 14.0841C1043.97 5.58733 1060.42 1.33897 1079.62 1.33897C1099.08 1.33897 1115.27 5.58733 1128.2 14.0841C1141.26 22.4577 1151.44 34.2177 1158.73 49.364H1161.81C1169.36 34.7102 1180.69 23.0734 1195.79 14.4535C1210.9 5.71048 1229.01 1.33897 1250.13 1.33897C1276.51 1.33897 1298.08 9.28157 1314.85 25.1668C1331.61 40.9288 1340 65.4955 1340 98.8668V288.75H1294.68V98.8668C1294.68 77.9328 1288.73 62.9711 1276.83 53.9818C1264.92 44.9925 1250.9 40.4978 1234.77 40.4978C1214.03 40.4978 1197.97 46.5318 1186.58 58.5996C1175.18 70.5443 1169.49 85.6907 1169.49 104.039V288.75H1123.4V94.4337C1123.4 78.3022 1117.96 65.3108 1107.08 55.4595C1096.2 45.4851 1082.18 40.4978 1065.03 40.4978C1053.25 40.4978 1042.24 43.5148 1032 49.5487C1021.89 55.5826 1013.69 63.9562 1007.42 74.6695C1001.28 85.2597 998.204 97.5122 998.204 111.427V288.75H952.887Z" fill="#D6F0FF"/>
</svg>
