<svg width="1114" height="306" viewBox="0 0 1114 306" fill="none" xmlns="http://www.w3.org/2000/svg">
<path d="M45.1157 261.408V44.8236H78.537V77.5369H80.8824C84.9867 66.8205 92.4137 58.1251 103.163 51.4508C113.913 44.7766 126.03 41.4395 139.516 41.4395C142.057 41.4395 145.233 41.4865 149.044 41.5805C152.855 41.6745 155.738 41.8155 157.693 42.0035V75.8448C156.52 75.5628 153.833 75.1398 149.631 74.5757C145.526 73.9177 141.178 73.5887 136.585 73.5887C125.64 73.5887 115.867 75.7978 107.268 80.216C98.7657 84.5401 92.0228 90.5564 87.0389 98.2647C82.1528 105.879 79.7097 114.574 79.7097 124.351V261.408H45.1157Z" fill="#00141F"/>
<path d="M463.239 266.484C448.971 266.484 436.023 263.899 424.394 258.729C412.765 253.465 403.53 245.897 396.689 236.027C389.849 226.063 386.428 214.03 386.428 199.93C386.428 187.521 388.969 177.463 394.051 169.754C399.132 161.952 405.924 155.842 414.426 151.424C422.928 147.006 432.309 143.715 442.57 141.553C452.929 139.297 463.336 137.511 473.793 136.195C487.474 134.503 498.565 133.234 507.067 132.388C515.667 131.448 521.921 129.897 525.83 127.735C529.837 125.573 531.84 121.813 531.84 116.454V115.326C531.84 101.414 527.882 90.6034 519.967 82.8951C512.149 75.1868 500.276 71.3326 484.347 71.3326C467.832 71.3326 454.883 74.8108 445.502 81.767C436.12 88.7233 429.524 96.1496 425.713 104.046L392.878 92.7655C398.741 79.6049 406.559 69.3585 416.332 62.0263C426.202 54.6 436.951 49.4298 448.58 46.5157C460.307 43.5075 471.838 42.0035 483.174 42.0035C490.406 42.0035 498.712 42.8495 508.094 44.5416C517.573 46.1396 526.71 49.4768 535.505 54.553C544.398 59.6292 551.776 67.2905 557.639 77.5369C563.503 87.7833 566.434 101.508 566.434 118.71V261.408H531.84V232.079H530.081C527.736 236.779 523.827 241.808 518.354 247.166C512.882 252.525 505.602 257.084 496.513 260.844C487.425 264.604 476.333 266.484 463.239 266.484ZM468.516 236.591C482.197 236.591 493.728 234.006 503.11 228.836C512.589 223.666 519.723 216.991 524.511 208.813C529.397 200.635 531.84 192.033 531.84 183.009V152.552C530.374 154.244 527.15 155.795 522.166 157.205C517.28 158.521 511.612 159.696 505.162 160.73C498.81 161.67 492.604 162.516 486.546 163.268C480.584 163.926 475.747 164.49 472.034 164.96C463.043 166.088 454.639 167.921 446.821 170.459C439.101 172.904 432.847 176.617 428.058 181.599C423.368 186.487 421.022 193.161 421.022 201.622C421.022 213.184 425.469 221.926 434.361 227.849C443.352 233.677 454.737 236.591 468.516 236.591Z" fill="#00141F"/>
<path d="M608.936 261.408V44.8236H642.358V78.6649H645.289C649.98 67.1025 657.554 58.1251 668.01 51.7329C678.466 45.2466 691.024 42.0035 705.682 42.0035C720.536 42.0035 732.898 45.2466 742.768 51.7329C752.736 58.1251 760.505 67.1025 766.075 78.6649H768.42C774.186 67.4785 782.835 58.5951 794.366 52.0149C805.897 45.3406 819.725 42.0035 835.849 42.0035C855.98 42.0035 872.447 48.0667 885.248 60.1932C898.05 72.2257 904.451 90.9794 904.451 116.454V261.408H869.857V116.454C869.857 100.474 865.313 89.0523 856.225 82.1901C847.136 75.3278 836.436 71.8966 824.123 71.8966C808.291 71.8966 796.027 76.5028 787.33 85.7152C778.633 94.8335 774.284 106.396 774.284 120.403V261.408H739.104V113.07C739.104 100.756 734.95 90.8384 726.644 83.3181C718.337 75.7038 707.637 71.8966 694.542 71.8966C685.551 71.8966 677.147 74.1997 669.329 78.8059C661.609 83.4121 655.355 89.8043 650.566 97.9827C645.876 106.067 643.53 115.42 643.53 126.043V261.408H608.936Z" fill="#00141F"/>
<path d="M45.1157 261.408V44.8236H78.537V77.5369H80.8824C84.9867 66.8205 92.4137 58.1251 103.163 51.4508C113.913 44.7766 126.03 41.4395 139.516 41.4395C142.057 41.4395 145.233 41.4865 149.044 41.5805C152.855 41.6745 155.738 41.8155 157.693 42.0035V75.8448C156.52 75.5628 153.833 75.1398 149.631 74.5757C145.526 73.9177 141.178 73.5887 136.585 73.5887C125.64 73.5887 115.867 75.7978 107.268 80.216C98.7657 84.5401 92.0228 90.5564 87.0389 98.2647C82.1528 105.879 79.7097 114.574 79.7097 124.351V261.408H45.1157Z" fill="#00141F"/>
<path d="M463.239 266.484C448.971 266.484 436.023 263.899 424.394 258.729C412.765 253.465 403.53 245.897 396.689 236.027C389.849 226.063 386.428 214.03 386.428 199.93C386.428 187.521 388.969 177.463 394.051 169.754C399.132 161.952 405.924 155.842 414.426 151.424C422.928 147.006 432.309 143.715 442.57 141.553C452.929 139.297 463.336 137.511 473.793 136.195C487.474 134.503 498.565 133.234 507.067 132.388C515.667 131.448 521.921 129.897 525.83 127.735C529.837 125.573 531.84 121.813 531.84 116.454V115.326C531.84 101.414 527.882 90.6034 519.967 82.8951C512.149 75.1868 500.276 71.3326 484.347 71.3326C467.832 71.3326 454.883 74.8108 445.502 81.767C436.12 88.7233 429.524 96.1496 425.713 104.046L392.878 92.7655C398.741 79.6049 406.559 69.3585 416.332 62.0263C426.202 54.6 436.951 49.4298 448.58 46.5157C460.307 43.5075 471.838 42.0035 483.174 42.0035C490.406 42.0035 498.712 42.8495 508.094 44.5416C517.573 46.1396 526.71 49.4768 535.505 54.553C544.398 59.6292 551.776 67.2905 557.639 77.5369C563.503 87.7833 566.434 101.508 566.434 118.71V261.408H531.84V232.079H530.081C527.736 236.779 523.827 241.808 518.354 247.166C512.882 252.525 505.602 257.084 496.513 260.844C487.425 264.604 476.333 266.484 463.239 266.484ZM468.516 236.591C482.197 236.591 493.728 234.006 503.11 228.836C512.589 223.666 519.723 216.991 524.511 208.813C529.397 200.635 531.84 192.033 531.84 183.009V152.552C530.374 154.244 527.15 155.795 522.166 157.205C517.28 158.521 511.612 159.696 505.162 160.73C498.81 161.67 492.604 162.516 486.546 163.268C480.584 163.926 475.747 164.49 472.034 164.96C463.043 166.088 454.639 167.921 446.821 170.459C439.101 172.904 432.847 176.617 428.058 181.599C423.368 186.487 421.022 193.161 421.022 201.622C421.022 213.184 425.469 221.926 434.361 227.849C443.352 233.677 454.737 236.591 468.516 236.591Z" fill="#00141F"/>
<path d="M608.936 261.408V44.8236H642.358V78.6649H645.289C649.98 67.1025 657.554 58.1251 668.01 51.7329C678.466 45.2466 691.024 42.0035 705.682 42.0035C720.536 42.0035 732.898 45.2466 742.768 51.7329C752.736 58.1251 760.505 67.1025 766.075 78.6649H768.42C774.186 67.4785 782.835 58.5951 794.366 52.0149C805.897 45.3406 819.725 42.0035 835.849 42.0035C855.98 42.0035 872.447 48.0667 885.248 60.1932C898.05 72.2257 904.451 90.9794 904.451 116.454V261.408H869.857V116.454C869.857 100.474 865.313 89.0523 856.225 82.1901C847.136 75.3278 836.436 71.8966 824.123 71.8966C808.291 71.8966 796.027 76.5028 787.33 85.7152C778.633 94.8335 774.284 106.396 774.284 120.403V261.408H739.104V113.07C739.104 100.756 734.95 90.8384 726.644 83.3181C718.337 75.7038 707.637 71.8966 694.542 71.8966C685.551 71.8966 677.147 74.1997 669.329 78.8059C661.609 83.4121 655.355 89.8043 650.566 97.9827C645.876 106.067 643.53 115.42 643.53 126.043V261.408H608.936Z" fill="#00141F"/>
<ellipse cx="265.234" cy="153.107" rx="108.91" ry="107.991" fill="#00141F"/>
<path d="M1 45.1152L1114 45.1153" stroke="#00141F" stroke-width="0.919075"/>
<path d="M1 1L1114 1.0001" stroke="#00141F" stroke-width="0.919075"/>
<path d="M904.451 1L904.451 305.214" stroke="#00141F" stroke-width="0.919075"/>
<path d="M948.566 1L948.566 305.214" stroke="#00141F" stroke-width="0.919075"/>
<path d="M1 1L1.00001 305.214" stroke="#00141F" stroke-width="0.919075"/>
<path d="M45.1157 1L45.1157 305.214" stroke="#00141F" stroke-width="0.919075"/>
<path d="M609.428 1L609.428 305.214" stroke="#00141F" stroke-width="0.919075"/>
<path d="M565.312 1L565.312 305.214" stroke="#00141F" stroke-width="0.919075"/>
<path d="M1 261.099L1114 261.099" stroke="#00141F" stroke-width="0.919075"/>
<path d="M1 305.214L1114 305.214" stroke="#00141F" stroke-width="0.919075"/>
<path d="M584.414 20.7599L586.816 24.8591L589.219 20.7599H590.994L587.756 25.773L590.994 30.7861H589.219L586.816 26.8957L584.414 30.7861H582.639L585.824 25.773L582.639 20.7599H584.414Z" fill="#00141F"/>
<path d="M922.634 20.7599L925.036 24.8591L927.438 20.7599H929.214L925.976 25.773L929.214 30.7861H927.438L925.036 26.8957L922.634 30.7861H920.858L924.044 25.773L920.858 20.7599H922.634Z" fill="#00141F"/>
<path d="M20.1022 20.7599L22.5044 24.8591L24.9065 20.7599H26.682L23.4443 25.773L26.682 30.7861H24.9065L22.5044 26.8957L20.1022 30.7861H18.3268L21.5122 25.773L18.3268 20.7599H20.1022Z" fill="#00141F"/>
</svg>
