<svg width="206" height="46" viewBox="0 0 206 46" fill="none" xmlns="http://www.w3.org/2000/svg">
<rect x="94.7617" y="0.339844" width="45.32" height="70.04" rx="22.66" transform="rotate(90 94.7617 0.339844)" fill="#D6F0FF"/>
<path d="M0 44.6376V1.02135H6.73045V7.60922H7.20277C8.02931 5.45113 9.52497 3.70004 11.6897 2.35596C13.8545 1.01188 16.2948 0.339844 19.0106 0.339844C19.5222 0.339844 20.1618 0.349309 20.9293 0.368241C21.6969 0.387172 22.2774 0.415569 22.671 0.453431V7.26847C22.4348 7.21167 21.8937 7.12649 21.0474 7.0129C20.2209 6.88039 19.3451 6.81413 18.4202 6.81413C16.2161 6.81413 14.2481 7.259 12.5163 8.14874C10.8041 9.01955 9.44625 10.2311 8.44259 11.7834C7.4586 13.3168 6.96661 15.0679 6.96661 17.0367V44.6376H0Z" fill="#D6F0FF"/>
<path d="M117.148 45.6598C114.274 45.6598 111.667 45.1393 109.325 44.0981C106.983 43.0379 105.123 41.514 103.746 39.5263C102.368 37.5197 101.679 35.0965 101.679 32.2569C101.679 29.7581 102.191 27.7325 103.214 26.1802C104.238 24.609 105.606 23.3785 107.318 22.4887C109.03 21.599 110.919 20.9364 112.985 20.501C115.071 20.0467 117.167 19.687 119.273 19.422C122.028 19.0812 124.262 18.8256 125.974 18.6553C127.706 18.466 128.965 18.1536 129.753 17.7182C130.559 17.2828 130.963 16.5256 130.963 15.4465V15.2193C130.963 12.4176 130.166 10.2406 128.572 8.68827C126.997 7.13595 124.606 6.3598 121.398 6.3598C118.073 6.3598 115.465 7.06023 113.576 8.4611C111.687 9.86197 110.358 11.3575 109.591 12.9477L102.978 10.676C104.159 8.02569 105.733 5.96225 107.701 4.48566C109.689 2.99014 111.854 1.94895 114.196 1.3621C116.557 0.756321 118.88 0.453431 121.162 0.453431C122.619 0.453431 124.291 0.623806 126.181 0.964555C128.09 1.28638 129.93 1.95842 131.701 2.98067C133.492 4.00293 134.977 5.54578 136.158 7.60922C137.339 9.67266 137.929 12.4365 137.929 15.9008V44.6376H130.963V38.7312H130.609C130.136 39.6778 129.349 40.6905 128.247 41.7696C127.145 42.8486 125.679 43.7668 123.849 44.524C122.018 45.2812 119.785 45.6598 117.148 45.6598ZM118.21 39.6399C120.966 39.6399 123.288 39.1193 125.177 38.0781C127.086 37.0369 128.523 35.6929 129.487 34.0459C130.471 32.3989 130.963 30.6668 130.963 28.8494V22.7159C130.668 23.0566 130.018 23.369 129.015 23.653C128.031 23.918 126.889 24.1546 125.59 24.3629C124.311 24.5522 123.061 24.7225 121.841 24.874C120.641 25.0065 119.667 25.1201 118.919 25.2147C117.108 25.4419 115.416 25.811 113.841 26.3222C112.287 26.8144 111.027 27.5621 110.063 28.5655C109.118 29.5499 108.646 30.8939 108.646 32.5977C108.646 34.9262 109.541 36.6867 111.332 37.8793C113.143 39.053 115.436 39.6399 118.21 39.6399Z" fill="#D6F0FF"/>
<path d="M146.489 44.6376V1.02135H153.219V7.83639H153.809C154.754 5.50792 156.279 3.70004 158.385 2.41275C160.491 1.10654 163.02 0.453431 165.972 0.453431C168.963 0.453431 171.452 1.10654 173.44 2.41275C175.447 3.70004 177.012 5.50792 178.134 7.83639H178.606C179.767 5.58364 181.509 3.79469 183.831 2.46955C186.153 1.12547 188.938 0.453431 192.185 0.453431C196.239 0.453431 199.555 1.67446 202.133 4.11651C204.711 6.53964 206 10.3163 206 15.4465V44.6376H199.033V15.4465C199.033 12.2283 198.118 9.92822 196.288 8.54629C194.458 7.16435 192.303 6.47338 189.823 6.47338C186.635 6.47338 184.165 7.40098 182.414 9.25619C180.662 11.0925 179.787 13.4209 179.787 16.2416V44.6376H172.702V14.765C172.702 12.2851 171.866 10.2879 170.193 8.77345C168.52 7.24007 166.365 6.47338 163.728 6.47338C161.917 6.47338 160.225 6.93718 158.651 7.86478C157.096 8.79239 155.836 10.0797 154.872 11.7266C153.928 13.3547 153.455 15.2383 153.455 17.3774V44.6376H146.489Z" fill="#D6F0FF"/>
</svg>
