<svg width="1115" height="557" viewBox="0 0 1115 557" fill="none" xmlns="http://www.w3.org/2000/svg">
<g clip-path="url(#clip0_727_1387)">
<rect x="1" y="383" width="1113" height="174" rx="87" fill="#00141F"/>
<path d="M142.27 485.455C140.225 485.455 138.463 484.972 136.986 484.006C135.509 483.04 134.372 481.709 133.577 480.014C132.781 478.319 132.384 476.383 132.384 474.205C132.384 471.989 132.791 470.033 133.605 468.338C134.429 466.634 135.575 465.303 137.043 464.347C138.52 463.381 140.244 462.898 142.213 462.898C143.747 462.898 145.13 463.182 146.361 463.75C147.592 464.318 148.601 465.114 149.387 466.136C150.173 467.159 150.66 468.352 150.85 469.716H147.497C147.242 468.722 146.674 467.841 145.793 467.074C144.922 466.297 143.747 465.909 142.27 465.909C140.963 465.909 139.817 466.25 138.833 466.932C137.857 467.604 137.095 468.556 136.546 469.787C136.006 471.009 135.736 472.443 135.736 474.091C135.736 475.777 136.001 477.244 136.531 478.494C137.071 479.744 137.829 480.715 138.804 481.406C139.789 482.098 140.944 482.443 142.27 482.443C143.141 482.443 143.932 482.292 144.642 481.989C145.352 481.686 145.954 481.25 146.446 480.682C146.939 480.114 147.289 479.432 147.497 478.636H150.85C150.66 479.924 150.192 481.084 149.443 482.116C148.705 483.139 147.725 483.954 146.503 484.56C145.291 485.156 143.88 485.455 142.27 485.455ZM153.55 485V463.182H162.471C164.819 463.182 166.685 463.712 168.067 464.773C169.45 465.833 170.141 467.235 170.141 468.977C170.141 470.303 169.748 471.33 168.962 472.06C168.176 472.779 167.168 473.267 165.937 473.523C166.742 473.636 167.523 473.92 168.28 474.375C169.047 474.83 169.682 475.455 170.184 476.25C170.686 477.036 170.937 478.002 170.937 479.148C170.937 480.265 170.652 481.264 170.084 482.145C169.516 483.026 168.702 483.722 167.641 484.233C166.581 484.744 165.312 485 163.834 485H153.55ZM156.732 481.932H163.834C164.99 481.932 165.894 481.657 166.547 481.108C167.201 480.559 167.527 479.811 167.527 478.864C167.527 477.737 167.201 476.851 166.547 476.207C165.894 475.554 164.99 475.227 163.834 475.227H156.732V481.932ZM156.732 472.33H162.471C163.37 472.33 164.142 472.206 164.786 471.96C165.43 471.705 165.922 471.345 166.263 470.881C166.614 470.407 166.789 469.848 166.789 469.205C166.789 468.286 166.405 467.566 165.638 467.045C164.871 466.515 163.815 466.25 162.471 466.25H156.732V472.33ZM182.675 485.455C180.705 485.455 178.977 484.986 177.49 484.048C176.013 483.111 174.858 481.799 174.024 480.114C173.2 478.428 172.788 476.458 172.788 474.205C172.788 471.932 173.2 469.948 174.024 468.253C174.858 466.558 176.013 465.241 177.49 464.304C178.977 463.366 180.705 462.898 182.675 462.898C184.644 462.898 186.368 463.366 187.845 464.304C189.332 465.241 190.487 466.558 191.311 468.253C192.144 469.948 192.561 471.932 192.561 474.205C192.561 476.458 192.144 478.428 191.311 480.114C190.487 481.799 189.332 483.111 187.845 484.048C186.368 484.986 184.644 485.455 182.675 485.455ZM182.675 482.443C184.171 482.443 185.402 482.06 186.368 481.293C187.334 480.526 188.049 479.517 188.513 478.267C188.977 477.017 189.209 475.663 189.209 474.205C189.209 472.746 188.977 471.387 188.513 470.128C188.049 468.868 187.334 467.85 186.368 467.074C185.402 466.297 184.171 465.909 182.675 465.909C181.179 465.909 179.948 466.297 178.982 467.074C178.016 467.85 177.301 468.868 176.837 470.128C176.373 471.387 176.141 472.746 176.141 474.205C176.141 475.663 176.373 477.017 176.837 478.267C177.301 479.517 178.016 480.526 178.982 481.293C179.948 482.06 181.179 482.443 182.675 482.443ZM211.672 455L213.376 457.045C212.713 457.689 211.946 458.139 211.075 458.395C210.204 458.651 209.219 458.807 208.12 458.864C207.022 458.92 205.8 458.977 204.456 459.034C202.94 459.091 201.686 459.46 200.691 460.142C199.697 460.824 198.93 461.809 198.39 463.097C197.851 464.384 197.505 465.966 197.353 467.841H197.637C198.376 466.477 199.399 465.473 200.706 464.83C202.012 464.186 203.414 463.864 204.91 463.864C206.615 463.864 208.149 464.261 209.512 465.057C210.876 465.852 211.956 467.031 212.751 468.594C213.547 470.156 213.944 472.083 213.944 474.375C213.944 476.657 213.537 478.627 212.723 480.284C211.918 481.941 210.786 483.22 209.328 484.119C207.879 485.009 206.179 485.455 204.228 485.455C202.278 485.455 200.568 484.995 199.101 484.077C197.633 483.149 196.492 481.776 195.677 479.957C194.863 478.13 194.456 475.871 194.456 473.182V470.852C194.456 465.994 195.279 462.311 196.927 459.801C198.584 457.292 201.075 455.994 204.399 455.909C205.573 455.871 206.619 455.862 207.538 455.881C208.457 455.9 209.257 455.857 209.939 455.753C210.62 455.649 211.198 455.398 211.672 455ZM204.228 482.443C205.545 482.443 206.676 482.112 207.623 481.449C208.58 480.786 209.314 479.853 209.825 478.651C210.336 477.438 210.592 476.013 210.592 474.375C210.592 472.784 210.332 471.43 209.811 470.312C209.299 469.195 208.565 468.343 207.609 467.756C206.653 467.169 205.507 466.875 204.172 466.875C203.196 466.875 202.32 467.041 201.544 467.372C200.767 467.704 200.104 468.191 199.555 468.835C199.006 469.479 198.58 470.265 198.277 471.193C197.983 472.121 197.827 473.182 197.808 474.375C197.808 476.818 198.381 478.774 199.527 480.241C200.672 481.709 202.24 482.443 204.228 482.443ZM225.736 485.455C223.766 485.455 222.038 484.986 220.551 484.048C219.074 483.111 217.918 481.799 217.085 480.114C216.261 478.428 215.849 476.458 215.849 474.205C215.849 471.932 216.261 469.948 217.085 468.253C217.918 466.558 219.074 465.241 220.551 464.304C222.038 463.366 223.766 462.898 225.736 462.898C227.705 462.898 229.429 463.366 230.906 464.304C232.393 465.241 233.548 466.558 234.372 468.253C235.205 469.948 235.622 471.932 235.622 474.205C235.622 476.458 235.205 478.428 234.372 480.114C233.548 481.799 232.393 483.111 230.906 484.048C229.429 484.986 227.705 485.455 225.736 485.455ZM225.736 482.443C227.232 482.443 228.463 482.06 229.429 481.293C230.395 480.526 231.11 479.517 231.574 478.267C232.038 477.017 232.27 475.663 232.27 474.205C232.27 472.746 232.038 471.387 231.574 470.128C231.11 468.868 230.395 467.85 229.429 467.074C228.463 466.297 227.232 465.909 225.736 465.909C224.24 465.909 223.008 466.297 222.043 467.074C221.077 467.85 220.362 468.868 219.898 470.128C219.434 471.387 219.202 472.746 219.202 474.205C219.202 475.663 219.434 477.017 219.898 478.267C220.362 479.517 221.077 480.526 222.043 481.293C223.008 482.06 224.24 482.443 225.736 482.443ZM236.21 491.25V481.875H238.028C238.473 481.411 238.857 480.909 239.178 480.369C239.5 479.83 239.78 479.19 240.017 478.452C240.263 477.704 240.471 476.795 240.642 475.724C240.812 474.645 240.964 473.343 241.096 471.818L241.835 463.182H255.698V481.875H259.051V491.25H255.698V485H239.562V491.25H236.21ZM241.835 481.875H252.346V466.307H244.96L244.392 471.818C244.155 474.1 243.861 476.094 243.511 477.798C243.16 479.503 242.602 480.862 241.835 481.875ZM267.721 485.511C266.338 485.511 265.083 485.251 263.956 484.73C262.83 484.2 261.935 483.438 261.272 482.443C260.609 481.439 260.277 480.227 260.277 478.807C260.277 477.557 260.524 476.544 261.016 475.767C261.509 474.981 262.167 474.366 262.991 473.92C263.814 473.475 264.724 473.144 265.718 472.926C266.722 472.699 267.73 472.519 268.743 472.386C270.069 472.216 271.144 472.088 271.968 472.003C272.801 471.908 273.407 471.752 273.786 471.534C274.174 471.316 274.368 470.937 274.368 470.398V470.284C274.368 468.883 273.985 467.794 273.218 467.017C272.46 466.241 271.31 465.852 269.766 465.852C268.166 465.852 266.911 466.203 266.002 466.903C265.093 467.604 264.454 468.352 264.084 469.148L260.902 468.011C261.471 466.686 262.228 465.653 263.175 464.915C264.132 464.167 265.173 463.646 266.3 463.352C267.437 463.049 268.554 462.898 269.652 462.898C270.353 462.898 271.158 462.983 272.067 463.153C272.986 463.314 273.871 463.651 274.724 464.162C275.585 464.673 276.3 465.445 276.868 466.477C277.437 467.509 277.721 468.892 277.721 470.625V485H274.368V482.045H274.198C273.971 482.519 273.592 483.026 273.062 483.565C272.531 484.105 271.826 484.564 270.945 484.943C270.064 485.322 268.99 485.511 267.721 485.511ZM268.232 482.5C269.558 482.5 270.675 482.24 271.584 481.719C272.503 481.198 273.194 480.526 273.658 479.702C274.132 478.878 274.368 478.011 274.368 477.102V474.034C274.226 474.205 273.914 474.361 273.431 474.503C272.957 474.635 272.408 474.754 271.783 474.858C271.168 474.953 270.566 475.038 269.979 475.114C269.402 475.18 268.933 475.237 268.573 475.284C267.702 475.398 266.887 475.582 266.13 475.838C265.382 476.084 264.776 476.458 264.312 476.96C263.857 477.453 263.63 478.125 263.63 478.977C263.63 480.142 264.061 481.023 264.922 481.619C265.794 482.206 266.897 482.5 268.232 482.5ZM290.689 485V463.182H299.61C301.958 463.182 303.824 463.712 305.206 464.773C306.589 465.833 307.28 467.235 307.28 468.977C307.28 470.303 306.887 471.33 306.101 472.06C305.315 472.779 304.307 473.267 303.076 473.523C303.881 473.636 304.662 473.92 305.419 474.375C306.186 474.83 306.821 475.455 307.323 476.25C307.825 477.036 308.076 478.002 308.076 479.148C308.076 480.265 307.792 481.264 307.223 482.145C306.655 483.026 305.841 483.722 304.78 484.233C303.72 484.744 302.451 485 300.973 485H290.689ZM293.871 481.932H300.973C302.129 481.932 303.033 481.657 303.686 481.108C304.34 480.559 304.667 479.811 304.667 478.864C304.667 477.737 304.34 476.851 303.686 476.207C303.033 475.554 302.129 475.227 300.973 475.227H293.871V481.932ZM293.871 472.33H299.61C300.509 472.33 301.281 472.206 301.925 471.96C302.569 471.705 303.061 471.345 303.402 470.881C303.753 470.407 303.928 469.848 303.928 469.205C303.928 468.286 303.544 467.566 302.777 467.045C302.01 466.515 300.954 466.25 299.61 466.25H293.871V472.33ZM313.848 471.08H320.098C322.655 471.08 324.61 471.728 325.964 473.026C327.319 474.323 327.996 475.966 327.996 477.955C327.996 479.261 327.693 480.45 327.087 481.52C326.481 482.58 325.59 483.428 324.416 484.062C323.242 484.688 321.802 485 320.098 485H310.95V463.182H314.302V481.875H320.098C321.424 481.875 322.513 481.525 323.365 480.824C324.217 480.123 324.643 479.223 324.643 478.125C324.643 476.97 324.217 476.027 323.365 475.298C322.513 474.569 321.424 474.205 320.098 474.205H313.848V471.08ZM331.462 485V463.182H334.814V485H331.462ZM354.943 455L356.648 457.045C355.985 457.689 355.218 458.139 354.347 458.395C353.476 458.651 352.491 458.807 351.392 458.864C350.294 458.92 349.072 458.977 347.727 459.034C346.212 459.091 344.958 459.46 343.963 460.142C342.969 460.824 342.202 461.809 341.662 463.097C341.122 464.384 340.777 465.966 340.625 467.841H340.909C341.648 466.477 342.671 465.473 343.977 464.83C345.284 464.186 346.686 463.864 348.182 463.864C349.887 463.864 351.421 464.261 352.784 465.057C354.148 465.852 355.227 467.031 356.023 468.594C356.818 470.156 357.216 472.083 357.216 474.375C357.216 476.657 356.809 478.627 355.995 480.284C355.19 481.941 354.058 483.22 352.6 484.119C351.151 485.009 349.451 485.455 347.5 485.455C345.549 485.455 343.84 484.995 342.372 484.077C340.905 483.149 339.763 481.776 338.949 479.957C338.135 478.13 337.727 475.871 337.727 473.182V470.852C337.727 465.994 338.551 462.311 340.199 459.801C341.856 457.292 344.347 455.994 347.671 455.909C348.845 455.871 349.891 455.862 350.81 455.881C351.728 455.9 352.529 455.857 353.21 455.753C353.892 455.649 354.47 455.398 354.943 455ZM347.5 482.443C348.817 482.443 349.948 482.112 350.895 481.449C351.852 480.786 352.585 479.853 353.097 478.651C353.608 477.438 353.864 476.013 353.864 474.375C353.864 472.784 353.603 471.43 353.083 470.312C352.571 469.195 351.837 468.343 350.881 467.756C349.924 467.169 348.779 466.875 347.443 466.875C346.468 466.875 345.592 467.041 344.816 467.372C344.039 467.704 343.376 468.191 342.827 468.835C342.278 469.479 341.852 470.265 341.549 471.193C341.255 472.121 341.099 473.182 341.08 474.375C341.08 476.818 341.653 478.774 342.799 480.241C343.944 481.709 345.512 482.443 347.5 482.443ZM369.008 485.455C367.038 485.455 365.31 484.986 363.823 484.048C362.346 483.111 361.19 481.799 360.357 480.114C359.533 478.428 359.121 476.458 359.121 474.205C359.121 471.932 359.533 469.948 360.357 468.253C361.19 466.558 362.346 465.241 363.823 464.304C365.31 463.366 367.038 462.898 369.008 462.898C370.977 462.898 372.701 463.366 374.178 464.304C375.665 465.241 376.82 466.558 377.644 468.253C378.477 469.948 378.894 471.932 378.894 474.205C378.894 476.458 378.477 478.428 377.644 480.114C376.82 481.799 375.665 483.111 374.178 484.048C372.701 484.986 370.977 485.455 369.008 485.455ZM369.008 482.443C370.504 482.443 371.735 482.06 372.701 481.293C373.667 480.526 374.382 479.517 374.846 478.267C375.31 477.017 375.542 475.663 375.542 474.205C375.542 472.746 375.31 471.387 374.846 470.128C374.382 468.868 373.667 467.85 372.701 467.074C371.735 466.297 370.504 465.909 369.008 465.909C367.511 465.909 366.28 466.297 365.314 467.074C364.349 467.85 363.634 468.868 363.17 470.128C362.706 471.387 362.474 472.746 362.474 474.205C362.474 475.663 362.706 477.017 363.17 478.267C363.634 479.517 364.349 480.526 365.314 481.293C366.28 482.06 367.511 482.443 369.008 482.443ZM381.811 493.182V463.182H385.05V466.648H385.448C385.694 466.269 386.035 465.786 386.47 465.199C386.915 464.602 387.55 464.072 388.374 463.608C389.207 463.134 390.334 462.898 391.754 462.898C393.591 462.898 395.211 463.357 396.612 464.276C398.014 465.194 399.108 466.496 399.894 468.182C400.68 469.867 401.073 471.856 401.073 474.148C401.073 476.458 400.68 478.461 399.894 480.156C399.108 481.842 398.019 483.149 396.627 484.077C395.234 484.995 393.629 485.455 391.811 485.455C390.41 485.455 389.287 485.223 388.445 484.759C387.602 484.285 386.953 483.75 386.499 483.153C386.044 482.547 385.694 482.045 385.448 481.648H385.163V493.182H381.811ZM385.107 474.091C385.107 475.739 385.348 477.192 385.831 478.452C386.314 479.702 387.019 480.682 387.948 481.392C388.876 482.093 390.012 482.443 391.357 482.443C392.758 482.443 393.928 482.074 394.865 481.335C395.812 480.587 396.522 479.583 396.996 478.324C397.479 477.055 397.72 475.644 397.72 474.091C397.72 472.557 397.484 471.174 397.01 469.943C396.546 468.703 395.841 467.723 394.894 467.003C393.956 466.274 392.777 465.909 391.357 465.909C389.993 465.909 388.847 466.255 387.919 466.946C386.991 467.628 386.29 468.584 385.817 469.815C385.343 471.037 385.107 472.462 385.107 474.091ZM410.407 485.511C409.024 485.511 407.769 485.251 406.642 484.73C405.516 484.2 404.621 483.438 403.958 482.443C403.295 481.439 402.963 480.227 402.963 478.807C402.963 477.557 403.21 476.544 403.702 475.767C404.194 474.981 404.853 474.366 405.676 473.92C406.5 473.475 407.409 473.144 408.404 472.926C409.408 472.699 410.416 472.519 411.429 472.386C412.755 472.216 413.83 472.088 414.654 472.003C415.487 471.908 416.093 471.752 416.472 471.534C416.86 471.316 417.054 470.937 417.054 470.398V470.284C417.054 468.883 416.671 467.794 415.904 467.017C415.146 466.241 413.996 465.852 412.452 465.852C410.852 465.852 409.597 466.203 408.688 466.903C407.779 467.604 407.14 468.352 406.77 469.148L403.588 468.011C404.157 466.686 404.914 465.653 405.861 464.915C406.818 464.167 407.859 463.646 408.986 463.352C410.123 463.049 411.24 462.898 412.338 462.898C413.039 462.898 413.844 462.983 414.753 463.153C415.672 463.314 416.557 463.651 417.409 464.162C418.271 464.673 418.986 465.445 419.554 466.477C420.123 467.509 420.407 468.892 420.407 470.625V485H417.054V482.045H416.884C416.657 482.519 416.278 483.026 415.748 483.565C415.217 484.105 414.512 484.564 413.631 484.943C412.75 485.322 411.676 485.511 410.407 485.511ZM410.918 482.5C412.244 482.5 413.361 482.24 414.27 481.719C415.189 481.198 415.88 480.526 416.344 479.702C416.818 478.878 417.054 478.011 417.054 477.102V474.034C416.912 474.205 416.6 474.361 416.117 474.503C415.643 474.635 415.094 474.754 414.469 474.858C413.854 474.953 413.252 475.038 412.665 475.114C412.087 475.18 411.619 475.237 411.259 475.284C410.388 475.398 409.573 475.582 408.816 475.838C408.068 476.084 407.462 476.458 406.998 476.96C406.543 477.453 406.316 478.125 406.316 478.977C406.316 480.142 406.747 481.023 407.608 481.619C408.48 482.206 409.583 482.5 410.918 482.5ZM470.307 470.966V474.091H430.307V470.966H470.307ZM497.384 463.182V481.875H500.452V492.045H497.1V485H480.225V463.182H483.577V481.875H494.032V463.182H497.384ZM512.329 485.455C510.227 485.455 508.413 484.991 506.889 484.062C505.374 483.125 504.204 481.818 503.38 480.142C502.566 478.456 502.159 476.496 502.159 474.261C502.159 472.027 502.566 470.057 503.38 468.352C504.204 466.638 505.35 465.303 506.818 464.347C508.295 463.381 510.019 462.898 511.988 462.898C513.125 462.898 514.247 463.087 515.355 463.466C516.463 463.845 517.471 464.46 518.38 465.312C519.289 466.155 520.014 467.273 520.554 468.665C521.093 470.057 521.363 471.771 521.363 473.807V475.227H504.545V472.33H517.954C517.954 471.098 517.708 470 517.216 469.034C516.733 468.068 516.041 467.306 515.142 466.747C514.252 466.188 513.2 465.909 511.988 465.909C510.653 465.909 509.498 466.241 508.522 466.903C507.556 467.557 506.813 468.409 506.292 469.46C505.771 470.511 505.511 471.638 505.511 472.841V474.773C505.511 476.42 505.795 477.817 506.363 478.963C506.941 480.099 507.741 480.966 508.764 481.562C509.787 482.15 510.975 482.443 512.329 482.443C513.21 482.443 514.005 482.32 514.716 482.074C515.435 481.818 516.056 481.439 516.576 480.938C517.097 480.426 517.5 479.792 517.784 479.034L521.022 479.943C520.681 481.042 520.109 482.008 519.304 482.841C518.499 483.665 517.504 484.309 516.321 484.773C515.137 485.227 513.806 485.455 512.329 485.455ZM522.331 485V481.875H523.126C523.78 481.875 524.324 481.747 524.76 481.491C525.195 481.226 525.546 480.767 525.811 480.114C526.086 479.451 526.294 478.532 526.436 477.358C526.588 476.174 526.696 474.669 526.763 472.841L527.16 463.182H541.706V485H538.354V466.307H530.342L530.001 474.091C529.926 475.881 529.765 477.457 529.518 478.821C529.282 480.175 528.917 481.312 528.425 482.23C527.942 483.149 527.298 483.84 526.493 484.304C525.688 484.768 524.679 485 523.467 485H522.331ZM554.52 485.455C552.55 485.455 550.822 484.986 549.335 484.048C547.858 483.111 546.703 481.799 545.87 480.114C545.046 478.428 544.634 476.458 544.634 474.205C544.634 471.932 545.046 469.948 545.87 468.253C546.703 466.558 547.858 465.241 549.335 464.304C550.822 463.366 552.55 462.898 554.52 462.898C556.49 462.898 558.213 463.366 559.691 464.304C561.177 465.241 562.333 466.558 563.156 468.253C563.99 469.948 564.406 471.932 564.406 474.205C564.406 476.458 563.99 478.428 563.156 480.114C562.333 481.799 561.177 483.111 559.691 484.048C558.213 484.986 556.49 485.455 554.52 485.455ZM554.52 482.443C556.016 482.443 557.247 482.06 558.213 481.293C559.179 480.526 559.894 479.517 560.358 478.267C560.822 477.017 561.054 475.663 561.054 474.205C561.054 472.746 560.822 471.387 560.358 470.128C559.894 468.868 559.179 467.85 558.213 467.074C557.247 466.297 556.016 465.909 554.52 465.909C553.024 465.909 551.793 466.297 550.827 467.074C549.861 467.85 549.146 468.868 548.682 470.128C548.218 471.387 547.986 472.746 547.986 474.205C547.986 475.663 548.218 477.017 548.682 478.267C549.146 479.517 549.861 480.526 550.827 481.293C551.793 482.06 553.024 482.443 554.52 482.443ZM576.187 485.455C574.142 485.455 572.38 484.972 570.903 484.006C569.426 483.04 568.29 481.709 567.494 480.014C566.699 478.319 566.301 476.383 566.301 474.205C566.301 471.989 566.708 470.033 567.523 468.338C568.346 466.634 569.492 465.303 570.96 464.347C572.437 463.381 574.161 462.898 576.13 462.898C577.665 462.898 579.047 463.182 580.278 463.75C581.509 464.318 582.518 465.114 583.304 466.136C584.09 467.159 584.577 468.352 584.767 469.716H581.415C581.159 468.722 580.591 467.841 579.71 467.074C578.839 466.297 577.665 465.909 576.187 465.909C574.88 465.909 573.735 466.25 572.75 466.932C571.774 467.604 571.012 468.556 570.463 469.787C569.923 471.009 569.653 472.443 569.653 474.091C569.653 475.777 569.918 477.244 570.449 478.494C570.988 479.744 571.746 480.715 572.721 481.406C573.706 482.098 574.862 482.443 576.187 482.443C577.058 482.443 577.849 482.292 578.559 481.989C579.27 481.686 579.871 481.25 580.363 480.682C580.856 480.114 581.206 479.432 581.415 478.636H584.767C584.577 479.924 584.109 481.084 583.361 482.116C582.622 483.139 581.642 483.954 580.42 484.56C579.208 485.156 577.797 485.455 576.187 485.455ZM585.749 466.307V463.182H603.476V466.307H596.317V485H592.965V466.307H585.749ZM620.768 472.557V475.682H608.723V472.557H620.768ZM609.518 463.182V485H606.166V463.182H609.518ZM623.325 463.182V485H619.973V463.182H623.325ZM636.111 485.455C634.141 485.455 632.413 484.986 630.926 484.048C629.449 483.111 628.294 481.799 627.46 480.114C626.636 478.428 626.224 476.458 626.224 474.205C626.224 471.932 626.636 469.948 627.46 468.253C628.294 466.558 629.449 465.241 630.926 464.304C632.413 463.366 634.141 462.898 636.111 462.898C638.08 462.898 639.804 463.366 641.281 464.304C642.768 465.241 643.923 466.558 644.747 468.253C645.58 469.948 645.997 471.932 645.997 474.205C645.997 476.458 645.58 478.428 644.747 480.114C643.923 481.799 642.768 483.111 641.281 484.048C639.804 484.986 638.08 485.455 636.111 485.455ZM636.111 482.443C637.607 482.443 638.838 482.06 639.804 481.293C640.77 480.526 641.485 479.517 641.949 478.267C642.413 477.017 642.645 475.663 642.645 474.205C642.645 472.746 642.413 471.387 641.949 470.128C641.485 468.868 640.77 467.85 639.804 467.074C638.838 466.297 637.607 465.909 636.111 465.909C634.615 465.909 633.383 466.297 632.418 467.074C631.452 467.85 630.737 468.868 630.273 470.128C629.809 471.387 629.577 472.746 629.577 474.205C629.577 475.663 629.809 477.017 630.273 478.267C630.737 479.517 631.452 480.526 632.418 481.293C633.383 482.06 634.615 482.443 636.111 482.443ZM658.062 485.455C655.96 485.455 654.146 484.991 652.622 484.062C651.106 483.125 649.937 481.818 649.113 480.142C648.299 478.456 647.892 476.496 647.892 474.261C647.892 472.027 648.299 470.057 649.113 468.352C649.937 466.638 651.083 465.303 652.551 464.347C654.028 463.381 655.751 462.898 657.721 462.898C658.857 462.898 659.98 463.087 661.088 463.466C662.196 463.845 663.204 464.46 664.113 465.312C665.022 466.155 665.747 467.273 666.286 468.665C666.826 470.057 667.096 471.771 667.096 473.807V475.227H650.278V472.33H663.687C663.687 471.098 663.441 470 662.948 469.034C662.465 468.068 661.774 467.306 660.874 466.747C659.984 466.188 658.933 465.909 657.721 465.909C656.386 465.909 655.231 466.241 654.255 466.903C653.289 467.557 652.546 468.409 652.025 469.46C651.504 470.511 651.244 471.638 651.244 472.841V474.773C651.244 476.42 651.528 477.817 652.096 478.963C652.674 480.099 653.474 480.966 654.497 481.562C655.519 482.15 656.708 482.443 658.062 482.443C658.943 482.443 659.738 482.32 660.448 482.074C661.168 481.818 661.788 481.439 662.309 480.938C662.83 480.426 663.232 479.792 663.517 479.034L666.755 479.943C666.414 481.042 665.841 482.008 665.036 482.841C664.231 483.665 663.237 484.309 662.053 484.773C660.87 485.227 659.539 485.455 658.062 485.455ZM679.045 485V463.182H687.966C690.314 463.182 692.18 463.712 693.563 464.773C694.945 465.833 695.636 467.235 695.636 468.977C695.636 470.303 695.243 471.33 694.457 472.06C693.671 472.779 692.663 473.267 691.432 473.523C692.237 473.636 693.018 473.92 693.776 474.375C694.543 474.83 695.177 475.455 695.679 476.25C696.181 477.036 696.432 478.002 696.432 479.148C696.432 480.265 696.148 481.264 695.58 482.145C695.011 483.026 694.197 483.722 693.136 484.233C692.076 484.744 690.807 485 689.33 485H679.045ZM682.227 481.932H689.33C690.485 481.932 691.389 481.657 692.043 481.108C692.696 480.559 693.023 479.811 693.023 478.864C693.023 477.737 692.696 476.851 692.043 476.207C691.389 475.554 690.485 475.227 689.33 475.227H682.227V481.932ZM682.227 472.33H687.966C688.866 472.33 689.637 472.206 690.281 471.96C690.925 471.705 691.418 471.345 691.759 470.881C692.109 470.407 692.284 469.848 692.284 469.205C692.284 468.286 691.901 467.566 691.134 467.045C690.366 466.515 689.311 466.25 687.966 466.25H682.227V472.33ZM708.17 485.455C706.2 485.455 704.472 484.986 702.985 484.048C701.508 483.111 700.353 481.799 699.52 480.114C698.696 478.428 698.284 476.458 698.284 474.205C698.284 471.932 698.696 469.948 699.52 468.253C700.353 466.558 701.508 465.241 702.985 464.304C704.472 463.366 706.2 462.898 708.17 462.898C710.14 462.898 711.863 463.366 713.341 464.304C714.827 465.241 715.983 466.558 716.806 468.253C717.64 469.948 718.056 471.932 718.056 474.205C718.056 476.458 717.64 478.428 716.806 480.114C715.983 481.799 714.827 483.111 713.341 484.048C711.863 484.986 710.14 485.455 708.17 485.455ZM708.17 482.443C709.666 482.443 710.897 482.06 711.863 481.293C712.829 480.526 713.544 479.517 714.008 478.267C714.472 477.017 714.704 475.663 714.704 474.205C714.704 472.746 714.472 471.387 714.008 470.128C713.544 468.868 712.829 467.85 711.863 467.074C710.897 466.297 709.666 465.909 708.17 465.909C706.674 465.909 705.443 466.297 704.477 467.074C703.511 467.85 702.796 468.868 702.332 470.128C701.868 471.387 701.636 472.746 701.636 474.205C701.636 475.663 701.868 477.017 702.332 478.267C702.796 479.517 703.511 480.526 704.477 481.293C705.443 482.06 706.674 482.443 708.17 482.443ZM729.837 485.455C727.792 485.455 726.031 484.972 724.553 484.006C723.076 483.04 721.94 481.709 721.144 480.014C720.349 478.319 719.951 476.383 719.951 474.205C719.951 471.989 720.358 470.033 721.173 468.338C721.996 466.634 723.142 465.303 724.61 464.347C726.087 463.381 727.811 462.898 729.781 462.898C731.315 462.898 732.697 463.182 733.928 463.75C735.159 464.318 736.168 465.114 736.954 466.136C737.74 467.159 738.227 468.352 738.417 469.716H735.065C734.809 468.722 734.241 467.841 733.36 467.074C732.489 466.297 731.315 465.909 729.837 465.909C728.531 465.909 727.385 466.25 726.4 466.932C725.424 467.604 724.662 468.556 724.113 469.787C723.573 471.009 723.303 472.443 723.303 474.091C723.303 475.777 723.568 477.244 724.099 478.494C724.638 479.744 725.396 480.715 726.371 481.406C727.356 482.098 728.512 482.443 729.837 482.443C730.709 482.443 731.499 482.292 732.209 481.989C732.92 481.686 733.521 481.25 734.013 480.682C734.506 480.114 734.856 479.432 735.065 478.636H738.417C738.227 479.924 737.759 481.084 737.011 482.116C736.272 483.139 735.292 483.954 734.07 484.56C732.858 485.156 731.447 485.455 729.837 485.455ZM741.117 485V463.182H758.276V485H754.924V466.307H744.47V485H741.117ZM762.199 493.182V463.182H765.437V466.648H765.835C766.081 466.269 766.422 465.786 766.858 465.199C767.303 464.602 767.937 464.072 768.761 463.608C769.595 463.134 770.721 462.898 772.142 462.898C773.979 462.898 775.598 463.357 777 464.276C778.401 465.194 779.495 466.496 780.281 468.182C781.067 469.867 781.46 471.856 781.46 474.148C781.46 476.458 781.067 478.461 780.281 480.156C779.495 481.842 778.406 483.149 777.014 484.077C775.622 484.995 774.017 485.455 772.199 485.455C770.797 485.455 769.675 485.223 768.832 484.759C767.989 484.285 767.341 483.75 766.886 483.153C766.432 482.547 766.081 482.045 765.835 481.648H765.551V493.182H762.199ZM765.494 474.091C765.494 475.739 765.736 477.192 766.219 478.452C766.702 479.702 767.407 480.682 768.335 481.392C769.263 482.093 770.399 482.443 771.744 482.443C773.146 482.443 774.315 482.074 775.253 481.335C776.2 480.587 776.91 479.583 777.383 478.324C777.866 477.055 778.108 475.644 778.108 474.091C778.108 472.557 777.871 471.174 777.398 469.943C776.934 468.703 776.228 467.723 775.281 467.003C774.344 466.274 773.165 465.909 771.744 465.909C770.38 465.909 769.235 466.255 768.307 466.946C767.379 467.628 766.678 468.584 766.204 469.815C765.731 471.037 765.494 472.462 765.494 474.091ZM787.726 480.057L798.237 463.182H802.101V485H798.749V468.125L788.294 485H784.374V463.182H787.726V480.057ZM819.166 485V466.25H813.37C812.064 466.25 811.036 466.553 810.288 467.159C809.54 467.765 809.166 468.598 809.166 469.659C809.166 470.701 809.502 471.52 810.174 472.116C810.856 472.713 811.789 473.011 812.973 473.011H820.018V476.136H812.973C811.495 476.136 810.222 475.876 809.152 475.355C808.082 474.834 807.258 474.091 806.68 473.125C806.102 472.15 805.814 470.994 805.814 469.659C805.814 468.314 806.117 467.159 806.723 466.193C807.329 465.227 808.195 464.484 809.322 463.963C810.458 463.442 811.808 463.182 813.37 463.182H822.348V485H819.166ZM804.62 485L810.814 474.148H814.45L808.257 485H804.62ZM823.333 466.307V463.182H841.06V466.307H833.901V485H830.549V466.307H823.333ZM847.102 480.057L857.614 463.182H861.477V485H858.125V468.125L847.671 485H843.75V463.182H847.102V480.057ZM874.565 485.455C872.463 485.455 870.649 484.991 869.125 484.062C867.61 483.125 866.44 481.818 865.616 480.142C864.802 478.456 864.395 476.496 864.395 474.261C864.395 472.027 864.802 470.057 865.616 468.352C866.44 466.638 867.586 465.303 869.054 464.347C870.531 463.381 872.255 462.898 874.224 462.898C875.361 462.898 876.483 463.087 877.591 463.466C878.699 463.845 879.707 464.46 880.616 465.312C881.525 466.155 882.25 467.273 882.79 468.665C883.329 470.057 883.599 471.771 883.599 473.807V475.227H866.781V472.33H880.19C880.19 471.098 879.944 470 879.452 469.034C878.969 468.068 878.277 467.306 877.378 466.747C876.488 466.188 875.436 465.909 874.224 465.909C872.889 465.909 871.734 466.241 870.758 466.903C869.792 467.557 869.049 468.409 868.528 469.46C868.007 470.511 867.747 471.638 867.747 472.841V474.773C867.747 476.42 868.031 477.817 868.599 478.963C869.177 480.099 869.977 480.966 871 481.562C872.023 482.15 873.211 482.443 874.565 482.443C875.446 482.443 876.241 482.32 876.952 482.074C877.671 481.818 878.291 481.439 878.812 480.938C879.333 480.426 879.736 479.792 880.02 479.034L883.258 479.943C882.917 481.042 882.345 482.008 881.54 482.841C880.735 483.665 879.74 484.309 878.557 484.773C877.373 485.227 876.042 485.455 874.565 485.455ZM907.48 480.455L915.094 463.182H918.276L908.844 485H906.117L896.855 463.182H899.98L907.48 480.455ZM898.901 463.182V485H895.549V463.182H898.901ZM916.06 485V463.182H919.412V485H916.06ZM926.701 480.057L937.212 463.182H941.076V485H937.724V468.125L927.269 485H923.349V463.182H926.701V480.057ZM945.016 493.182V463.182H948.254V466.648H948.652C948.898 466.269 949.239 465.786 949.675 465.199C950.12 464.602 950.754 464.072 951.578 463.608C952.412 463.134 953.539 462.898 954.959 462.898C956.796 462.898 958.415 463.357 959.817 464.276C961.218 465.194 962.312 466.496 963.098 468.182C963.884 469.867 964.277 471.856 964.277 474.148C964.277 476.458 963.884 478.461 963.098 480.156C962.312 481.842 961.223 483.149 959.831 484.077C958.439 484.995 956.834 485.455 955.016 485.455C953.614 485.455 952.492 485.223 951.649 484.759C950.807 484.285 950.158 483.75 949.703 483.153C949.249 482.547 948.898 482.045 948.652 481.648H948.368V493.182H945.016ZM948.311 474.091C948.311 475.739 948.553 477.192 949.036 478.452C949.519 479.702 950.224 480.682 951.152 481.392C952.08 482.093 953.217 482.443 954.561 482.443C955.963 482.443 957.132 482.074 958.07 481.335C959.017 480.587 959.727 479.583 960.2 478.324C960.683 477.055 960.925 475.644 960.925 474.091C960.925 472.557 960.688 471.174 960.215 469.943C959.751 468.703 959.045 467.723 958.098 467.003C957.161 466.274 955.982 465.909 954.561 465.909C953.198 465.909 952.052 466.255 951.124 466.946C950.196 467.628 949.495 468.584 949.021 469.815C948.548 471.037 948.311 472.462 948.311 474.091ZM973.611 485.511C972.229 485.511 970.974 485.251 969.847 484.73C968.72 484.2 967.825 483.438 967.162 482.443C966.5 481.439 966.168 480.227 966.168 478.807C966.168 477.557 966.414 476.544 966.907 475.767C967.399 474.981 968.057 474.366 968.881 473.92C969.705 473.475 970.614 473.144 971.608 472.926C972.612 472.699 973.621 472.519 974.634 472.386C975.96 472.216 977.035 472.088 977.858 472.003C978.692 471.908 979.298 471.752 979.677 471.534C980.065 471.316 980.259 470.937 980.259 470.398V470.284C980.259 468.883 979.876 467.794 979.108 467.017C978.351 466.241 977.2 465.852 975.657 465.852C974.056 465.852 972.802 466.203 971.893 466.903C970.983 467.604 970.344 468.352 969.975 469.148L966.793 468.011C967.361 466.686 968.119 465.653 969.066 464.915C970.022 464.167 971.064 463.646 972.191 463.352C973.327 463.049 974.445 462.898 975.543 462.898C976.244 462.898 977.049 462.983 977.958 463.153C978.876 463.314 979.762 463.651 980.614 464.162C981.476 464.673 982.191 465.445 982.759 466.477C983.327 467.509 983.611 468.892 983.611 470.625V485H980.259V482.045H980.089C979.861 482.519 979.483 483.026 978.952 483.565C978.422 484.105 977.716 484.564 976.836 484.943C975.955 485.322 974.88 485.511 973.611 485.511ZM974.123 482.5C975.448 482.5 976.566 482.24 977.475 481.719C978.394 481.198 979.085 480.526 979.549 479.702C980.022 478.878 980.259 478.011 980.259 477.102V474.034C980.117 474.205 979.804 474.361 979.322 474.503C978.848 474.635 978.299 474.754 977.674 474.858C977.058 474.953 976.457 475.038 975.87 475.114C975.292 475.18 974.823 475.237 974.464 475.284C973.592 475.398 972.778 475.582 972.02 475.838C971.272 476.084 970.666 476.458 970.202 476.96C969.748 477.453 969.52 478.125 969.52 478.977C969.52 480.142 969.951 481.023 970.813 481.619C971.684 482.206 972.787 482.5 974.123 482.5Z" fill="#D6F0FF"/>
</g>
<g clip-path="url(#clip1_727_1387)">
<rect x="1" width="1114" height="174" rx="87" fill="#00141F"/>
<path d="M165.472 72L167.177 74.0455C166.514 74.6894 165.747 75.1392 164.876 75.3949C164.004 75.6506 163.02 75.8068 161.921 75.8636C160.823 75.9205 159.601 75.9773 158.256 76.0341C156.741 76.0909 155.487 76.4602 154.492 77.142C153.498 77.8239 152.731 78.8087 152.191 80.0966C151.651 81.3845 151.306 82.9659 151.154 84.8409H151.438C152.177 83.4773 153.2 82.4735 154.506 81.8295C155.813 81.1856 157.215 80.8636 158.711 80.8636C160.415 80.8636 161.95 81.2614 163.313 82.0568C164.677 82.8523 165.756 84.0312 166.552 85.5938C167.347 87.1562 167.745 89.0833 167.745 91.375C167.745 93.6572 167.338 95.6269 166.523 97.2841C165.719 98.9413 164.587 100.22 163.129 101.119C161.68 102.009 159.98 102.455 158.029 102.455C156.078 102.455 154.369 101.995 152.901 101.077C151.433 100.149 150.292 98.7756 149.478 96.9574C148.664 95.1297 148.256 92.8712 148.256 90.1818V87.8523C148.256 82.9943 149.08 79.3106 150.728 76.8011C152.385 74.2917 154.876 72.9943 158.2 72.9091C159.374 72.8712 160.42 72.8617 161.339 72.8807C162.257 72.8996 163.058 72.857 163.739 72.7528C164.421 72.6487 164.999 72.3977 165.472 72ZM158.029 99.4432C159.345 99.4432 160.477 99.1117 161.424 98.4489C162.38 97.786 163.114 96.8532 163.626 95.6506C164.137 94.4384 164.393 93.0133 164.393 91.375C164.393 89.7841 164.132 88.4299 163.612 87.3125C163.1 86.1951 162.366 85.3428 161.41 84.7557C160.453 84.1686 159.308 83.875 157.972 83.875C156.997 83.875 156.121 84.0407 155.344 84.3722C154.568 84.7036 153.905 85.1913 153.356 85.8352C152.807 86.4792 152.38 87.2652 152.077 88.1932C151.784 89.1212 151.628 90.1818 151.609 91.375C151.609 93.8182 152.182 95.7737 153.327 97.2415C154.473 98.7093 156.04 99.4432 158.029 99.4432ZM179.821 102.455C177.718 102.455 175.905 101.991 174.38 101.062C172.865 100.125 171.696 98.8182 170.872 97.142C170.057 95.4564 169.65 93.4962 169.65 91.2614C169.65 89.0265 170.057 87.0568 170.872 85.3523C171.696 83.6383 172.841 82.303 174.309 81.3466C175.787 80.3807 177.51 79.8977 179.48 79.8977C180.616 79.8977 181.738 80.0871 182.846 80.4659C183.954 80.8447 184.963 81.4602 185.872 82.3125C186.781 83.1553 187.505 84.2727 188.045 85.6648C188.585 87.0568 188.855 88.7708 188.855 90.8068V92.2273H172.037V89.3295H185.446C185.446 88.0985 185.199 87 184.707 86.0341C184.224 85.0682 183.533 84.3059 182.633 83.7472C181.743 83.1884 180.692 82.9091 179.48 82.9091C178.144 82.9091 176.989 83.2405 176.014 83.9034C175.048 84.5568 174.304 85.4091 173.784 86.4602C173.263 87.5114 173.002 88.6383 173.002 89.8409V91.7727C173.002 93.4205 173.287 94.8172 173.855 95.9631C174.432 97.0994 175.233 97.9659 176.255 98.5625C177.278 99.1496 178.466 99.4432 179.821 99.4432C180.701 99.4432 181.497 99.3201 182.207 99.0739C182.927 98.8182 183.547 98.4394 184.068 97.9375C184.589 97.4261 184.991 96.7917 185.275 96.0341L188.514 96.9432C188.173 98.0417 187.6 99.0076 186.795 99.8409C185.99 100.665 184.996 101.309 183.812 101.773C182.628 102.227 181.298 102.455 179.821 102.455ZM191.754 110.182V80.1818H194.993V83.6477H195.39C195.637 83.2689 195.978 82.786 196.413 82.1989C196.858 81.6023 197.493 81.072 198.317 80.608C199.15 80.1345 200.277 79.8977 201.697 79.8977C203.534 79.8977 205.154 80.357 206.555 81.2756C207.957 82.1941 209.051 83.4962 209.837 85.1818C210.622 86.8674 211.015 88.8561 211.015 91.1477C211.015 93.4583 210.622 95.4612 209.837 97.1562C209.051 98.8419 207.962 100.149 206.569 101.077C205.177 101.995 203.572 102.455 201.754 102.455C200.353 102.455 199.23 102.223 198.388 101.759C197.545 101.285 196.896 100.75 196.442 100.153C195.987 99.5473 195.637 99.0455 195.39 98.6477H195.106V110.182H191.754ZM195.05 91.0909C195.05 92.7386 195.291 94.1922 195.774 95.4517C196.257 96.7017 196.962 97.6818 197.89 98.392C198.819 99.0928 199.955 99.4432 201.3 99.4432C202.701 99.4432 203.871 99.0739 204.808 98.3352C205.755 97.5871 206.465 96.5833 206.939 95.3239C207.422 94.0549 207.663 92.6439 207.663 91.0909C207.663 89.5568 207.426 88.1742 206.953 86.9432C206.489 85.7027 205.783 84.7225 204.837 84.0028C203.899 83.2737 202.72 82.9091 201.3 82.9091C199.936 82.9091 198.79 83.2547 197.862 83.946C196.934 84.6278 196.233 85.5843 195.76 86.8153C195.286 88.0369 195.05 89.4621 195.05 91.0909ZM223.077 102.455C220.975 102.455 219.161 101.991 217.637 101.062C216.121 100.125 214.952 98.8182 214.128 97.142C213.314 95.4564 212.906 93.4962 212.906 91.2614C212.906 89.0265 213.314 87.0568 214.128 85.3523C214.952 83.6383 216.098 82.303 217.565 81.3466C219.043 80.3807 220.766 79.8977 222.736 79.8977C223.872 79.8977 224.994 80.0871 226.102 80.4659C227.21 80.8447 228.219 81.4602 229.128 82.3125C230.037 83.1553 230.762 84.2727 231.301 85.6648C231.841 87.0568 232.111 88.7708 232.111 90.8068V92.2273H215.293V89.3295H228.702C228.702 88.0985 228.456 87 227.963 86.0341C227.48 85.0682 226.789 84.3059 225.889 83.7472C224.999 83.1884 223.948 82.9091 222.736 82.9091C221.401 82.9091 220.245 83.2405 219.27 83.9034C218.304 84.5568 217.561 85.4091 217.04 86.4602C216.519 87.5114 216.259 88.6383 216.259 89.8409V91.7727C216.259 93.4205 216.543 94.8172 217.111 95.9631C217.689 97.0994 218.489 97.9659 219.512 98.5625C220.534 99.1496 221.723 99.4432 223.077 99.4432C223.958 99.4432 224.753 99.3201 225.463 99.0739C226.183 98.8182 226.803 98.4394 227.324 97.9375C227.845 97.4261 228.247 96.7917 228.531 96.0341L231.77 96.9432C231.429 98.0417 230.856 99.0076 230.051 99.8409C229.246 100.665 228.252 101.309 227.068 101.773C225.885 102.227 224.554 102.455 223.077 102.455ZM233.061 102L241.924 90.9205L233.174 80.1818H237.152L244.424 89.5H246.243V80.1818H249.595V89.5H251.356L258.629 80.1818H262.606L253.913 90.9205L262.72 102H258.686L251.299 92.625H249.595V102H246.243V92.625H244.538L237.095 102H233.061ZM279.913 89.5568V92.6818H267.867V89.5568H279.913ZM268.663 80.1818V102H265.31V80.1818H268.663ZM282.469 80.1818V102H279.117V80.1818H282.469ZM295.255 102.455C293.286 102.455 291.557 101.986 290.071 101.048C288.593 100.111 287.438 98.7992 286.605 97.1136C285.781 95.428 285.369 93.4583 285.369 91.2045C285.369 88.9318 285.781 86.9479 286.605 85.2528C287.438 83.5578 288.593 82.2415 290.071 81.304C291.557 80.3665 293.286 79.8977 295.255 79.8977C297.225 79.8977 298.948 80.3665 300.426 81.304C301.912 82.2415 303.068 83.5578 303.892 85.2528C304.725 86.9479 305.142 88.9318 305.142 91.2045C305.142 93.4583 304.725 95.428 303.892 97.1136C303.068 98.7992 301.912 100.111 300.426 101.048C298.948 101.986 297.225 102.455 295.255 102.455ZM295.255 99.4432C296.751 99.4432 297.983 99.0597 298.948 98.2926C299.914 97.5256 300.629 96.517 301.093 95.267C301.557 94.017 301.789 92.6629 301.789 91.2045C301.789 89.7462 301.557 88.3873 301.093 87.1278C300.629 85.8684 299.914 84.8504 298.948 84.0739C297.983 83.2973 296.751 82.9091 295.255 82.9091C293.759 82.9091 292.528 83.2973 291.562 84.0739C290.596 84.8504 289.881 85.8684 289.417 87.1278C288.953 88.3873 288.721 89.7462 288.721 91.2045C288.721 92.6629 288.953 94.017 289.417 95.267C289.881 96.517 290.596 97.5256 291.562 98.2926C292.528 99.0597 293.759 99.4432 295.255 99.4432ZM317.207 102.455C315.104 102.455 313.291 101.991 311.766 101.062C310.251 100.125 309.082 98.8182 308.258 97.142C307.443 95.4564 307.036 93.4962 307.036 91.2614C307.036 89.0265 307.443 87.0568 308.258 85.3523C309.082 83.6383 310.227 82.303 311.695 81.3466C313.172 80.3807 314.896 79.8977 316.866 79.8977C318.002 79.8977 319.124 80.0871 320.232 80.4659C321.34 80.8447 322.349 81.4602 323.258 82.3125C324.167 83.1553 324.891 84.2727 325.431 85.6648C325.971 87.0568 326.241 88.7708 326.241 90.8068V92.2273H309.422V89.3295H322.832C322.832 88.0985 322.585 87 322.093 86.0341C321.61 85.0682 320.919 84.3059 320.019 83.7472C319.129 83.1884 318.078 82.9091 316.866 82.9091C315.53 82.9091 314.375 83.2405 313.4 83.9034C312.434 84.5568 311.69 85.4091 311.17 86.4602C310.649 87.5114 310.388 88.6383 310.388 89.8409V91.7727C310.388 93.4205 310.672 94.8172 311.241 95.9631C311.818 97.0994 312.618 97.9659 313.641 98.5625C314.664 99.1496 315.852 99.4432 317.207 99.4432C318.087 99.4432 318.883 99.3201 319.593 99.0739C320.313 98.8182 320.933 98.4394 321.454 97.9375C321.975 97.4261 322.377 96.7917 322.661 96.0341L325.9 96.9432C325.559 98.0417 324.986 99.0076 324.181 99.8409C323.376 100.665 322.382 101.309 321.198 101.773C320.014 102.227 318.684 102.455 317.207 102.455ZM347.054 102.455C345.084 102.455 343.356 101.986 341.869 101.048C340.392 100.111 339.236 98.7992 338.403 97.1136C337.579 95.428 337.167 93.4583 337.167 91.2045C337.167 88.9318 337.579 86.9479 338.403 85.2528C339.236 83.5578 340.392 82.2415 341.869 81.304C343.356 80.3665 345.084 79.8977 347.054 79.8977C349.023 79.8977 350.747 80.3665 352.224 81.304C353.711 82.2415 354.866 83.5578 355.69 85.2528C356.523 86.9479 356.94 88.9318 356.94 91.2045C356.94 93.4583 356.523 95.428 355.69 97.1136C354.866 98.7992 353.711 100.111 352.224 101.048C350.747 101.986 349.023 102.455 347.054 102.455ZM347.054 99.4432C348.55 99.4432 349.781 99.0597 350.747 98.2926C351.713 97.5256 352.428 96.517 352.892 95.267C353.356 94.017 353.588 92.6629 353.588 91.2045C353.588 89.7462 353.356 88.3873 352.892 87.1278C352.428 85.8684 351.713 84.8504 350.747 84.0739C349.781 83.2973 348.55 82.9091 347.054 82.9091C345.557 82.9091 344.326 83.2973 343.361 84.0739C342.395 84.8504 341.68 85.8684 341.216 87.1278C340.752 88.3873 340.52 89.7462 340.52 91.2045C340.52 92.6629 340.752 94.017 341.216 95.267C341.68 96.517 342.395 97.5256 343.361 98.2926C344.326 99.0597 345.557 99.4432 347.054 99.4432ZM357.006 83.3068V80.1818H374.733V83.3068H367.574V102H364.222V83.3068H357.006ZM392.025 89.5568V92.6818H379.98V89.5568H392.025ZM380.775 80.1818V102H377.423V80.1818H380.775ZM394.582 80.1818V102H391.23V80.1818H394.582ZM407.368 102.455C405.398 102.455 403.67 101.986 402.183 101.048C400.706 100.111 399.551 98.7992 398.717 97.1136C397.893 95.428 397.481 93.4583 397.481 91.2045C397.481 88.9318 397.893 86.9479 398.717 85.2528C399.551 83.5578 400.706 82.2415 402.183 81.304C403.67 80.3665 405.398 79.8977 407.368 79.8977C409.337 79.8977 411.061 80.3665 412.538 81.304C414.025 82.2415 415.18 83.5578 416.004 85.2528C416.837 86.9479 417.254 88.9318 417.254 91.2045C417.254 93.4583 416.837 95.428 416.004 97.1136C415.18 98.7992 414.025 100.111 412.538 101.048C411.061 101.986 409.337 102.455 407.368 102.455ZM407.368 99.4432C408.864 99.4432 410.095 99.0597 411.061 98.2926C412.027 97.5256 412.742 96.517 413.206 95.267C413.67 94.017 413.902 92.6629 413.902 91.2045C413.902 89.7462 413.67 88.3873 413.206 87.1278C412.742 85.8684 412.027 84.8504 411.061 84.0739C410.095 83.2973 408.864 82.9091 407.368 82.9091C405.872 82.9091 404.64 83.2973 403.675 84.0739C402.709 84.8504 401.994 85.8684 401.53 87.1278C401.066 88.3873 400.834 89.7462 400.834 91.2045C400.834 92.6629 401.066 94.017 401.53 95.267C401.994 96.517 402.709 97.5256 403.675 98.2926C404.64 99.0597 405.872 99.4432 407.368 99.4432ZM420.171 80.1818H423.524V98.875H431.762V80.1818H435.114V98.875H443.353V80.1818H446.705V102H420.171V80.1818ZM459.775 102.455C457.673 102.455 455.86 101.991 454.335 101.062C452.82 100.125 451.65 98.8182 450.826 97.142C450.012 95.4564 449.605 93.4962 449.605 91.2614C449.605 89.0265 450.012 87.0568 450.826 85.3523C451.65 83.6383 452.796 82.303 454.264 81.3466C455.741 80.3807 457.465 79.8977 459.434 79.8977C460.571 79.8977 461.693 80.0871 462.801 80.4659C463.909 80.8447 464.917 81.4602 465.826 82.3125C466.736 83.1553 467.46 84.2727 468 85.6648C468.54 87.0568 468.809 88.7708 468.809 90.8068V92.2273H451.991V89.3295H465.4C465.4 88.0985 465.154 87 464.662 86.0341C464.179 85.0682 463.487 84.3059 462.588 83.7472C461.698 83.1884 460.647 82.9091 459.434 82.9091C458.099 82.9091 456.944 83.2405 455.968 83.9034C455.003 84.5568 454.259 85.4091 453.738 86.4602C453.218 87.5114 452.957 88.6383 452.957 89.8409V91.7727C452.957 93.4205 453.241 94.8172 453.809 95.9631C454.387 97.0994 455.187 97.9659 456.21 98.5625C457.233 99.1496 458.421 99.4432 459.775 99.4432C460.656 99.4432 461.451 99.3201 462.162 99.0739C462.881 98.8182 463.502 98.4394 464.022 97.9375C464.543 97.4261 464.946 96.7917 465.23 96.0341L468.468 96.9432C468.128 98.0417 467.555 99.0076 466.75 99.8409C465.945 100.665 464.95 101.309 463.767 101.773C462.583 102.227 461.253 102.455 459.775 102.455ZM486.311 89.5568V92.6818H474.266V89.5568H486.311ZM475.061 80.1818V102H471.709V80.1818H475.061ZM488.868 80.1818V102H485.516V80.1818H488.868ZM496.142 97.0568L506.654 80.1818H510.517V102H507.165V85.125L496.71 102H492.79V80.1818H496.142V97.0568ZM523.605 102.455C521.503 102.455 519.689 101.991 518.165 101.062C516.649 100.125 515.48 98.8182 514.656 97.142C513.842 95.4564 513.435 93.4962 513.435 91.2614C513.435 89.0265 513.842 87.0568 514.656 85.3523C515.48 83.6383 516.626 82.303 518.094 81.3466C519.571 80.3807 521.294 79.8977 523.264 79.8977C524.4 79.8977 525.523 80.0871 526.631 80.4659C527.739 80.8447 528.747 81.4602 529.656 82.3125C530.565 83.1553 531.29 84.2727 531.829 85.6648C532.369 87.0568 532.639 88.7708 532.639 90.8068V92.2273H515.821V89.3295H529.23C529.23 88.0985 528.984 87 528.491 86.0341C528.008 85.0682 527.317 84.3059 526.417 83.7472C525.527 83.1884 524.476 82.9091 523.264 82.9091C521.929 82.9091 520.774 83.2405 519.798 83.9034C518.832 84.5568 518.089 85.4091 517.568 86.4602C517.047 87.5114 516.787 88.6383 516.787 89.8409V91.7727C516.787 93.4205 517.071 94.8172 517.639 95.9631C518.217 97.0994 519.017 97.9659 520.04 98.5625C521.062 99.1496 522.251 99.4432 523.605 99.4432C524.486 99.4432 525.281 99.3201 525.991 99.0739C526.711 98.8182 527.331 98.4394 527.852 97.9375C528.373 97.4261 528.775 96.7917 529.06 96.0341L532.298 96.9432C531.957 98.0417 531.384 99.0076 530.579 99.8409C529.774 100.665 528.78 101.309 527.596 101.773C526.413 102.227 525.082 102.455 523.605 102.455ZM544.589 102V80.1818H547.941V89.6705H550.157L557.998 80.1818H562.316L553.509 90.6932L562.429 102H558.111L550.952 92.7955H547.941V102H544.589ZM570.991 102V98.875H571.786C572.44 98.875 572.984 98.7472 573.42 98.4915C573.856 98.2263 574.206 97.767 574.471 97.1136C574.746 96.4508 574.954 95.5322 575.096 94.358C575.248 93.1742 575.357 91.6686 575.423 89.8409L575.821 80.1818H590.366V102H587.014V83.3068H579.002L578.661 91.0909C578.586 92.8807 578.425 94.4574 578.179 95.821C577.942 97.1752 577.577 98.3116 577.085 99.2301C576.602 100.149 575.958 100.84 575.153 101.304C574.348 101.768 573.34 102 572.127 102H570.991ZM603.18 102.455C601.211 102.455 599.482 101.986 597.996 101.048C596.518 100.111 595.363 98.7992 594.53 97.1136C593.706 95.428 593.294 93.4583 593.294 91.2045C593.294 88.9318 593.706 86.9479 594.53 85.2528C595.363 83.5578 596.518 82.2415 597.996 81.304C599.482 80.3665 601.211 79.8977 603.18 79.8977C605.15 79.8977 606.873 80.3665 608.351 81.304C609.837 82.2415 610.993 83.5578 611.817 85.2528C612.65 86.9479 613.067 88.9318 613.067 91.2045C613.067 93.4583 612.65 95.428 611.817 97.1136C610.993 98.7992 609.837 100.111 608.351 101.048C606.873 101.986 605.15 102.455 603.18 102.455ZM603.18 99.4432C604.676 99.4432 605.908 99.0597 606.873 98.2926C607.839 97.5256 608.554 96.517 609.018 95.267C609.482 94.017 609.714 92.6629 609.714 91.2045C609.714 89.7462 609.482 88.3873 609.018 87.1278C608.554 85.8684 607.839 84.8504 606.873 84.0739C605.908 83.2973 604.676 82.9091 603.18 82.9091C601.684 82.9091 600.453 83.2973 599.487 84.0739C598.521 84.8504 597.806 85.8684 597.342 87.1278C596.878 88.3873 596.646 89.7462 596.646 91.2045C596.646 92.6629 596.878 94.017 597.342 95.267C597.806 96.517 598.521 97.5256 599.487 98.2926C600.453 99.0597 601.684 99.4432 603.18 99.4432ZM615.984 102V80.1818H619.336V89.6705H621.552L629.393 80.1818H633.711L624.904 90.6932L633.825 102H629.507L622.347 92.7955H619.336V102H615.984ZM641.689 102.511C640.306 102.511 639.051 102.251 637.924 101.73C636.798 101.2 635.903 100.438 635.24 99.4432C634.577 98.4394 634.245 97.2273 634.245 95.8068C634.245 94.5568 634.492 93.5436 634.984 92.767C635.477 91.9811 636.135 91.3655 636.959 90.9205C637.782 90.4754 638.691 90.1439 639.686 89.9261C640.69 89.6989 641.698 89.5189 642.711 89.3864C644.037 89.2159 645.112 89.0881 645.936 89.0028C646.769 88.9081 647.375 88.7519 647.754 88.5341C648.142 88.3163 648.336 87.9375 648.336 87.3977V87.2841C648.336 85.8826 647.953 84.7936 647.186 84.017C646.428 83.2405 645.278 82.8523 643.734 82.8523C642.134 82.8523 640.879 83.2027 639.97 83.9034C639.061 84.6042 638.422 85.3523 638.052 86.1477L634.87 85.0114C635.439 83.6856 636.196 82.6534 637.143 81.9148C638.1 81.1667 639.141 80.6458 640.268 80.3523C641.405 80.0492 642.522 79.8977 643.62 79.8977C644.321 79.8977 645.126 79.983 646.035 80.1534C646.954 80.3144 647.839 80.6506 648.691 81.1619C649.553 81.6733 650.268 82.4451 650.836 83.4773C651.405 84.5095 651.689 85.892 651.689 87.625V102H648.336V99.0455H648.166C647.939 99.5189 647.56 100.026 647.03 100.565C646.499 101.105 645.794 101.564 644.913 101.943C644.032 102.322 642.958 102.511 641.689 102.511ZM642.2 99.5C643.526 99.5 644.643 99.2396 645.552 98.7188C646.471 98.1979 647.162 97.5256 647.626 96.7017C648.1 95.8778 648.336 95.0114 648.336 94.1023V91.0341C648.194 91.2045 647.882 91.3608 647.399 91.5028C646.925 91.6354 646.376 91.7538 645.751 91.858C645.136 91.9527 644.534 92.0379 643.947 92.1136C643.37 92.1799 642.901 92.2367 642.541 92.2841C641.67 92.3977 640.855 92.5824 640.098 92.8381C639.35 93.0843 638.744 93.4583 638.28 93.9602C637.825 94.4527 637.598 95.125 637.598 95.9773C637.598 97.142 638.029 98.0227 638.89 98.6193C639.762 99.2064 640.865 99.5 642.2 99.5ZM653.675 102V98.875H654.471C655.124 98.875 655.669 98.7472 656.104 98.4915C656.54 98.2263 656.89 97.767 657.156 97.1136C657.43 96.4508 657.638 95.5322 657.781 94.358C657.932 93.1742 658.041 91.6686 658.107 89.8409L658.505 80.1818H673.05V102H669.698V83.3068H661.687L661.346 91.0909C661.27 92.8807 661.109 94.4574 660.863 95.821C660.626 97.1752 660.262 98.3116 659.769 99.2301C659.286 100.149 658.642 100.84 657.837 101.304C657.032 101.768 656.024 102 654.812 102H653.675ZM679.899 88.0795H686.149C688.706 88.0795 690.661 88.7282 692.015 90.0256C693.369 91.3229 694.046 92.9659 694.046 94.9545C694.046 96.2614 693.743 97.4498 693.137 98.5199C692.531 99.5805 691.641 100.428 690.467 101.062C689.293 101.688 687.853 102 686.149 102H677.001V80.1818H680.353V98.875H686.149C687.474 98.875 688.563 98.5246 689.416 97.8239C690.268 97.1231 690.694 96.2235 690.694 95.125C690.694 93.9697 690.268 93.0275 689.416 92.2983C688.563 91.5691 687.474 91.2045 686.149 91.2045H679.899V88.0795ZM711.552 89.5568V92.6818H699.506V89.5568H711.552ZM700.302 80.1818V102H696.949V80.1818H700.302ZM714.108 80.1818V102H710.756V80.1818H714.108ZM726.894 102.455C724.925 102.455 723.196 101.986 721.71 101.048C720.232 100.111 719.077 98.7992 718.244 97.1136C717.42 95.428 717.008 93.4583 717.008 91.2045C717.008 88.9318 717.42 86.9479 718.244 85.2528C719.077 83.5578 720.232 82.2415 721.71 81.304C723.196 80.3665 724.925 79.8977 726.894 79.8977C728.864 79.8977 730.588 80.3665 732.065 81.304C733.552 82.2415 734.707 83.5578 735.531 85.2528C736.364 86.9479 736.781 88.9318 736.781 91.2045C736.781 93.4583 736.364 95.428 735.531 97.1136C734.707 98.7992 733.552 100.111 732.065 101.048C730.588 101.986 728.864 102.455 726.894 102.455ZM726.894 99.4432C728.391 99.4432 729.622 99.0597 730.588 98.2926C731.553 97.5256 732.268 96.517 732.732 95.267C733.196 94.017 733.428 92.6629 733.428 91.2045C733.428 89.7462 733.196 88.3873 732.732 87.1278C732.268 85.8684 731.553 84.8504 730.588 84.0739C729.622 83.2973 728.391 82.9091 726.894 82.9091C725.398 82.9091 724.167 83.2973 723.201 84.0739C722.235 84.8504 721.52 85.8684 721.056 87.1278C720.592 88.3873 720.36 89.7462 720.36 91.2045C720.36 92.6629 720.592 94.017 721.056 95.267C721.52 96.517 722.235 97.5256 723.201 98.2926C724.167 99.0597 725.398 99.4432 726.894 99.4432ZM751.63 97.4545L759.243 80.1818H762.425L752.993 102H750.266L741.005 80.1818H744.13L751.63 97.4545ZM743.05 80.1818V102H739.698V80.1818H743.05ZM760.209 102V80.1818H763.562V102H760.209ZM768.876 110.182C768.308 110.182 767.801 110.134 767.356 110.04C766.911 109.955 766.603 109.869 766.433 109.784L767.285 106.83C768.099 107.038 768.819 107.114 769.444 107.057C770.069 107 770.623 106.721 771.106 106.219C771.598 105.726 772.048 104.926 772.455 103.818L773.08 102.114L765.012 80.1818H768.648L774.671 97.5682H774.898L780.921 80.1818H784.558L775.296 105.182C774.879 106.309 774.363 107.241 773.748 107.98C773.132 108.728 772.417 109.282 771.603 109.642C770.798 110.002 769.889 110.182 768.876 110.182ZM795.832 102V80.1818H799.184V89.6705H801.4L809.241 80.1818H813.559L804.753 90.6932L813.673 102H809.355L802.196 92.7955H799.184V102H795.832ZM823.082 102.455C821.112 102.455 819.384 101.986 817.897 101.048C816.42 100.111 815.265 98.7992 814.431 97.1136C813.607 95.428 813.195 93.4583 813.195 91.2045C813.195 88.9318 813.607 86.9479 814.431 85.2528C815.265 83.5578 816.42 82.2415 817.897 81.304C819.384 80.3665 821.112 79.8977 823.082 79.8977C825.052 79.8977 826.775 80.3665 828.252 81.304C829.739 82.2415 830.894 83.5578 831.718 85.2528C832.552 86.9479 832.968 88.9318 832.968 91.2045C832.968 93.4583 832.552 95.428 831.718 97.1136C830.894 98.7992 829.739 100.111 828.252 101.048C826.775 101.986 825.052 102.455 823.082 102.455ZM823.082 99.4432C824.578 99.4432 825.809 99.0597 826.775 98.2926C827.741 97.5256 828.456 96.517 828.92 95.267C829.384 94.017 829.616 92.6629 829.616 91.2045C829.616 89.7462 829.384 88.3873 828.92 87.1278C828.456 85.8684 827.741 84.8504 826.775 84.0739C825.809 83.2973 824.578 82.9091 823.082 82.9091C821.586 82.9091 820.355 83.2973 819.389 84.0739C818.423 84.8504 817.708 85.8684 817.244 87.1278C816.78 88.3873 816.548 89.7462 816.548 91.2045C816.548 92.6629 816.78 94.017 817.244 95.267C817.708 96.517 818.423 97.5256 819.389 98.2926C820.355 99.0597 821.586 99.4432 823.082 99.4432ZM850.488 89.5568V92.6818H838.442V89.5568H850.488ZM839.238 80.1818V102H835.885V80.1818H839.238ZM853.044 80.1818V102H849.692V80.1818H853.044ZM853.998 83.3068V80.1818H871.725V83.3068H864.566V102H861.214V83.3068H853.998ZM882.43 102.455C880.328 102.455 878.514 101.991 876.99 101.062C875.474 100.125 874.305 98.8182 873.481 97.142C872.667 95.4564 872.26 93.4962 872.26 91.2614C872.26 89.0265 872.667 87.0568 873.481 85.3523C874.305 83.6383 875.451 82.303 876.919 81.3466C878.396 80.3807 880.119 79.8977 882.089 79.8977C883.225 79.8977 884.348 80.0871 885.456 80.4659C886.563 80.8447 887.572 81.4602 888.481 82.3125C889.39 83.1553 890.115 84.2727 890.654 85.6648C891.194 87.0568 891.464 88.7708 891.464 90.8068V92.2273H874.646V89.3295H888.055C888.055 88.0985 887.809 87 887.316 86.0341C886.833 85.0682 886.142 84.3059 885.242 83.7472C884.352 83.1884 883.301 82.9091 882.089 82.9091C880.754 82.9091 879.599 83.2405 878.623 83.9034C877.657 84.5568 876.914 85.4091 876.393 86.4602C875.872 87.5114 875.612 88.6383 875.612 89.8409V91.7727C875.612 93.4205 875.896 94.8172 876.464 95.9631C877.042 97.0994 877.842 97.9659 878.865 98.5625C879.887 99.1496 881.076 99.4432 882.43 99.4432C883.311 99.4432 884.106 99.3201 884.816 99.0739C885.536 98.8182 886.156 98.4394 886.677 97.9375C887.198 97.4261 887.6 96.7917 887.885 96.0341L891.123 96.9432C890.782 98.0417 890.209 99.0076 889.404 99.8409C888.599 100.665 887.605 101.309 886.421 101.773C885.238 102.227 883.907 102.455 882.43 102.455ZM894.363 102V80.1818H897.716V89.6705H899.932L907.773 80.1818H912.091L903.284 90.6932L912.204 102H907.886L900.727 92.7955H897.716V102H894.363ZM921.613 102.455C919.568 102.455 917.806 101.972 916.329 101.006C914.852 100.04 913.715 98.7093 912.92 97.0142C912.124 95.3191 911.727 93.3826 911.727 91.2045C911.727 88.9886 912.134 87.0331 912.948 85.3381C913.772 83.6335 914.918 82.303 916.386 81.3466C917.863 80.3807 919.587 79.8977 921.556 79.8977C923.09 79.8977 924.473 80.1818 925.704 80.75C926.935 81.3182 927.944 82.1136 928.73 83.1364C929.516 84.1591 930.003 85.3523 930.193 86.7159H926.84C926.585 85.7216 926.017 84.8409 925.136 84.0739C924.265 83.2973 923.09 82.9091 921.613 82.9091C920.306 82.9091 919.16 83.25 918.176 83.9318C917.2 84.6042 916.438 85.5559 915.889 86.7869C915.349 88.0085 915.079 89.4432 915.079 91.0909C915.079 92.7765 915.344 94.2443 915.874 95.4943C916.414 96.7443 917.172 97.715 918.147 98.4062C919.132 99.0975 920.287 99.4432 921.613 99.4432C922.484 99.4432 923.275 99.2917 923.985 98.9886C924.695 98.6856 925.297 98.25 925.789 97.6818C926.282 97.1136 926.632 96.4318 926.84 95.6364H930.193C930.003 96.9242 929.534 98.0843 928.786 99.1165C928.048 100.139 927.068 100.954 925.846 101.56C924.634 102.156 923.223 102.455 921.613 102.455ZM931.174 83.3068V80.1818H948.902V83.3068H941.743V102H938.39V83.3068H931.174ZM953.751 110.182C953.183 110.182 952.676 110.134 952.231 110.04C951.786 109.955 951.478 109.869 951.308 109.784L952.16 106.83C952.974 107.038 953.694 107.114 954.319 107.057C954.944 107 955.498 106.721 955.981 106.219C956.473 105.726 956.923 104.926 957.33 103.818L957.955 102.114L949.887 80.1818H953.523L959.546 97.5682H959.773L965.796 80.1818H969.433L960.171 105.182C959.754 106.309 959.238 107.241 958.623 107.98C958.007 108.728 957.292 109.282 956.478 109.642C955.673 110.002 954.764 110.182 953.751 110.182Z" fill="#D6F0FF"/>
</g>
<rect y="194" width="434" height="174" rx="87" fill="#00141F"/>
<path d="M124.76 296.511C123.377 296.511 122.122 296.251 120.996 295.73C119.869 295.2 118.974 294.438 118.311 293.443C117.648 292.439 117.317 291.227 117.317 289.807C117.317 288.557 117.563 287.544 118.055 286.767C118.548 285.981 119.206 285.366 120.03 284.92C120.853 284.475 121.763 284.144 122.757 283.926C123.761 283.699 124.769 283.519 125.782 283.386C127.108 283.216 128.183 283.088 129.007 283.003C129.84 282.908 130.446 282.752 130.825 282.534C131.213 282.316 131.407 281.937 131.407 281.398V281.284C131.407 279.883 131.024 278.794 130.257 278.017C129.499 277.241 128.349 276.852 126.805 276.852C125.205 276.852 123.95 277.203 123.041 277.903C122.132 278.604 121.493 279.352 121.123 280.148L117.942 279.011C118.51 277.686 119.267 276.653 120.214 275.915C121.171 275.167 122.212 274.646 123.339 274.352C124.476 274.049 125.593 273.898 126.692 273.898C127.392 273.898 128.197 273.983 129.106 274.153C130.025 274.314 130.91 274.651 131.763 275.162C132.624 275.673 133.339 276.445 133.907 277.477C134.476 278.509 134.76 279.892 134.76 281.625V296H131.407V293.045H131.237C131.01 293.519 130.631 294.026 130.101 294.565C129.57 295.105 128.865 295.564 127.984 295.943C127.103 296.322 126.029 296.511 124.76 296.511ZM125.271 293.5C126.597 293.5 127.714 293.24 128.623 292.719C129.542 292.198 130.233 291.526 130.697 290.702C131.171 289.878 131.407 289.011 131.407 288.102V285.034C131.265 285.205 130.953 285.361 130.47 285.503C129.996 285.635 129.447 285.754 128.822 285.858C128.207 285.953 127.605 286.038 127.018 286.114C126.441 286.18 125.972 286.237 125.612 286.284C124.741 286.398 123.926 286.582 123.169 286.838C122.421 287.084 121.815 287.458 121.351 287.96C120.896 288.453 120.669 289.125 120.669 289.977C120.669 291.142 121.1 292.023 121.961 292.619C122.833 293.206 123.936 293.5 125.271 293.5ZM138.678 296V274.182H142.031V283.67H144.247L152.087 274.182H156.406L147.599 284.693L156.519 296H152.201L145.042 286.795H142.031V296H138.678ZM156.713 277.307V274.182H174.44V277.307H167.281V296H163.929V277.307H156.713ZM180.482 291.057L190.994 274.182H194.857V296H191.505V279.125L181.05 296H177.13V274.182H180.482V291.057ZM198.797 296V274.182H207.718C210.066 274.182 211.932 274.712 213.314 275.773C214.697 276.833 215.388 278.235 215.388 279.977C215.388 281.303 214.995 282.33 214.209 283.06C213.423 283.779 212.415 284.267 211.183 284.523C211.988 284.636 212.77 284.92 213.527 285.375C214.294 285.83 214.929 286.455 215.431 287.25C215.933 288.036 216.183 289.002 216.183 290.148C216.183 291.265 215.899 292.264 215.331 293.145C214.763 294.026 213.949 294.722 212.888 295.233C211.827 295.744 210.558 296 209.081 296H198.797ZM201.979 292.932H209.081C210.236 292.932 211.141 292.657 211.794 292.108C212.448 291.559 212.774 290.811 212.774 289.864C212.774 288.737 212.448 287.851 211.794 287.207C211.141 286.554 210.236 286.227 209.081 286.227H201.979V292.932ZM201.979 283.33H207.718C208.617 283.33 209.389 283.206 210.033 282.96C210.677 282.705 211.169 282.345 211.51 281.881C211.861 281.407 212.036 280.848 212.036 280.205C212.036 279.286 211.652 278.566 210.885 278.045C210.118 277.515 209.062 277.25 207.718 277.25H201.979V283.33ZM233.66 283.557V286.682H221.615V283.557H233.66ZM222.41 274.182V296H219.058V274.182H222.41ZM236.217 274.182V296H232.865V274.182H236.217ZM249.003 296.455C247.033 296.455 245.305 295.986 243.818 295.048C242.341 294.111 241.186 292.799 240.352 291.114C239.528 289.428 239.117 287.458 239.117 285.205C239.117 282.932 239.528 280.948 240.352 279.253C241.186 277.558 242.341 276.241 243.818 275.304C245.305 274.366 247.033 273.898 249.003 273.898C250.973 273.898 252.696 274.366 254.173 275.304C255.66 276.241 256.815 277.558 257.639 279.253C258.473 280.948 258.889 282.932 258.889 285.205C258.889 287.458 258.473 289.428 257.639 291.114C256.815 292.799 255.66 294.111 254.173 295.048C252.696 295.986 250.973 296.455 249.003 296.455ZM249.003 293.443C250.499 293.443 251.73 293.06 252.696 292.293C253.662 291.526 254.377 290.517 254.841 289.267C255.305 288.017 255.537 286.663 255.537 285.205C255.537 283.746 255.305 282.387 254.841 281.128C254.377 279.868 253.662 278.85 252.696 278.074C251.73 277.297 250.499 276.909 249.003 276.909C247.507 276.909 246.276 277.297 245.31 278.074C244.344 278.85 243.629 279.868 243.165 281.128C242.701 282.387 242.469 283.746 242.469 285.205C242.469 286.663 242.701 288.017 243.165 289.267C243.629 290.517 244.344 291.526 245.31 292.293C246.276 293.06 247.507 293.443 249.003 293.443ZM270.67 296.455C268.625 296.455 266.863 295.972 265.386 295.006C263.909 294.04 262.772 292.709 261.977 291.014C261.181 289.319 260.784 287.383 260.784 285.205C260.784 282.989 261.191 281.033 262.005 279.338C262.829 277.634 263.975 276.303 265.443 275.347C266.92 274.381 268.644 273.898 270.613 273.898C272.147 273.898 273.53 274.182 274.761 274.75C275.992 275.318 277.001 276.114 277.787 277.136C278.573 278.159 279.06 279.352 279.25 280.716H275.897C275.642 279.722 275.074 278.841 274.193 278.074C273.322 277.297 272.147 276.909 270.67 276.909C269.363 276.909 268.217 277.25 267.233 277.932C266.257 278.604 265.495 279.556 264.946 280.787C264.406 282.009 264.136 283.443 264.136 285.091C264.136 286.777 264.401 288.244 264.931 289.494C265.471 290.744 266.229 291.715 267.204 292.406C268.189 293.098 269.344 293.443 270.67 293.443C271.541 293.443 272.332 293.292 273.042 292.989C273.752 292.686 274.354 292.25 274.846 291.682C275.339 291.114 275.689 290.432 275.897 289.636H279.25C279.06 290.924 278.592 292.084 277.843 293.116C277.105 294.139 276.125 294.954 274.903 295.56C273.691 296.156 272.28 296.455 270.67 296.455ZM280.231 277.307V274.182H297.959V277.307H290.8V296H287.447V277.307H280.231ZM303.546 282.08H309.796C312.353 282.08 314.309 282.728 315.663 284.026C317.017 285.323 317.694 286.966 317.694 288.955C317.694 290.261 317.391 291.45 316.785 292.52C316.179 293.58 315.289 294.428 314.115 295.062C312.94 295.688 311.501 296 309.796 296H300.649V274.182H304.001V292.875H309.796C311.122 292.875 312.211 292.525 313.063 291.824C313.916 291.123 314.342 290.223 314.342 289.125C314.342 287.97 313.916 287.027 313.063 286.298C312.211 285.569 311.122 285.205 309.796 285.205H303.546V282.08Z" fill="#D6F0FF"/>
<g clip-path="url(#clip2_727_1387)">
<rect x="794" y="194" width="320" height="174" rx="87" fill="#00141F"/>
<path d="M910.316 266L912.021 268.045C911.358 268.689 910.591 269.139 909.719 269.395C908.848 269.651 907.863 269.807 906.765 269.864C905.666 269.92 904.445 269.977 903.1 270.034C901.585 270.091 900.33 270.46 899.336 271.142C898.342 271.824 897.575 272.809 897.035 274.097C896.495 275.384 896.149 276.966 895.998 278.841H896.282C897.021 277.477 898.043 276.473 899.35 275.83C900.657 275.186 902.058 274.864 903.555 274.864C905.259 274.864 906.793 275.261 908.157 276.057C909.521 276.852 910.6 278.031 911.396 279.594C912.191 281.156 912.589 283.083 912.589 285.375C912.589 287.657 912.182 289.627 911.367 291.284C910.562 292.941 909.431 294.22 907.972 295.119C906.523 296.009 904.824 296.455 902.873 296.455C900.922 296.455 899.213 295.995 897.745 295.077C896.277 294.149 895.136 292.776 894.322 290.957C893.507 289.13 893.1 286.871 893.1 284.182V281.852C893.1 276.994 893.924 273.311 895.572 270.801C897.229 268.292 899.719 266.994 903.043 266.909C904.218 266.871 905.264 266.862 906.183 266.881C907.101 266.9 907.901 266.857 908.583 266.753C909.265 266.649 909.843 266.398 910.316 266ZM902.873 293.443C904.189 293.443 905.321 293.112 906.268 292.449C907.224 291.786 907.958 290.853 908.469 289.651C908.981 288.438 909.237 287.013 909.237 285.375C909.237 283.784 908.976 282.43 908.455 281.312C907.944 280.195 907.21 279.343 906.254 278.756C905.297 278.169 904.151 277.875 902.816 277.875C901.841 277.875 900.965 278.041 900.188 278.372C899.412 278.704 898.749 279.191 898.2 279.835C897.65 280.479 897.224 281.265 896.921 282.193C896.628 283.121 896.471 284.182 896.452 285.375C896.452 287.818 897.025 289.774 898.171 291.241C899.317 292.709 900.884 293.443 902.873 293.443ZM921.937 296.511C920.554 296.511 919.3 296.251 918.173 295.73C917.046 295.2 916.151 294.438 915.488 293.443C914.825 292.439 914.494 291.227 914.494 289.807C914.494 288.557 914.74 287.544 915.233 286.767C915.725 285.981 916.383 285.366 917.207 284.92C918.031 284.475 918.94 284.144 919.934 283.926C920.938 283.699 921.947 283.519 922.96 283.386C924.286 283.216 925.36 283.088 926.184 283.003C927.018 282.908 927.624 282.752 928.002 282.534C928.391 282.316 928.585 281.937 928.585 281.398V281.284C928.585 279.883 928.201 278.794 927.434 278.017C926.677 277.241 925.526 276.852 923.983 276.852C922.382 276.852 921.127 277.203 920.218 277.903C919.309 278.604 918.67 279.352 918.301 280.148L915.119 279.011C915.687 277.686 916.445 276.653 917.392 275.915C918.348 275.167 919.39 274.646 920.517 274.352C921.653 274.049 922.77 273.898 923.869 273.898C924.57 273.898 925.375 273.983 926.284 274.153C927.202 274.314 928.088 274.651 928.94 275.162C929.802 275.673 930.517 276.445 931.085 277.477C931.653 278.509 931.937 279.892 931.937 281.625V296H928.585V293.045H928.414C928.187 293.519 927.808 294.026 927.278 294.565C926.748 295.105 926.042 295.564 925.162 295.943C924.281 296.322 923.206 296.511 921.937 296.511ZM922.448 293.5C923.774 293.5 924.892 293.24 925.801 292.719C926.719 292.198 927.411 291.526 927.875 290.702C928.348 289.878 928.585 289.011 928.585 288.102V285.034C928.443 285.205 928.13 285.361 927.647 285.503C927.174 285.635 926.625 285.754 926 285.858C925.384 285.953 924.783 286.038 924.196 286.114C923.618 286.18 923.149 286.237 922.789 286.284C921.918 286.398 921.104 286.582 920.346 286.838C919.598 287.084 918.992 287.458 918.528 287.96C918.073 288.453 917.846 289.125 917.846 289.977C917.846 291.142 918.277 292.023 919.139 292.619C920.01 293.206 921.113 293.5 922.448 293.5ZM933.924 296V292.875H934.719C935.373 292.875 935.917 292.747 936.353 292.491C936.788 292.226 937.139 291.767 937.404 291.114C937.679 290.451 937.887 289.532 938.029 288.358C938.18 287.174 938.289 285.669 938.356 283.841L938.753 274.182H953.299V296H949.947V277.307H941.935L941.594 285.091C941.519 286.881 941.358 288.457 941.111 289.821C940.875 291.175 940.51 292.312 940.018 293.23C939.535 294.149 938.891 294.84 938.086 295.304C937.281 295.768 936.272 296 935.06 296H933.924ZM963.67 296.511C962.287 296.511 961.033 296.251 959.906 295.73C958.779 295.2 957.884 294.438 957.221 293.443C956.558 292.439 956.227 291.227 956.227 289.807C956.227 288.557 956.473 287.544 956.965 286.767C957.458 285.981 958.116 285.366 958.94 284.92C959.764 284.475 960.673 284.144 961.667 283.926C962.671 283.699 963.679 283.519 964.693 283.386C966.018 283.216 967.093 283.088 967.917 283.003C968.75 282.908 969.356 282.752 969.735 282.534C970.123 282.316 970.318 281.937 970.318 281.398V281.284C970.318 279.883 969.934 278.794 969.167 278.017C968.409 277.241 967.259 276.852 965.715 276.852C964.115 276.852 962.86 277.203 961.951 277.903C961.042 278.604 960.403 279.352 960.034 280.148L956.852 279.011C957.42 277.686 958.177 276.653 959.124 275.915C960.081 275.167 961.123 274.646 962.249 274.352C963.386 274.049 964.503 273.898 965.602 273.898C966.302 273.898 967.107 273.983 968.016 274.153C968.935 274.314 969.82 274.651 970.673 275.162C971.534 275.673 972.249 276.445 972.818 277.477C973.386 278.509 973.67 279.892 973.67 281.625V296H970.318V293.045H970.147C969.92 293.519 969.541 294.026 969.011 294.565C968.48 295.105 967.775 295.564 966.894 295.943C966.014 296.322 964.939 296.511 963.67 296.511ZM964.181 293.5C965.507 293.5 966.624 293.24 967.534 292.719C968.452 292.198 969.143 291.526 969.607 290.702C970.081 289.878 970.318 289.011 970.318 288.102V285.034C970.176 285.205 969.863 285.361 969.38 285.503C968.907 285.635 968.357 285.754 967.732 285.858C967.117 285.953 966.516 286.038 965.928 286.114C965.351 286.18 964.882 286.237 964.522 286.284C963.651 286.398 962.837 286.582 962.079 286.838C961.331 287.084 960.725 287.458 960.261 287.96C959.806 288.453 959.579 289.125 959.579 289.977C959.579 291.142 960.01 292.023 960.872 292.619C961.743 293.206 962.846 293.5 964.181 293.5ZM992.191 283.557V286.682H980.145V283.557H992.191ZM980.941 274.182V296H977.588V274.182H980.941ZM994.748 274.182V296H991.395V274.182H994.748ZM1007.53 296.455C1005.49 296.455 1003.73 295.972 1002.25 295.006C1000.77 294.04 999.636 292.709 998.84 291.014C998.045 289.319 997.647 287.383 997.647 285.205C997.647 282.989 998.054 281.033 998.869 279.338C999.692 277.634 1000.84 276.303 1002.31 275.347C1003.78 274.381 1005.51 273.898 1007.48 273.898C1009.01 273.898 1010.39 274.182 1011.62 274.75C1012.86 275.318 1013.86 276.114 1014.65 277.136C1015.44 278.159 1015.92 279.352 1016.11 280.716H1012.76C1012.5 279.722 1011.94 278.841 1011.06 278.074C1010.18 277.297 1009.01 276.909 1007.53 276.909C1006.23 276.909 1005.08 277.25 1004.1 277.932C1003.12 278.604 1002.36 279.556 1001.81 280.787C1001.27 282.009 1001 283.443 1001 285.091C1001 286.777 1001.26 288.244 1001.79 289.494C1002.33 290.744 1003.09 291.715 1004.07 292.406C1005.05 293.098 1006.21 293.443 1007.53 293.443C1008.4 293.443 1009.2 293.292 1009.91 292.989C1010.62 292.686 1011.22 292.25 1011.71 291.682C1012.2 291.114 1012.55 290.432 1012.76 289.636H1016.11C1015.92 290.924 1015.45 292.084 1014.71 293.116C1013.97 294.139 1012.99 294.954 1011.77 295.56C1010.55 296.156 1009.14 296.455 1007.53 296.455Z" fill="#D6F0FF"/>
</g>
<g clip-path="url(#clip3_727_1387)">
<path d="M454 354C454 344.715 454 340.072 454.206 336.15C458.224 259.482 519.482 198.224 596.15 194.206C600.072 194 604.715 194 614 194C623.285 194 627.928 194 631.85 194.206C708.518 198.224 769.776 259.482 773.794 336.15C774 340.072 774 344.715 774 354V362.387C774 362.956 774 363.241 773.977 363.481C773.747 365.862 771.862 367.747 769.481 367.977C769.241 368 768.956 368 768.387 368H459.613C459.044 368 458.759 368 458.519 367.977C456.138 367.747 454.253 365.862 454.023 363.481C454 363.241 454 362.956 454 362.387V354Z" fill="#00141F"/>
<path d="M555.295 304.182V274.182H558.533V277.648H558.931C559.177 277.269 559.518 276.786 559.954 276.199C560.399 275.602 561.033 275.072 561.857 274.608C562.691 274.134 563.817 273.898 565.238 273.898C567.075 273.898 568.694 274.357 570.096 275.276C571.497 276.194 572.591 277.496 573.377 279.182C574.163 280.867 574.556 282.856 574.556 285.148C574.556 287.458 574.163 289.461 573.377 291.156C572.591 292.842 571.502 294.149 570.11 295.077C568.718 295.995 567.113 296.455 565.295 296.455C563.893 296.455 562.771 296.223 561.928 295.759C561.085 295.285 560.437 294.75 559.982 294.153C559.528 293.547 559.177 293.045 558.931 292.648H558.647V304.182H555.295ZM558.59 285.091C558.59 286.739 558.832 288.192 559.315 289.452C559.798 290.702 560.503 291.682 561.431 292.392C562.359 293.093 563.496 293.443 564.84 293.443C566.242 293.443 567.411 293.074 568.349 292.335C569.296 291.587 570.006 290.583 570.479 289.324C570.962 288.055 571.204 286.644 571.204 285.091C571.204 283.557 570.967 282.174 570.494 280.943C570.03 279.703 569.324 278.723 568.377 278.003C567.44 277.274 566.261 276.909 564.84 276.909C563.477 276.909 562.331 277.255 561.403 277.946C560.475 278.628 559.774 279.584 559.3 280.815C558.827 282.037 558.59 283.462 558.59 285.091ZM583.89 296.511C582.508 296.511 581.253 296.251 580.126 295.73C578.999 295.2 578.104 294.438 577.441 293.443C576.778 292.439 576.447 291.227 576.447 289.807C576.447 288.557 576.693 287.544 577.186 286.767C577.678 285.981 578.336 285.366 579.16 284.92C579.984 284.475 580.893 284.144 581.887 283.926C582.891 283.699 583.9 283.519 584.913 283.386C586.239 283.216 587.313 283.088 588.137 283.003C588.971 282.908 589.577 282.752 589.956 282.534C590.344 282.316 590.538 281.937 590.538 281.398V281.284C590.538 279.883 590.154 278.794 589.387 278.017C588.63 277.241 587.479 276.852 585.936 276.852C584.335 276.852 583.081 277.203 582.171 277.903C581.262 278.604 580.623 279.352 580.254 280.148L577.072 279.011C577.64 277.686 578.398 276.653 579.345 275.915C580.301 275.167 581.343 274.646 582.47 274.352C583.606 274.049 584.724 273.898 585.822 273.898C586.523 273.898 587.328 273.983 588.237 274.153C589.155 274.314 590.041 274.651 590.893 275.162C591.755 275.673 592.47 276.445 593.038 277.477C593.606 278.509 593.89 279.892 593.89 281.625V296H590.538V293.045H590.367C590.14 293.519 589.761 294.026 589.231 294.565C588.701 295.105 587.995 295.564 587.115 295.943C586.234 296.322 585.159 296.511 583.89 296.511ZM584.402 293.5C585.727 293.5 586.845 293.24 587.754 292.719C588.672 292.198 589.364 291.526 589.828 290.702C590.301 289.878 590.538 289.011 590.538 288.102V285.034C590.396 285.205 590.083 285.361 589.6 285.503C589.127 285.635 588.578 285.754 587.953 285.858C587.337 285.953 586.736 286.038 586.149 286.114C585.571 286.18 585.102 286.237 584.742 286.284C583.871 286.398 583.057 286.582 582.299 286.838C581.551 287.084 580.945 287.458 580.481 287.96C580.027 288.453 579.799 289.125 579.799 289.977C579.799 291.142 580.23 292.023 581.092 292.619C581.963 293.206 583.066 293.5 584.402 293.5ZM614.002 266L615.707 268.045C615.044 268.689 614.277 269.139 613.405 269.395C612.534 269.651 611.549 269.807 610.451 269.864C609.352 269.92 608.131 269.977 606.786 270.034C605.271 270.091 604.016 270.46 603.022 271.142C602.028 271.824 601.261 272.809 600.721 274.097C600.181 275.384 599.835 276.966 599.684 278.841H599.968C600.707 277.477 601.729 276.473 603.036 275.83C604.343 275.186 605.744 274.864 607.241 274.864C608.945 274.864 610.479 275.261 611.843 276.057C613.207 276.852 614.286 278.031 615.082 279.594C615.877 281.156 616.275 283.083 616.275 285.375C616.275 287.657 615.868 289.627 615.053 291.284C614.248 292.941 613.117 294.22 611.658 295.119C610.209 296.009 608.51 296.455 606.559 296.455C604.608 296.455 602.899 295.995 601.431 295.077C599.963 294.149 598.822 292.776 598.008 290.957C597.193 289.13 596.786 286.871 596.786 284.182V281.852C596.786 276.994 597.61 273.311 599.258 270.801C600.915 268.292 603.405 266.994 606.729 266.909C607.904 266.871 608.95 266.862 609.868 266.881C610.787 266.9 611.587 266.857 612.269 266.753C612.951 266.649 613.529 266.398 614.002 266ZM606.559 293.443C607.875 293.443 609.007 293.112 609.954 292.449C610.91 291.786 611.644 290.853 612.155 289.651C612.667 288.438 612.922 287.013 612.922 285.375C612.922 283.784 612.662 282.43 612.141 281.312C611.63 280.195 610.896 279.343 609.939 278.756C608.983 278.169 607.837 277.875 606.502 277.875C605.527 277.875 604.651 278.041 603.874 278.372C603.098 278.704 602.435 279.191 601.886 279.835C601.336 280.479 600.91 281.265 600.607 282.193C600.314 283.121 600.157 284.182 600.138 285.375C600.138 287.818 600.711 289.774 601.857 291.241C603.003 292.709 604.57 293.443 606.559 293.443ZM628.066 296.455C626.096 296.455 624.368 295.986 622.882 295.048C621.404 294.111 620.249 292.799 619.416 291.114C618.592 289.428 618.18 287.458 618.18 285.205C618.18 282.932 618.592 280.948 619.416 279.253C620.249 277.558 621.404 276.241 622.882 275.304C624.368 274.366 626.096 273.898 628.066 273.898C630.036 273.898 631.759 274.366 633.237 275.304C634.723 276.241 635.879 277.558 636.703 279.253C637.536 280.948 637.953 282.932 637.953 285.205C637.953 287.458 637.536 289.428 636.703 291.114C635.879 292.799 634.723 294.111 633.237 295.048C631.759 295.986 630.036 296.455 628.066 296.455ZM628.066 293.443C629.562 293.443 630.793 293.06 631.759 292.293C632.725 291.526 633.44 290.517 633.904 289.267C634.368 288.017 634.6 286.663 634.6 285.205C634.6 283.746 634.368 282.387 633.904 281.128C633.44 279.868 632.725 278.85 631.759 278.074C630.793 277.297 629.562 276.909 628.066 276.909C626.57 276.909 625.339 277.297 624.373 278.074C623.407 278.85 622.692 279.868 622.228 281.128C621.764 282.387 621.532 283.746 621.532 285.205C621.532 286.663 621.764 288.017 622.228 289.267C622.692 290.517 623.407 291.526 624.373 292.293C625.339 293.06 626.57 293.443 628.066 293.443ZM638.018 277.307V274.182H655.745V277.307H648.586V296H645.234V277.307H638.018ZM663.723 296.511C662.34 296.511 661.086 296.251 659.959 295.73C658.832 295.2 657.937 294.438 657.274 293.443C656.611 292.439 656.28 291.227 656.28 289.807C656.28 288.557 656.526 287.544 657.018 286.767C657.511 285.981 658.169 285.366 658.993 284.92C659.817 284.475 660.726 284.144 661.72 283.926C662.724 283.699 663.732 283.519 664.746 283.386C666.071 283.216 667.146 283.088 667.97 283.003C668.804 282.908 669.41 282.752 669.788 282.534C670.177 282.316 670.371 281.937 670.371 281.398V281.284C670.371 279.883 669.987 278.794 669.22 278.017C668.463 277.241 667.312 276.852 665.768 276.852C664.168 276.852 662.913 277.203 662.004 277.903C661.095 278.604 660.456 279.352 660.087 280.148L656.905 279.011C657.473 277.686 658.231 276.653 659.178 275.915C660.134 275.167 661.176 274.646 662.303 274.352C663.439 274.049 664.556 273.898 665.655 273.898C666.356 273.898 667.161 273.983 668.07 274.153C668.988 274.314 669.874 274.651 670.726 275.162C671.588 275.673 672.303 276.445 672.871 277.477C673.439 278.509 673.723 279.892 673.723 281.625V296H670.371V293.045H670.2C669.973 293.519 669.594 294.026 669.064 294.565C668.534 295.105 667.828 295.564 666.947 295.943C666.067 296.322 664.992 296.511 663.723 296.511ZM664.234 293.5C665.56 293.5 666.678 293.24 667.587 292.719C668.505 292.198 669.196 291.526 669.661 290.702C670.134 289.878 670.371 289.011 670.371 288.102V285.034C670.229 285.205 669.916 285.361 669.433 285.503C668.96 285.635 668.411 285.754 667.786 285.858C667.17 285.953 666.569 286.038 665.982 286.114C665.404 286.18 664.935 286.237 664.575 286.284C663.704 286.398 662.89 286.582 662.132 286.838C661.384 287.084 660.778 287.458 660.314 287.96C659.859 288.453 659.632 289.125 659.632 289.977C659.632 291.142 660.063 292.023 660.925 292.619C661.796 293.206 662.899 293.5 664.234 293.5Z" fill="#D6F0FF"/>
</g>
<defs>
<clipPath id="clip0_727_1387">
<rect x="1" y="383" width="1113" height="174" rx="87" fill="white"/>
</clipPath>
<clipPath id="clip1_727_1387">
<rect x="1" width="1114" height="174" rx="87" fill="white"/>
</clipPath>
<clipPath id="clip2_727_1387">
<rect x="794" y="194" width="320" height="174" rx="87" fill="white"/>
</clipPath>
<clipPath id="clip3_727_1387">
<path d="M454 354C454 344.715 454 340.072 454.206 336.15C458.224 259.482 519.482 198.224 596.15 194.206C600.072 194 604.715 194 614 194C623.285 194 627.928 194 631.85 194.206C708.518 198.224 769.776 259.482 773.794 336.15C774 340.072 774 344.715 774 354V362.387C774 362.956 774 363.241 773.977 363.481C773.747 365.862 771.862 367.747 769.481 367.977C769.241 368 768.956 368 768.387 368H459.613C459.044 368 458.759 368 458.519 367.977C456.138 367.747 454.253 365.862 454.023 363.481C454 363.241 454 362.956 454 362.387V354Z" fill="white"/>
</clipPath>
</defs>
</svg>
