<svg width="1113" height="520" viewBox="0 0 1113 520" fill="none" xmlns="http://www.w3.org/2000/svg">
<path d="M1.49148 8.70455C1.49148 7.4517 1.65388 6.29995 1.97869 5.24929C2.30682 4.19531 2.77415 3.22585 3.38068 2.34091H4.41477C4.17614 2.66903 3.95241 3.07339 3.74361 3.55398C3.53812 4.03125 3.35748 4.55658 3.2017 5.12997C3.04593 5.70005 2.9233 6.29001 2.83381 6.89986C2.74763 7.50971 2.70455 8.11127 2.70455 8.70455C2.70455 9.49337 2.78078 10.2938 2.93324 11.1058C3.0857 11.9179 3.29119 12.6719 3.54972 13.3679C3.80824 14.0639 4.09659 14.6307 4.41477 15.0682H3.38068C2.77415 14.1832 2.30682 13.2154 1.97869 12.1648C1.65388 11.1108 1.49148 9.95739 1.49148 8.70455ZM8.80434 13.1591C8.11495 13.1591 7.51007 12.995 6.98971 12.6669C6.47266 12.3388 6.06831 11.8797 5.77664 11.2898C5.48829 10.6998 5.34411 10.0104 5.34411 9.22159C5.34411 8.42614 5.48829 7.73177 5.77664 7.13849C6.06831 6.54522 6.47266 6.08452 6.98971 5.75639C7.51007 5.42827 8.11495 5.2642 8.80434 5.2642C9.49373 5.2642 10.097 5.42827 10.614 5.75639C11.1344 6.08452 11.5387 6.54522 11.8271 7.13849C12.1187 7.73177 12.2646 8.42614 12.2646 9.22159C12.2646 10.0104 12.1187 10.6998 11.8271 11.2898C11.5387 11.8797 11.1344 12.3388 10.614 12.6669C10.097 12.995 9.49373 13.1591 8.80434 13.1591ZM8.80434 12.1051C9.32801 12.1051 9.75888 11.9709 10.097 11.7024C10.435 11.4339 10.6853 11.081 10.8477 10.6435C11.0101 10.206 11.0913 9.73201 11.0913 9.22159C11.0913 8.71117 11.0101 8.23556 10.8477 7.79474C10.6853 7.35393 10.435 6.99763 10.097 6.72585C9.75888 6.45407 9.32801 6.31818 8.80434 6.31818C8.28067 6.31818 7.84979 6.45407 7.51173 6.72585C7.17366 6.99763 6.92342 7.35393 6.76102 7.79474C6.59861 8.23556 6.51741 8.71117 6.51741 9.22159C6.51741 9.73201 6.59861 10.206 6.76102 10.6435C6.92342 11.081 7.17366 11.4339 7.51173 11.7024C7.84979 11.9709 8.28067 12.1051 8.80434 12.1051ZM13.7756 13V5.36364H14.9489V8.68466H15.7244L18.4688 5.36364H19.9801L16.8977 9.04261L20.0199 13H18.5085L16.0029 9.77841H14.9489V13H13.7756ZM26.1259 8.64489V9.73864H21.91V8.64489H26.1259ZM22.1884 5.36364V13H21.0151V5.36364H22.1884ZM27.0208 5.36364V13H25.8475V5.36364H27.0208ZM31.9858 13.1591C31.2964 13.1591 30.6916 12.995 30.1712 12.6669C29.6541 12.3388 29.2498 11.8797 28.9581 11.2898C28.6698 10.6998 28.5256 10.0104 28.5256 9.22159C28.5256 8.42614 28.6698 7.73177 28.9581 7.13849C29.2498 6.54522 29.6541 6.08452 30.1712 5.75639C30.6916 5.42827 31.2964 5.2642 31.9858 5.2642C32.6752 5.2642 33.2784 5.42827 33.7955 5.75639C34.3158 6.08452 34.7202 6.54522 35.0086 7.13849C35.3002 7.73177 35.4461 8.42614 35.4461 9.22159C35.4461 10.0104 35.3002 10.6998 35.0086 11.2898C34.7202 11.8797 34.3158 12.3388 33.7955 12.6669C33.2784 12.995 32.6752 13.1591 31.9858 13.1591ZM31.9858 12.1051C32.5095 12.1051 32.9404 11.9709 33.2784 11.7024C33.6165 11.4339 33.8667 11.081 34.0291 10.6435C34.1916 10.206 34.2728 9.73201 34.2728 9.22159C34.2728 8.71117 34.1916 8.23556 34.0291 7.79474C33.8667 7.35393 33.6165 6.99763 33.2784 6.72585C32.9404 6.45407 32.5095 6.31818 31.9858 6.31818C31.4621 6.31818 31.0313 6.45407 30.6932 6.72585C30.3551 6.99763 30.1049 7.35393 29.9425 7.79474C29.7801 8.23556 29.6989 8.71117 29.6989 9.22159C29.6989 9.73201 29.7801 10.206 29.9425 10.6435C30.1049 11.081 30.3551 11.4339 30.6932 11.7024C31.0313 11.9709 31.4621 12.1051 31.9858 12.1051ZM41.3321 8.08807V9.18182H36.8775V8.08807H41.3321ZM44.2898 11.2699L47.9688 5.36364H49.3211V13H48.1478V7.09375L44.4887 13H43.1165V5.36364H44.2898V11.2699ZM50.5139 13V11.9062H50.7923C51.021 11.9062 51.2116 11.8615 51.364 11.772C51.5165 11.6792 51.6391 11.5185 51.7319 11.2898C51.8281 11.0578 51.901 10.7363 51.9507 10.3253C52.0037 9.91098 52.0418 9.384 52.065 8.74432L52.2042 5.36364H57.2952V13H56.1219V6.45739H53.3179L53.1986 9.18182C53.172 9.80824 53.1157 10.3601 53.0295 10.8374C52.9467 11.3113 52.8191 11.709 52.6467 12.0305C52.4777 12.352 52.2523 12.594 51.9706 12.7564C51.6889 12.9188 51.3359 13 50.9116 13H50.5139ZM58.4917 13V11.9062H58.7701C58.9988 11.9062 59.1894 11.8615 59.3419 11.772C59.4943 11.6792 59.6169 11.5185 59.7097 11.2898C59.8059 11.0578 59.8788 10.7363 59.9285 10.3253C59.9815 9.91098 60.0196 9.384 60.0428 8.74432L60.1821 5.36364H65.273V13H64.0997V6.45739H61.2957L61.1764 9.18182C61.1499 9.80824 61.0935 10.3601 61.0073 10.8374C60.9245 11.3113 60.7969 11.709 60.6245 12.0305C60.4555 12.352 60.2301 12.594 59.9484 12.7564C59.6667 12.9188 59.3137 13 58.8894 13H58.4917ZM70.8048 8.70455V9.7983H66.7678V8.70455H70.8048ZM67.7621 5.36364V13H66.5888V5.36364H67.7621ZM73.1513 13.1591C72.462 13.1591 71.8571 12.995 71.3367 12.6669C70.8197 12.3388 70.4153 11.8797 70.1236 11.2898C69.8353 10.6998 69.6911 10.0104 69.6911 9.22159C69.6911 8.42614 69.8353 7.73177 70.1236 7.13849C70.4153 6.54522 70.8197 6.08452 71.3367 5.75639C71.8571 5.42827 72.462 5.2642 73.1513 5.2642C73.8407 5.2642 74.444 5.42827 74.961 5.75639C75.4814 6.08452 75.8857 6.54522 76.1741 7.13849C76.4657 7.73177 76.6116 8.42614 76.6116 9.22159C76.6116 10.0104 76.4657 10.6998 76.1741 11.2898C75.8857 11.8797 75.4814 12.3388 74.961 12.6669C74.444 12.995 73.8407 13.1591 73.1513 13.1591ZM73.1513 12.1051C73.675 12.1051 74.1059 11.9709 74.444 11.7024C74.782 11.4339 75.0323 11.081 75.1947 10.6435C75.3571 10.206 75.4383 9.73201 75.4383 9.22159C75.4383 8.71117 75.3571 8.23556 75.1947 7.79474C75.0323 7.35393 74.782 6.99763 74.444 6.72585C74.1059 6.45407 73.675 6.31818 73.1513 6.31818C72.6277 6.31818 72.1968 6.45407 71.8587 6.72585C71.5207 6.99763 71.2704 7.35393 71.108 7.79474C70.9456 8.23556 70.8644 8.71117 70.8644 9.22159C70.8644 9.73201 70.9456 10.206 71.108 10.6435C71.2704 11.081 71.5207 11.4339 71.8587 11.7024C72.1968 11.9709 72.6277 12.1051 73.1513 12.1051ZM82.4168 11.4091L85.0816 5.36364H86.1952L82.8941 13H81.9395L78.698 5.36364H79.7918L82.4168 11.4091ZM79.414 5.36364V13H78.2407V5.36364H79.414ZM85.4196 13V5.36364H86.5929V13H85.4196ZM89.634 11.2699L93.3129 5.36364H94.6652V13H93.4919V7.09375L89.8328 13H88.4607V5.36364H89.634V11.2699ZM101.645 8.64489V9.73864H97.4291V8.64489H101.645ZM97.7075 5.36364V13H96.5342V5.36364H97.7075ZM102.54 5.36364V13H101.367V5.36364H102.54ZM106.65 13.179C106.166 13.179 105.727 13.0878 105.332 12.9055C104.938 12.7199 104.625 12.4531 104.393 12.1051C104.161 11.7538 104.045 11.3295 104.045 10.8324C104.045 10.3949 104.131 10.0402 104.303 9.76847C104.476 9.49337 104.706 9.27794 104.994 9.12216C105.283 8.96638 105.601 8.85038 105.949 8.77415C106.3 8.6946 106.653 8.63163 107.008 8.58523C107.472 8.52557 107.848 8.48082 108.136 8.45099C108.428 8.41785 108.64 8.36316 108.773 8.28693C108.909 8.2107 108.976 8.07812 108.976 7.8892V7.84943C108.976 7.3589 108.842 6.97775 108.574 6.70597C108.309 6.43419 107.906 6.2983 107.366 6.2983C106.806 6.2983 106.366 6.42093 106.048 6.66619C105.73 6.91146 105.506 7.1733 105.377 7.4517L104.263 7.05398C104.462 6.58996 104.727 6.22869 105.059 5.97017C105.394 5.70833 105.758 5.52604 106.153 5.4233C106.55 5.31723 106.941 5.2642 107.326 5.2642C107.571 5.2642 107.853 5.29403 108.171 5.35369C108.493 5.41004 108.802 5.5277 109.101 5.70668C109.402 5.88565 109.653 6.15578 109.851 6.51705C110.05 6.87831 110.15 7.36222 110.15 7.96875V13H108.976V11.9659H108.917C108.837 12.1316 108.705 12.3089 108.519 12.4979C108.333 12.6868 108.087 12.8475 107.778 12.9801C107.47 13.1127 107.094 13.179 106.65 13.179ZM106.829 12.125C107.293 12.125 107.684 12.0339 108.002 11.8516C108.324 11.6693 108.565 11.4339 108.728 11.1456C108.894 10.8572 108.976 10.554 108.976 10.2358V9.16193C108.927 9.22159 108.817 9.27628 108.648 9.32599C108.483 9.3724 108.29 9.41383 108.072 9.45028C107.856 9.48343 107.646 9.51326 107.44 9.53977C107.238 9.56297 107.074 9.58286 106.948 9.59943C106.643 9.6392 106.358 9.70384 106.093 9.79332C105.831 9.8795 105.619 10.0104 105.457 10.1861C105.298 10.3584 105.218 10.5937 105.218 10.892C105.218 11.2997 105.369 11.608 105.67 11.8168C105.975 12.0223 106.361 12.125 106.829 12.125ZM110.972 6.45739V5.36364H117.177V6.45739H114.671V13H113.498V6.45739H110.972ZM121.314 13.1591C120.625 13.1591 120.02 12.995 119.499 12.6669C118.982 12.3388 118.578 11.8797 118.286 11.2898C117.998 10.6998 117.854 10.0104 117.854 9.22159C117.854 8.42614 117.998 7.73177 118.286 7.13849C118.578 6.54522 118.982 6.08452 119.499 5.75639C120.02 5.42827 120.625 5.2642 121.314 5.2642C122.003 5.2642 122.607 5.42827 123.124 5.75639C123.644 6.08452 124.048 6.54522 124.337 7.13849C124.628 7.73177 124.774 8.42614 124.774 9.22159C124.774 10.0104 124.628 10.6998 124.337 11.2898C124.048 11.8797 123.644 12.3388 123.124 12.6669C122.607 12.995 122.003 13.1591 121.314 13.1591ZM121.314 12.1051C121.838 12.1051 122.269 11.9709 122.607 11.7024C122.945 11.4339 123.195 11.081 123.357 10.6435C123.52 10.206 123.601 9.73201 123.601 9.22159C123.601 8.71117 123.52 8.23556 123.357 7.79474C123.195 7.35393 122.945 6.99763 122.607 6.72585C122.269 6.45407 121.838 6.31818 121.314 6.31818C120.79 6.31818 120.359 6.45407 120.021 6.72585C119.683 6.99763 119.433 7.35393 119.271 7.79474C119.108 8.23556 119.027 8.71117 119.027 9.22159C119.027 9.73201 119.108 10.206 119.271 10.6435C119.433 11.081 119.683 11.4339 120.021 11.7024C120.359 11.9709 120.79 12.1051 121.314 12.1051ZM126.285 15.8636V5.36364H127.419V6.5767H127.558C127.644 6.44413 127.763 6.27509 127.916 6.0696C128.072 5.8608 128.294 5.67519 128.582 5.51278C128.874 5.34706 129.268 5.2642 129.765 5.2642C130.408 5.2642 130.975 5.42495 131.466 5.74645C131.956 6.06794 132.339 6.52367 132.614 7.11364C132.889 7.7036 133.027 8.39962 133.027 9.2017C133.027 10.0104 132.889 10.7114 132.614 11.3047C132.339 11.8946 131.958 12.352 131.471 12.6768C130.983 12.9983 130.422 13.1591 129.785 13.1591C129.295 13.1591 128.902 13.0779 128.607 12.9155C128.312 12.7498 128.085 12.5625 127.926 12.3537C127.767 12.1416 127.644 11.9659 127.558 11.8267H127.459V15.8636H126.285ZM127.439 9.18182C127.439 9.75852 127.523 10.2673 127.692 10.7081C127.861 11.1456 128.108 11.4886 128.433 11.7372C128.758 11.9825 129.156 12.1051 129.626 12.1051C130.117 12.1051 130.526 11.9759 130.854 11.7173C131.186 11.4555 131.434 11.1042 131.6 10.6634C131.769 10.2192 131.853 9.72538 131.853 9.18182C131.853 8.64489 131.771 8.16098 131.605 7.73011C131.442 7.29593 131.196 6.95289 130.864 6.70099C130.536 6.44579 130.123 6.31818 129.626 6.31818C129.149 6.31818 128.748 6.43916 128.423 6.68111C128.098 6.91974 127.853 7.2545 127.687 7.68537C127.522 8.11293 127.439 8.61174 127.439 9.18182ZM136.878 8.70455C136.878 9.95739 136.714 11.1108 136.386 12.1648C136.061 13.2154 135.595 14.1832 134.989 15.0682H133.955C134.193 14.7401 134.416 14.3357 134.621 13.8551C134.83 13.3778 135.012 12.8542 135.168 12.2841C135.324 11.7107 135.445 11.1191 135.531 10.5092C135.62 9.89607 135.665 9.29451 135.665 8.70455C135.665 7.91572 135.589 7.11529 135.436 6.30327C135.284 5.49124 135.078 4.73722 134.82 4.04119C134.561 3.34517 134.273 2.77841 133.955 2.34091H134.989C135.595 3.22585 136.061 4.19531 136.386 5.24929C136.714 6.29995 136.878 7.4517 136.878 8.70455Z" fill="#00141F"/>
<path d="M1.49148 293.705C1.49148 292.452 1.65388 291.3 1.97869 290.249C2.30682 289.195 2.77415 288.226 3.38068 287.341H4.41477C4.17614 287.669 3.95241 288.073 3.74361 288.554C3.53812 289.031 3.35748 289.557 3.2017 290.13C3.04593 290.7 2.9233 291.29 2.83381 291.9C2.74763 292.51 2.70455 293.111 2.70455 293.705C2.70455 294.493 2.78078 295.294 2.93324 296.106C3.0857 296.918 3.29119 297.672 3.54972 298.368C3.80824 299.064 4.09659 299.631 4.41477 300.068H3.38068C2.77415 299.183 2.30682 298.215 1.97869 297.165C1.65388 296.111 1.49148 294.957 1.49148 293.705ZM5.86613 298V290.364H11.8718V298H10.6985V291.457H7.03942V298H5.86613ZM13.7346 300.864V290.364H14.8681V291.577H15.0073C15.0935 291.444 15.2128 291.275 15.3652 291.07C15.521 290.861 15.7431 290.675 16.0314 290.513C16.3231 290.347 16.7175 290.264 17.2147 290.264C17.8577 290.264 18.4244 290.425 18.915 290.746C19.4055 291.068 19.7883 291.524 20.0634 292.114C20.3385 292.704 20.476 293.4 20.476 294.202C20.476 295.01 20.3385 295.711 20.0634 296.305C19.7883 296.895 19.4072 297.352 18.9199 297.677C18.4327 297.998 17.8709 298.159 17.2346 298.159C16.744 298.159 16.3513 298.078 16.0563 297.915C15.7613 297.75 15.5343 297.562 15.3752 297.354C15.2161 297.142 15.0935 296.966 15.0073 296.827H14.9079V300.864H13.7346ZM14.888 294.182C14.888 294.759 14.9725 295.267 15.1415 295.708C15.3106 296.146 15.5575 296.489 15.8823 296.737C16.2071 296.982 16.6048 297.105 17.0755 297.105C17.566 297.105 17.9753 296.976 18.3035 296.717C18.6349 296.455 18.8835 296.104 19.0492 295.663C19.2182 295.219 19.3027 294.725 19.3027 294.182C19.3027 293.645 19.2199 293.161 19.0542 292.73C18.8918 292.296 18.6448 291.953 18.3134 291.701C17.9853 291.446 17.5726 291.318 17.0755 291.318C16.5982 291.318 16.1972 291.439 15.8724 291.681C15.5475 291.92 15.3023 292.254 15.1366 292.685C14.9708 293.113 14.888 293.612 14.888 294.182ZM26.5796 298V291.438H24.5512C24.0938 291.438 23.7342 291.544 23.4723 291.756C23.2105 291.968 23.0796 292.259 23.0796 292.631C23.0796 292.995 23.1972 293.282 23.4325 293.491C23.6712 293.7 23.9977 293.804 24.412 293.804H26.8779V294.898H24.412C23.8949 294.898 23.4491 294.807 23.0746 294.624C22.7001 294.442 22.4117 294.182 22.2095 293.844C22.0074 293.502 21.9063 293.098 21.9063 292.631C21.9063 292.16 22.0123 291.756 22.2245 291.418C22.4366 291.08 22.7398 290.819 23.1343 290.637C23.532 290.455 24.0043 290.364 24.5512 290.364H27.6932V298H26.5796ZM21.4887 298L23.6563 294.202H24.929L22.7614 298H21.4887ZM33.7433 296.409L36.4081 290.364H37.5217L34.2206 298H33.266L30.0245 290.364H31.1183L33.7433 296.409ZM30.7404 290.364V298H29.5671V290.364H30.7404ZM36.7461 298V290.364H37.9194V298H36.7461ZM42.8894 298.159C42.2 298.159 41.5951 297.995 41.0748 297.667C40.5577 297.339 40.1534 296.88 39.8617 296.29C39.5734 295.7 39.4292 295.01 39.4292 294.222C39.4292 293.426 39.5734 292.732 39.8617 292.138C40.1534 291.545 40.5577 291.085 41.0748 290.756C41.5951 290.428 42.2 290.264 42.8894 290.264C43.5788 290.264 44.182 290.428 44.6991 290.756C45.2194 291.085 45.6238 291.545 45.9121 292.138C46.2038 292.732 46.3496 293.426 46.3496 294.222C46.3496 295.01 46.2038 295.7 45.9121 296.29C45.6238 296.88 45.2194 297.339 44.6991 297.667C44.182 297.995 43.5788 298.159 42.8894 298.159ZM42.8894 297.105C43.4131 297.105 43.844 296.971 44.182 296.702C44.5201 296.434 44.7703 296.081 44.9327 295.643C45.0951 295.206 45.1763 294.732 45.1763 294.222C45.1763 293.711 45.0951 293.236 44.9327 292.795C44.7703 292.354 44.5201 291.998 44.182 291.726C43.844 291.454 43.4131 291.318 42.8894 291.318C42.3657 291.318 41.9349 291.454 41.5968 291.726C41.2587 291.998 41.0085 292.354 40.8461 292.795C40.6837 293.236 40.6025 293.711 40.6025 294.222C40.6025 294.732 40.6837 295.206 40.8461 295.643C41.0085 296.081 41.2587 296.434 41.5968 296.702C41.9349 296.971 42.3657 297.105 42.8894 297.105ZM48.3429 300.864C48.144 300.864 47.9667 300.847 47.8109 300.814C47.6552 300.784 47.5475 300.754 47.4878 300.724L47.7861 299.69C48.0711 299.763 48.323 299.79 48.5418 299.77C48.7605 299.75 48.9544 299.652 49.1234 299.477C49.2958 299.304 49.4532 299.024 49.5957 298.636L49.8145 298.04L46.9906 290.364H48.2634L50.3713 296.449H50.4509L52.5588 290.364H53.8315L50.5901 299.114C50.4442 299.508 50.2636 299.835 50.0482 300.093C49.8327 300.355 49.5825 300.549 49.2975 300.675C49.0157 300.801 48.6975 300.864 48.3429 300.864ZM59.8133 290.364V291.457H56.2735V298H55.1002V290.364H59.8133ZM63.9518 298.159C63.2624 298.159 62.6575 297.995 62.1371 297.667C61.6201 297.339 61.2157 296.88 60.9241 296.29C60.6357 295.7 60.4915 295.01 60.4915 294.222C60.4915 293.426 60.6357 292.732 60.9241 292.138C61.2157 291.545 61.6201 291.085 62.1371 290.756C62.6575 290.428 63.2624 290.264 63.9518 290.264C64.6412 290.264 65.2444 290.428 65.7614 290.756C66.2818 291.085 66.6861 291.545 66.9745 292.138C67.2662 292.732 67.412 293.426 67.412 294.222C67.412 295.01 67.2662 295.7 66.9745 296.29C66.6861 296.88 66.2818 297.339 65.7614 297.667C65.2444 297.995 64.6412 298.159 63.9518 298.159ZM63.9518 297.105C64.4754 297.105 64.9063 296.971 65.2444 296.702C65.5824 296.434 65.8327 296.081 65.9951 295.643C66.1575 295.206 66.2387 294.732 66.2387 294.222C66.2387 293.711 66.1575 293.236 65.9951 292.795C65.8327 292.354 65.5824 291.998 65.2444 291.726C64.9063 291.454 64.4754 291.318 63.9518 291.318C63.4281 291.318 62.9972 291.454 62.6591 291.726C62.3211 291.998 62.0708 292.354 61.9084 292.795C61.746 293.236 61.6648 293.711 61.6648 294.222C61.6648 294.732 61.746 295.206 61.9084 295.643C62.0708 296.081 62.3211 296.434 62.6591 296.702C62.9972 296.971 63.4281 297.105 63.9518 297.105ZM68.2469 298V296.906H68.5253C68.754 296.906 68.9446 296.862 69.097 296.772C69.2495 296.679 69.3721 296.518 69.4649 296.29C69.561 296.058 69.6339 295.736 69.6837 295.325C69.7367 294.911 69.7748 294.384 69.798 293.744L69.9372 290.364H75.0281V298H73.8548V291.457H71.0508L70.9315 294.182C70.905 294.808 70.8487 295.36 70.7625 295.837C70.6796 296.311 70.552 296.709 70.3797 297.031C70.2106 297.352 69.9853 297.594 69.7035 297.756C69.4218 297.919 69.0688 298 68.6446 298H68.2469ZM77.915 293.128H80.1025C80.9974 293.128 81.6818 293.355 82.1558 293.809C82.6297 294.263 82.8667 294.838 82.8667 295.534C82.8667 295.991 82.7607 296.407 82.5485 296.782C82.3364 297.153 82.0249 297.45 81.6139 297.672C81.2029 297.891 80.6991 298 80.1025 298H76.9008V290.364H78.0741V296.906H80.1025C80.5665 296.906 80.9477 296.784 81.246 296.538C81.5443 296.293 81.6934 295.978 81.6934 295.594C81.6934 295.189 81.5443 294.86 81.246 294.604C80.9477 294.349 80.5665 294.222 80.1025 294.222H77.915V293.128ZM89.4836 293.645V294.739H85.2677V293.645H89.4836ZM85.5461 290.364V298H84.3728V290.364H85.5461ZM90.3784 290.364V298H89.2052V290.364H90.3784ZM95.3435 298.159C94.6541 298.159 94.0492 297.995 93.5288 297.667C93.0118 297.339 92.6074 296.88 92.3158 296.29C92.0274 295.7 91.8833 295.01 91.8833 294.222C91.8833 293.426 92.0274 292.732 92.3158 292.138C92.6074 291.545 93.0118 291.085 93.5288 290.756C94.0492 290.428 94.6541 290.264 95.3435 290.264C96.0329 290.264 96.6361 290.428 97.1531 290.756C97.6735 291.085 98.0779 291.545 98.3662 292.138C98.6579 292.732 98.8037 293.426 98.8037 294.222C98.8037 295.01 98.6579 295.7 98.3662 296.29C98.0779 296.88 97.6735 297.339 97.1531 297.667C96.6361 297.995 96.0329 298.159 95.3435 298.159ZM95.3435 297.105C95.8672 297.105 96.298 296.971 96.6361 296.702C96.9742 296.434 97.2244 296.081 97.3868 295.643C97.5492 295.206 97.6304 294.732 97.6304 294.222C97.6304 293.711 97.5492 293.236 97.3868 292.795C97.2244 292.354 96.9742 291.998 96.6361 291.726C96.298 291.454 95.8672 291.318 95.3435 291.318C94.8198 291.318 94.3889 291.454 94.0509 291.726C93.7128 291.998 93.4626 292.354 93.3002 292.795C93.1378 293.236 93.0565 293.711 93.0565 294.222C93.0565 294.732 93.1378 295.206 93.3002 295.643C93.4626 296.081 93.7128 296.434 94.0509 296.702C94.3889 296.971 94.8198 297.105 95.3435 297.105ZM103.516 298.159C102.781 298.159 102.146 297.997 101.612 297.672C101.082 297.344 100.673 296.886 100.384 296.3C100.099 295.71 99.9568 295.024 99.9568 294.241C99.9568 293.459 100.099 292.77 100.384 292.173C100.673 291.573 101.074 291.106 101.587 290.771C102.104 290.433 102.708 290.264 103.397 290.264C103.795 290.264 104.188 290.33 104.575 290.463C104.963 290.596 105.316 290.811 105.634 291.109C105.953 291.404 106.206 291.795 106.395 292.283C106.584 292.77 106.678 293.37 106.678 294.082V294.58H100.792V293.565H105.485C105.485 293.134 105.399 292.75 105.227 292.412C105.058 292.074 104.816 291.807 104.501 291.612C104.189 291.416 103.821 291.318 103.397 291.318C102.93 291.318 102.525 291.434 102.184 291.666C101.846 291.895 101.586 292.193 101.404 292.561C101.221 292.929 101.13 293.323 101.13 293.744V294.42C101.13 294.997 101.229 295.486 101.428 295.887C101.631 296.285 101.911 296.588 102.269 296.797C102.627 297.002 103.042 297.105 103.516 297.105C103.825 297.105 104.103 297.062 104.352 296.976C104.604 296.886 104.821 296.754 105.003 296.578C105.185 296.399 105.326 296.177 105.426 295.912L106.559 296.23C106.44 296.615 106.239 296.953 105.957 297.244C105.676 297.533 105.328 297.758 104.913 297.92C104.499 298.08 104.033 298.159 103.516 298.159ZM114.943 298.159C114.254 298.159 113.649 297.995 113.128 297.667C112.611 297.339 112.207 296.88 111.915 296.29C111.627 295.7 111.483 295.01 111.483 294.222C111.483 293.426 111.627 292.732 111.915 292.138C112.207 291.545 112.611 291.085 113.128 290.756C113.649 290.428 114.254 290.264 114.943 290.264C115.632 290.264 116.236 290.428 116.753 290.756C117.273 291.085 117.677 291.545 117.966 292.138C118.257 292.732 118.403 293.426 118.403 294.222C118.403 295.01 118.257 295.7 117.966 296.29C117.677 296.88 117.273 297.339 116.753 297.667C116.236 297.995 115.632 298.159 114.943 298.159ZM114.943 297.105C115.467 297.105 115.897 296.971 116.236 296.702C116.574 296.434 116.824 296.081 116.986 295.643C117.149 295.206 117.23 294.732 117.23 294.222C117.23 293.711 117.149 293.236 116.986 292.795C116.824 292.354 116.574 291.998 116.236 291.726C115.897 291.454 115.467 291.318 114.943 291.318C114.419 291.318 113.988 291.454 113.65 291.726C113.312 291.998 113.062 292.354 112.9 292.795C112.737 293.236 112.656 293.711 112.656 294.222C112.656 294.732 112.737 295.206 112.9 295.643C113.062 296.081 113.312 296.434 113.65 296.702C113.988 296.971 114.419 297.105 114.943 297.105ZM119.914 298V290.364H121.087V293.685H121.863L124.607 290.364H126.119L123.036 294.043L126.158 298H124.647L122.141 294.778H121.087V298H119.914ZM132.265 293.645V294.739H128.049V293.645H132.265ZM128.327 290.364V298H127.154V290.364H128.327ZM133.159 290.364V298H131.986V290.364H133.159ZM138.124 298.159C137.435 298.159 136.83 297.995 136.31 297.667C135.793 297.339 135.388 296.88 135.097 296.29C134.808 295.7 134.664 295.01 134.664 294.222C134.664 293.426 134.808 292.732 135.097 292.138C135.388 291.545 135.793 291.085 136.31 290.756C136.83 290.428 137.435 290.264 138.124 290.264C138.814 290.264 139.417 290.428 139.934 290.756C140.454 291.085 140.859 291.545 141.147 292.138C141.439 292.732 141.585 293.426 141.585 294.222C141.585 295.01 141.439 295.7 141.147 296.29C140.859 296.88 140.454 297.339 139.934 297.667C139.417 297.995 138.814 298.159 138.124 298.159ZM138.124 297.105C138.648 297.105 139.079 296.971 139.417 296.702C139.755 296.434 140.005 296.081 140.168 295.643C140.33 295.206 140.411 294.732 140.411 294.222C140.411 293.711 140.33 293.236 140.168 292.795C140.005 292.354 139.755 291.998 139.417 291.726C139.079 291.454 138.648 291.318 138.124 291.318C137.601 291.318 137.17 291.454 136.832 291.726C136.494 291.998 136.244 292.354 136.081 292.795C135.919 293.236 135.837 293.711 135.837 294.222C135.837 294.732 135.919 295.206 136.081 295.643C136.244 296.081 136.494 296.434 136.832 296.702C137.17 296.971 137.601 297.105 138.124 297.105ZM145.437 293.705C145.437 294.957 145.273 296.111 144.945 297.165C144.62 298.215 144.155 299.183 143.548 300.068H142.514C142.753 299.74 142.975 299.336 143.18 298.855C143.389 298.378 143.571 297.854 143.727 297.284C143.883 296.711 144.004 296.119 144.09 295.509C144.179 294.896 144.224 294.295 144.224 293.705C144.224 292.916 144.148 292.115 143.996 291.303C143.843 290.491 143.638 289.737 143.379 289.041C143.121 288.345 142.832 287.778 142.514 287.341H143.548C144.155 288.226 144.62 289.195 144.945 290.249C145.273 291.3 145.437 292.452 145.437 293.705Z" fill="#00141F"/>
<path d="M607.491 8.70455C607.491 7.4517 607.654 6.29995 607.979 5.24929C608.307 4.19531 608.774 3.22585 609.381 2.34091H610.415C610.176 2.66903 609.952 3.07339 609.744 3.55398C609.538 4.03125 609.357 4.55658 609.202 5.12997C609.046 5.70005 608.923 6.29001 608.834 6.89986C608.748 7.50971 608.705 8.11127 608.705 8.70455C608.705 9.49337 608.781 10.2938 608.933 11.1058C609.086 11.9179 609.291 12.6719 609.55 13.3679C609.808 14.0639 610.097 14.6307 610.415 15.0682H609.381C608.774 14.1832 608.307 13.2154 607.979 12.1648C607.654 11.1108 607.491 9.95739 607.491 8.70455ZM614.804 13.1591C614.115 13.1591 613.51 12.995 612.99 12.6669C612.473 12.3388 612.068 11.8797 611.777 11.2898C611.488 10.6998 611.344 10.0104 611.344 9.22159C611.344 8.42614 611.488 7.73177 611.777 7.13849C612.068 6.54522 612.473 6.08452 612.99 5.75639C613.51 5.42827 614.115 5.2642 614.804 5.2642C615.494 5.2642 616.097 5.42827 616.614 5.75639C617.134 6.08452 617.539 6.54522 617.827 7.13849C618.119 7.73177 618.265 8.42614 618.265 9.22159C618.265 10.0104 618.119 10.6998 617.827 11.2898C617.539 11.8797 617.134 12.3388 616.614 12.6669C616.097 12.995 615.494 13.1591 614.804 13.1591ZM614.804 12.1051C615.328 12.1051 615.759 11.9709 616.097 11.7024C616.435 11.4339 616.685 11.081 616.848 10.6435C617.01 10.206 617.091 9.73201 617.091 9.22159C617.091 8.71117 617.01 8.23556 616.848 7.79474C616.685 7.35393 616.435 6.99763 616.097 6.72585C615.759 6.45407 615.328 6.31818 614.804 6.31818C614.281 6.31818 613.85 6.45407 613.512 6.72585C613.174 6.99763 612.923 7.35393 612.761 7.79474C612.599 8.23556 612.517 8.71117 612.517 9.22159C612.517 9.73201 612.599 10.206 612.761 10.6435C612.923 11.081 613.174 11.4339 613.512 11.7024C613.85 11.9709 614.281 12.1051 614.804 12.1051ZM619.776 13V5.36364H620.949V8.68466H621.724L624.469 5.36364H625.98L622.898 9.04261L626.02 13H624.509L622.003 9.77841H620.949V13H619.776ZM632.126 8.64489V9.73864H627.91V8.64489H632.126ZM628.188 5.36364V13H627.015V5.36364H628.188ZM633.021 5.36364V13H631.847V5.36364H633.021ZM637.986 13.1591C637.296 13.1591 636.692 12.995 636.171 12.6669C635.654 12.3388 635.25 11.8797 634.958 11.2898C634.67 10.6998 634.526 10.0104 634.526 9.22159C634.526 8.42614 634.67 7.73177 634.958 7.13849C635.25 6.54522 635.654 6.08452 636.171 5.75639C636.692 5.42827 637.296 5.2642 637.986 5.2642C638.675 5.2642 639.278 5.42827 639.795 5.75639C640.316 6.08452 640.72 6.54522 641.009 7.13849C641.3 7.73177 641.446 8.42614 641.446 9.22159C641.446 10.0104 641.3 10.6998 641.009 11.2898C640.72 11.8797 640.316 12.3388 639.795 12.6669C639.278 12.995 638.675 13.1591 637.986 13.1591ZM637.986 12.1051C638.509 12.1051 638.94 11.9709 639.278 11.7024C639.617 11.4339 639.867 11.081 640.029 10.6435C640.192 10.206 640.273 9.73201 640.273 9.22159C640.273 8.71117 640.192 8.23556 640.029 7.79474C639.867 7.35393 639.617 6.99763 639.278 6.72585C638.94 6.45407 638.509 6.31818 637.986 6.31818C637.462 6.31818 637.031 6.45407 636.693 6.72585C636.355 6.99763 636.105 7.35393 635.942 7.79474C635.78 8.23556 635.699 8.71117 635.699 9.22159C635.699 9.73201 635.78 10.206 635.942 10.6435C636.105 11.081 636.355 11.4339 636.693 11.7024C637.031 11.9709 637.462 12.1051 637.986 12.1051ZM647.332 8.08807V9.18182H642.878V8.08807H647.332ZM651.642 6.35795C651.377 6.36127 651.11 6.42921 650.842 6.56179C650.577 6.69437 650.354 6.87003 650.175 7.08878C650 7.30421 649.912 7.54451 649.912 7.80966H648.759C648.759 7.47822 648.838 7.16004 648.997 6.85511C649.156 6.55019 649.37 6.27841 649.639 6.03977C649.91 5.80114 650.219 5.61222 650.563 5.47301C650.911 5.33381 651.271 5.2642 651.642 5.2642C652.338 5.2642 652.928 5.43987 653.412 5.79119C653.899 6.14252 654.269 6.60653 654.521 7.18324C654.776 7.75994 654.903 8.38636 654.903 9.0625V9.34091C654.903 10.0137 654.776 10.6402 654.521 11.2202C654.269 11.7969 653.899 12.2609 653.412 12.6122C652.928 12.9635 652.338 13.1392 651.642 13.1392C651.085 13.1392 650.59 13.0166 650.156 12.7713C649.721 12.5227 649.38 12.1913 649.131 11.777C648.883 11.3627 648.759 10.902 648.759 10.3949H649.912C649.912 10.6832 649.993 10.9534 650.156 11.2053C650.321 11.4538 650.535 11.656 650.797 11.8118C651.062 11.9643 651.344 12.0421 651.642 12.0455C652.086 12.0421 652.464 11.9029 652.776 11.6278C653.087 11.3527 653.324 11.008 653.487 10.5938C653.649 10.1795 653.73 9.76184 653.73 9.34091V9.0625C653.73 8.63163 653.649 8.2107 653.487 7.79972C653.327 7.38542 653.092 7.04238 652.781 6.7706C652.472 6.49882 652.093 6.36127 651.642 6.35795ZM654.207 8.60511V9.69886H650.867V8.60511H654.207ZM655.735 13V11.9062H656.013C656.242 11.9062 656.432 11.8615 656.585 11.772C656.737 11.6792 656.86 11.5185 656.953 11.2898C657.049 11.0578 657.122 10.7363 657.171 10.3253C657.224 9.91098 657.263 9.384 657.286 8.74432L657.425 5.36364H662.516V13H661.343V6.45739H658.539L658.419 9.18182C658.393 9.80824 658.336 10.3601 658.25 10.8374C658.167 11.3113 658.04 11.709 657.867 12.0305C657.698 12.352 657.473 12.594 657.191 12.7564C656.91 12.9188 656.557 13 656.132 13H655.735ZM663.712 13V11.9062H663.991C664.22 11.9062 664.41 11.8615 664.563 11.772C664.715 11.6792 664.838 11.5185 664.93 11.2898C665.027 11.0578 665.099 10.7363 665.149 10.3253C665.202 9.91098 665.24 9.384 665.264 8.74432L665.403 5.36364H670.494V13H669.32V6.45739H666.516L666.397 9.18182C666.371 9.80824 666.314 10.3601 666.228 10.8374C666.145 11.3113 666.018 11.709 665.845 12.0305C665.676 12.352 665.451 12.594 665.169 12.7564C664.887 12.9188 664.534 13 664.11 13H663.712ZM673.54 11.2699L677.219 5.36364H678.571V13H677.398V7.09375L673.739 13H672.366V5.36364H673.54V11.2699ZM680.44 13V5.36364H686.446V13H685.272V6.45739H681.613V13H680.44ZM691.411 13.1591C690.695 13.1591 690.078 12.9901 689.561 12.652C689.044 12.3139 688.646 11.8482 688.368 11.255C688.09 10.6617 687.95 9.9839 687.95 9.22159C687.95 8.44602 688.093 7.7616 688.378 7.16832C688.666 6.57173 689.067 6.10606 689.581 5.77131C690.098 5.43324 690.701 5.2642 691.391 5.2642C691.928 5.2642 692.412 5.36364 692.842 5.5625C693.273 5.76136 693.626 6.03977 693.901 6.39773C694.176 6.75568 694.347 7.1733 694.413 7.65057H693.24C693.151 7.30256 692.952 6.99432 692.644 6.72585C692.339 6.45407 691.928 6.31818 691.411 6.31818C690.953 6.31818 690.552 6.4375 690.207 6.67614C689.866 6.91146 689.599 7.24455 689.407 7.67543C689.218 8.10298 689.124 8.60511 689.124 9.18182C689.124 9.77178 689.216 10.2855 689.402 10.723C689.591 11.1605 689.856 11.5002 690.198 11.7422C690.542 11.9841 690.947 12.1051 691.411 12.1051C691.716 12.1051 691.992 12.0521 692.241 11.946C692.489 11.84 692.7 11.6875 692.872 11.4886C693.045 11.2898 693.167 11.0511 693.24 10.7727H694.413C694.347 11.2235 694.183 11.6295 693.921 11.9908C693.663 12.3487 693.32 12.6338 692.892 12.8459C692.468 13.0547 691.974 13.1591 691.411 13.1591ZM698.354 8.70455C698.354 9.95739 698.19 11.1108 697.862 12.1648C697.537 13.2154 697.072 14.1832 696.465 15.0682H695.431C695.67 14.7401 695.892 14.3357 696.097 13.8551C696.306 13.3778 696.488 12.8542 696.644 12.2841C696.8 11.7107 696.921 11.1191 697.007 10.5092C697.096 9.89607 697.141 9.29451 697.141 8.70455C697.141 7.91572 697.065 7.11529 696.913 6.30327C696.76 5.49124 696.555 4.73722 696.296 4.04119C696.038 3.34517 695.749 2.77841 695.431 2.34091H696.465C697.072 3.22585 697.537 4.19531 697.862 5.24929C698.19 6.29995 698.354 7.4517 698.354 8.70455Z" fill="#00141F"/>
<path d="M607.491 293.705C607.491 292.452 607.654 291.3 607.979 290.249C608.307 289.195 608.774 288.226 609.381 287.341H610.415C610.176 287.669 609.952 288.073 609.744 288.554C609.538 289.031 609.357 289.557 609.202 290.13C609.046 290.7 608.923 291.29 608.834 291.9C608.748 292.51 608.705 293.111 608.705 293.705C608.705 294.493 608.781 295.294 608.933 296.106C609.086 296.918 609.291 297.672 609.55 298.368C609.808 299.064 610.097 299.631 610.415 300.068H609.381C608.774 299.183 608.307 298.215 607.979 297.165C607.654 296.111 607.491 294.957 607.491 293.705ZM614.804 298.159C614.115 298.159 613.51 297.995 612.99 297.667C612.473 297.339 612.068 296.88 611.777 296.29C611.488 295.7 611.344 295.01 611.344 294.222C611.344 293.426 611.488 292.732 611.777 292.138C612.068 291.545 612.473 291.085 612.99 290.756C613.51 290.428 614.115 290.264 614.804 290.264C615.494 290.264 616.097 290.428 616.614 290.756C617.134 291.085 617.539 291.545 617.827 292.138C618.119 292.732 618.265 293.426 618.265 294.222C618.265 295.01 618.119 295.7 617.827 296.29C617.539 296.88 617.134 297.339 616.614 297.667C616.097 297.995 615.494 298.159 614.804 298.159ZM614.804 297.105C615.328 297.105 615.759 296.971 616.097 296.702C616.435 296.434 616.685 296.081 616.848 295.643C617.01 295.206 617.091 294.732 617.091 294.222C617.091 293.711 617.01 293.236 616.848 292.795C616.685 292.354 616.435 291.998 616.097 291.726C615.759 291.454 615.328 291.318 614.804 291.318C614.281 291.318 613.85 291.454 613.512 291.726C613.174 291.998 612.923 292.354 612.761 292.795C612.599 293.236 612.517 293.711 612.517 294.222C612.517 294.732 612.599 295.206 612.761 295.643C612.923 296.081 613.174 296.434 613.512 296.702C613.85 296.971 614.281 297.105 614.804 297.105ZM619.776 298V290.364H620.949V293.685H621.724L624.469 290.364H625.98L622.898 294.043L626.02 298H624.509L622.003 294.778H620.949V298H619.776ZM632.126 293.645V294.739H627.91V293.645H632.126ZM628.188 290.364V298H627.015V290.364H628.188ZM633.021 290.364V298H631.847V290.364H633.021ZM637.986 298.159C637.296 298.159 636.692 297.995 636.171 297.667C635.654 297.339 635.25 296.88 634.958 296.29C634.67 295.7 634.526 295.01 634.526 294.222C634.526 293.426 634.67 292.732 634.958 292.138C635.25 291.545 635.654 291.085 636.171 290.756C636.692 290.428 637.296 290.264 637.986 290.264C638.675 290.264 639.278 290.428 639.795 290.756C640.316 291.085 640.72 291.545 641.009 292.138C641.3 292.732 641.446 293.426 641.446 294.222C641.446 295.01 641.3 295.7 641.009 296.29C640.72 296.88 640.316 297.339 639.795 297.667C639.278 297.995 638.675 298.159 637.986 298.159ZM637.986 297.105C638.509 297.105 638.94 296.971 639.278 296.702C639.617 296.434 639.867 296.081 640.029 295.643C640.192 295.206 640.273 294.732 640.273 294.222C640.273 293.711 640.192 293.236 640.029 292.795C639.867 292.354 639.617 291.998 639.278 291.726C638.94 291.454 638.509 291.318 637.986 291.318C637.462 291.318 637.031 291.454 636.693 291.726C636.355 291.998 636.105 292.354 635.942 292.795C635.78 293.236 635.699 293.711 635.699 294.222C635.699 294.732 635.78 295.206 635.942 295.643C636.105 296.081 636.355 296.434 636.693 296.702C637.031 296.971 637.462 297.105 637.986 297.105ZM647.332 293.088V294.182H642.878V293.088H647.332ZM651.364 298.179C650.88 298.179 650.441 298.088 650.046 297.906C649.652 297.72 649.339 297.453 649.107 297.105C648.875 296.754 648.759 296.33 648.759 295.832C648.759 295.395 648.845 295.04 649.017 294.768C649.189 294.493 649.42 294.278 649.708 294.122C649.996 293.966 650.315 293.85 650.663 293.774C651.014 293.695 651.367 293.632 651.722 293.585C652.186 293.526 652.562 293.481 652.85 293.451C653.142 293.418 653.354 293.363 653.487 293.287C653.622 293.211 653.69 293.078 653.69 292.889V292.849C653.69 292.359 653.556 291.978 653.288 291.706C653.023 291.434 652.62 291.298 652.08 291.298C651.519 291.298 651.08 291.421 650.762 291.666C650.444 291.911 650.22 292.173 650.091 292.452L648.977 292.054C649.176 291.59 649.441 291.229 649.773 290.97C650.108 290.708 650.472 290.526 650.867 290.423C651.264 290.317 651.655 290.264 652.04 290.264C652.285 290.264 652.567 290.294 652.885 290.354C653.206 290.41 653.516 290.528 653.815 290.707C654.116 290.886 654.367 291.156 654.565 291.517C654.764 291.878 654.864 292.362 654.864 292.969V298H653.69V296.966H653.631C653.551 297.132 653.419 297.309 653.233 297.498C653.047 297.687 652.8 297.848 652.492 297.98C652.184 298.113 651.808 298.179 651.364 298.179ZM651.543 297.125C652.007 297.125 652.398 297.034 652.716 296.852C653.037 296.669 653.279 296.434 653.442 296.146C653.608 295.857 653.69 295.554 653.69 295.236V294.162C653.641 294.222 653.531 294.276 653.362 294.326C653.197 294.372 653.004 294.414 652.786 294.45C652.57 294.483 652.36 294.513 652.154 294.54C651.952 294.563 651.788 294.583 651.662 294.599C651.357 294.639 651.072 294.704 650.807 294.793C650.545 294.879 650.333 295.01 650.17 295.186C650.011 295.358 649.932 295.594 649.932 295.892C649.932 296.3 650.083 296.608 650.384 296.817C650.689 297.022 651.075 297.125 651.543 297.125ZM656.725 300.864V290.364H657.859V291.577H657.998C658.084 291.444 658.203 291.275 658.356 291.07C658.512 290.861 658.734 290.675 659.022 290.513C659.314 290.347 659.708 290.264 660.205 290.264C660.848 290.264 661.415 290.425 661.906 290.746C662.396 291.068 662.779 291.524 663.054 292.114C663.329 292.704 663.467 293.4 663.467 294.202C663.467 295.01 663.329 295.711 663.054 296.305C662.779 296.895 662.398 297.352 661.911 297.677C661.423 297.998 660.862 298.159 660.225 298.159C659.735 298.159 659.342 298.078 659.047 297.915C658.752 297.75 658.525 297.562 658.366 297.354C658.207 297.142 658.084 296.966 657.998 296.827H657.898V300.864H656.725ZM657.879 294.182C657.879 294.759 657.963 295.267 658.132 295.708C658.301 296.146 658.548 296.489 658.873 296.737C659.198 296.982 659.595 297.105 660.066 297.105C660.557 297.105 660.966 296.976 661.294 296.717C661.626 296.455 661.874 296.104 662.04 295.663C662.209 295.219 662.293 294.725 662.293 294.182C662.293 293.645 662.211 293.161 662.045 292.73C661.882 292.296 661.635 291.953 661.304 291.701C660.976 291.446 660.563 291.318 660.066 291.318C659.589 291.318 659.188 291.439 658.863 291.681C658.538 291.92 658.293 292.254 658.127 292.685C657.961 293.113 657.879 293.612 657.879 294.182ZM664.976 298V290.364H666.15V293.685H666.925L669.67 290.364H671.181L668.099 294.043L671.221 298H669.709L667.204 294.778H666.15V298H664.976ZM674.463 298.179C673.979 298.179 673.54 298.088 673.146 297.906C672.751 297.72 672.438 297.453 672.206 297.105C671.974 296.754 671.858 296.33 671.858 295.832C671.858 295.395 671.944 295.04 672.117 294.768C672.289 294.493 672.519 294.278 672.808 294.122C673.096 293.966 673.414 293.85 673.762 293.774C674.113 293.695 674.466 293.632 674.821 293.585C675.285 293.526 675.661 293.481 675.95 293.451C676.241 293.418 676.453 293.363 676.586 293.287C676.722 293.211 676.79 293.078 676.79 292.889V292.849C676.79 292.359 676.656 291.978 676.387 291.706C676.122 291.434 675.719 291.298 675.179 291.298C674.619 291.298 674.18 291.421 673.862 291.666C673.543 291.911 673.32 292.173 673.19 292.452L672.077 292.054C672.276 291.59 672.541 291.229 672.872 290.97C673.207 290.708 673.572 290.526 673.966 290.423C674.364 290.317 674.755 290.264 675.139 290.264C675.385 290.264 675.666 290.294 675.984 290.354C676.306 290.41 676.616 290.528 676.914 290.707C677.216 290.886 677.466 291.156 677.665 291.517C677.864 291.878 677.963 292.362 677.963 292.969V298H676.79V296.966H676.73C676.651 297.132 676.518 297.309 676.332 297.498C676.147 297.687 675.9 297.848 675.592 297.98C675.283 298.113 674.907 298.179 674.463 298.179ZM674.642 297.125C675.106 297.125 675.497 297.034 675.815 296.852C676.137 296.669 676.379 296.434 676.541 296.146C676.707 295.857 676.79 295.554 676.79 295.236V294.162C676.74 294.222 676.631 294.276 676.462 294.326C676.296 294.372 676.104 294.414 675.885 294.45C675.67 294.483 675.459 294.513 675.254 294.54C675.051 294.563 674.887 294.583 674.761 294.599C674.457 294.639 674.171 294.704 673.906 294.793C673.644 294.879 673.432 295.01 673.27 295.186C673.111 295.358 673.031 295.594 673.031 295.892C673.031 296.3 673.182 296.608 673.484 296.817C673.789 297.022 674.175 297.125 674.642 297.125ZM682.33 293.705C682.33 294.957 682.166 296.111 681.838 297.165C681.513 298.215 681.048 299.183 680.441 300.068H679.407C679.646 299.74 679.868 299.336 680.073 298.855C680.282 298.378 680.464 297.854 680.62 297.284C680.776 296.711 680.897 296.119 680.983 295.509C681.073 294.896 681.117 294.295 681.117 293.705C681.117 292.916 681.041 292.115 680.889 291.303C680.736 290.491 680.531 289.737 680.272 289.041C680.014 288.345 679.725 287.778 679.407 287.341H680.441C681.048 288.226 681.513 289.195 681.838 290.249C682.166 291.3 682.33 292.452 682.33 293.705Z" fill="#00141F"/>
<path d="M370.5 117.5C370.5 182.113 317.674 234.5 252.5 234.5C187.326 234.5 134.5 182.113 134.5 117.5C134.5 52.8867 187.326 0.5 252.5 0.5C317.674 0.5 370.5 52.8867 370.5 117.5Z" stroke="#00141F"/>
<path d="M1112.5 117.5C1112.5 149.689 1089.62 178.93 1052.42 200.151C1015.23 221.364 963.815 234.5 907 234.5C850.185 234.5 798.774 221.364 761.584 200.151C724.379 178.93 701.5 149.689 701.5 117.5C701.5 85.3106 724.379 56.0704 761.584 34.8493C798.774 13.6363 850.185 0.5 907 0.5C963.815 0.5 1015.23 13.6363 1052.42 34.8493C1089.62 56.0704 1112.5 85.3106 1112.5 117.5Z" stroke="#00141F"/>
<rect x="545.5" y="285.5" width="234" height="411" rx="117" transform="rotate(90 545.5 285.5)" stroke="#00141F"/>
<path d="M701.5 491C701.5 377.505 793.505 285.5 907 285.5C1020.49 285.5 1112.5 377.505 1112.5 491V519.5H701.5V491Z" stroke="#00141F"/>
</svg>
